{
copyright = "Copyright (c) 2015, Cadson Demak (info@cadsondemak.com)";
customParameters = (
{
name = vendorID;
value = CDK;
},
{
name = description;
value = "Copyright (c) 2015, Cadson Demak (info@cadsondemak.com)";
},
{
name = license;

glyphs = (
{
glyphname = A;
lastChange = "2015-11-29 23:41:38 +0000";
layers = (
{
layerId = "FFDA6A0D-11B9-4032-BFBB-EDC4FF23EF93";
name = Light;
paths = (
{
closed = 1;
nodes = (
"109 0 LINE",
"189 201 LINE",
"526 201 LINE",
"606 0 LINE",
"660 0 LINE",
"381 699 LINE",
"334 699 LINE",
"55 0 LINE"
);
},
{
closed = 1;
nodes = (
"357 633 LINE",
"510 246 LINE",
"205 246 LINE"
);
}
);
width = 715;
}
);
leftKerningGroup = A;
note = A;
rightKerningGroup = A;
unicode = 0041;
},
{
glyphname = Aacute;
lastChange = "2015-11-29 23:41:38 +0000";
layers = (
{
layerId = "FFDA6A0D-11B9-4032-BFBB-EDC4FF23EF93";
name = Light;
paths = (
{
closed = 1;
nodes = (
"109 0 LINE",
"189 201 LINE",
"526 201 LINE",
"606 0 LINE",
"660 0 LINE",
"381 699 LINE",
"334 699 LINE",
"55 0 LINE"
);
},
{
closed = 1;
nodes = (
"357 633 LINE",
"510 246 LINE",
"205 246 LINE"
);
},
{
closed = 1;
nodes = (
"386 754 LINE",
"464 923 LINE",
"410 923 LINE",
"340 754 LINE"
);
}
);
width = 715;
}
);
leftKerningGroup = A;
note = Aacute;
rightKerningGroup = A;
unicode = 00C1;
},
{
glyphname = Abreve;
lastChange = "2015-11-29 23:41:37 +0000";
layers = (
{
layerId = "FFDA6A0D-11B9-4032-BFBB-EDC4FF23EF93";
name = Light;
paths = (
{
closed = 1;
nodes = (
"109 0 LINE",
"189 201 LINE",
"526 201 LINE",
"606 0 LINE",
"660 0 LINE",
"381 699 LINE",
"334 699 LINE",
"55 0 LINE"
);
},
{
closed = 1;
nodes = (
"357 633 LINE",
"510 246 LINE",
"205 246 LINE"
);
},
{
closed = 1;
nodes = (
"435 755 OFFCURVE",
"486 807 OFFCURVE",
"486 874 CURVE",
"445 874 LINE",
"445 827 OFFCURVE",
"412 794 OFFCURVE",
"358 794 CURVE SMOOTH",
"304 794 OFFCURVE",
"271 827 OFFCURVE",
"271 874 CURVE",
"229 874 LINE",
"229 807 OFFCURVE",
"280 755 OFFCURVE",
"358 755 CURVE SMOOTH"
);
}
);
width = 715;
}
);
leftKerningGroup = A;
note = Abreve;
rightKerningGroup = A;
unicode = 0102;
},
{
glyphname = Abreveacute;
lastChange = "2015-11-29 23:41:38 +0000";
layers = (
{
layerId = "FFDA6A0D-11B9-4032-BFBB-EDC4FF23EF93";
name = Light;
paths = (
{
closed = 1;
nodes = (
"109 0 LINE",
"189 201 LINE",
"526 201 LINE",
"606 0 LINE",
"660 0 LINE",
"381 699 LINE",
"334 699 LINE",
"55 0 LINE"
);
},
{
closed = 1;
nodes = (
"357 633 LINE",
"510 246 LINE",
"205 246 LINE"
);
},
{
closed = 1;
nodes = (
"435 746 OFFCURVE",
"485 797 OFFCURVE",
"485 864 CURVE",
"444 864 LINE",
"444 817 OFFCURVE",
"412 784 OFFCURVE",
"358 784 CURVE SMOOTH",
"304 784 OFFCURVE",
"271 817 OFFCURVE",
"271 864 CURVE",
"230 864 LINE",
"230 797 OFFCURVE",
"281 746 OFFCURVE",
"358 746 CURVE SMOOTH"
);
},
{
closed = 1;
nodes = (
"365 840 LINE",
"426 961 LINE",
"380 961 LINE",
"327 840 LINE"
);
}
);
width = 715;
}
);
leftKerningGroup = A;
note = Abreveacute;
rightKerningGroup = A;
unicode = 1EAE;
},
{
glyphname = Abrevedotbelow;
lastChange = "2015-11-29 23:41:38 +0000";
layers = (
{
layerId = "FFDA6A0D-11B9-4032-BFBB-EDC4FF23EF93";
name = Light;
paths = (
{
closed = 1;
nodes = (
"109 0 LINE",
"189 201 LINE",
"526 201 LINE",
"606 0 LINE",
"660 0 LINE",
"381 699 LINE",
"334 699 LINE",
"55 0 LINE"
);
},
{
closed = 1;
nodes = (
"378 -137 OFFCURVE",
"396 -119 OFFCURVE",
"396 -98 CURVE SMOOTH",
"396 -77 OFFCURVE",
"378 -60 OFFCURVE",
"358 -60 CURVE SMOOTH",
"337 -60 OFFCURVE",
"319 -77 OFFCURVE",
"319 -98 CURVE SMOOTH",
"319 -119 OFFCURVE",
"337 -137 OFFCURVE",
"358 -137 CURVE SMOOTH"
);
},
{
closed = 1;
nodes = (
"357 633 LINE",
"510 246 LINE",
"205 246 LINE"
);
},
{
closed = 1;
nodes = (
"435 749 OFFCURVE",
"486 801 OFFCURVE",
"486 868 CURVE",
"445 868 LINE",
"445 821 OFFCURVE",
"412 788 OFFCURVE",
"358 788 CURVE SMOOTH",
"304 788 OFFCURVE",
"271 821 OFFCURVE",
"271 868 CURVE",
"229 868 LINE",
"229 801 OFFCURVE",
"280 749 OFFCURVE",
"358 749 CURVE SMOOTH"
);
}
);
width = 715;
}
);
leftKerningGroup = A;
note = Abrevedotbelow;
rightKerningGroup = A;
unicode = 1EB6;
},
{
glyphname = Abrevegrave;
lastChange = "2015-11-29 23:41:38 +0000";
layers = (
{
layerId = "FFDA6A0D-11B9-4032-BFBB-EDC4FF23EF93";
name = Light;
paths = (
{
closed = 1;
nodes = (
"109 0 LINE",
"189 201 LINE",
"526 201 LINE",
"606 0 LINE",
"660 0 LINE",
"381 699 LINE",
"334 699 LINE",
"55 0 LINE"
);
},
{
closed = 1;
nodes = (
"357 633 LINE",
"510 246 LINE",
"205 246 LINE"
);
},
{
closed = 1;
nodes = (
"435 746 OFFCURVE",
"485 797 OFFCURVE",
"485 864 CURVE",
"444 864 LINE",
"444 817 OFFCURVE",
"412 784 OFFCURVE",
"358 784 CURVE SMOOTH",
"304 784 OFFCURVE",
"271 817 OFFCURVE",
"271 864 CURVE",
"230 864 LINE",
"230 797 OFFCURVE",
"281 746 OFFCURVE",
"358 746 CURVE SMOOTH"
);
},
{
closed = 1;
nodes = (
"389 840 LINE",
"336 961 LINE",
"289 961 LINE",
"351 840 LINE"
);
}
);
width = 715;
}
);
leftKerningGroup = A;
note = Abrevegrave;
rightKerningGroup = A;
unicode = 1EB0;
},
{
glyphname = Abrevehookabove;
lastChange = "2015-11-29 23:41:38 +0000";
layers = (
{
layerId = "FFDA6A0D-11B9-4032-BFBB-EDC4FF23EF93";
name = Light;
paths = (
{
closed = 1;
nodes = (
"109 0 LINE",
"189 201 LINE",
"526 201 LINE",
"606 0 LINE",
"660 0 LINE",
"381 699 LINE",
"334 699 LINE",
"55 0 LINE"
);
},
{
closed = 1;
nodes = (
"357 633 LINE",
"510 246 LINE",
"205 246 LINE"
);
},
{
closed = 1;
nodes = (
"435 745 OFFCURVE",
"485 796 OFFCURVE",
"485 863 CURVE",
"445 863 LINE",
"445 816 OFFCURVE",
"412 783 OFFCURVE",
"358 783 CURVE SMOOTH",
"304 783 OFFCURVE",
"271 816 OFFCURVE",
"271 863 CURVE",
"230 863 LINE",
"230 796 OFFCURVE",
"281 745 OFFCURVE",
"358 745 CURVE SMOOTH"
);
},
{
closed = 1;
nodes = (
"367 828 LINE",
"367 854 LINE",
"411 858 OFFCURVE",
"435 883 OFFCURVE",
"435 917 CURVE SMOOTH",
"435 955 OFFCURVE",
"410 981 OFFCURVE",
"358 981 CURVE SMOOTH",
"338 981 OFFCURVE",
"316 977 OFFCURVE",
"303 972 CURVE",
"303 942 LINE",
"314 947 OFFCURVE",
"334 950 OFFCURVE",
"350 950 CURVE SMOOTH",
"380 950 OFFCURVE",
"394 941 OFFCURVE",
"394 917 CURVE SMOOTH",
"394 889 OFFCURVE",
"375 878 OFFCURVE",
"331 878 CURVE",
"331 828 LINE"
);
}
);
width = 715;
}
);
leftKerningGroup = A;
note = Abrevehookabove;
rightKerningGroup = A;
unicode = 1EB2;
},
{
glyphname = Abrevetilde;
lastChange = "2015-11-29 23:41:37 +0000";
layers = (
{
layerId = "FFDA6A0D-11B9-4032-BFBB-EDC4FF23EF93";
name = Light;
paths = (
{
closed = 1;
nodes = (
"109 0 LINE",
"189 201 LINE",
"526 201 LINE",
"606 0 LINE",
"660 0 LINE",
"381 699 LINE",
"334 699 LINE",
"55 0 LINE"
);
},
{
closed = 1;
nodes = (
"357 633 LINE",
"510 246 LINE",
"205 246 LINE"
);
},
{
closed = 1;
nodes = (
"437 745 OFFCURVE",
"487 796 OFFCURVE",
"487 863 CURVE",
"447 863 LINE",
"447 816 OFFCURVE",
"414 783 OFFCURVE",
"360 783 CURVE SMOOTH",
"306 783 OFFCURVE",
"273 816 OFFCURVE",
"273 863 CURVE",
"232 863 LINE",
"232 796 OFFCURVE",
"283 745 OFFCURVE",
"360 745 CURVE SMOOTH"
);
},
{
closed = 1;
nodes = (
"229 921 OFFCURVE",
"252 931 OFFCURVE",
"282 931 CURVE SMOOTH",
"330 931 OFFCURVE",
"376 887 OFFCURVE",
"432 887 CURVE SMOOTH",
"467 887 OFFCURVE",
"492 896 OFFCURVE",
"508 923 CURVE",
"508 969 LINE",
"487 934 OFFCURVE",
"463 923 OFFCURVE",
"432 923 CURVE SMOOTH",
"383 923 OFFCURVE",
"334 968 OFFCURVE",
"282 968 CURVE SMOOTH",
"248 968 OFFCURVE",
"222 958 OFFCURVE",
"206 931 CURVE",
"206 886 LINE"
);
}
);
width = 715;
}
);
leftKerningGroup = A;
note = Abrevetilde;
rightKerningGroup = A;
unicode = 1EB4;
},
{
glyphname = Acaron;
lastChange = "2015-11-29 23:41:39 +0000";
layers = (
{
layerId = "FFDA6A0D-11B9-4032-BFBB-EDC4FF23EF93";
name = Light;
paths = (
{
closed = 1;
nodes = (
"109 0 LINE",
"189 201 LINE",
"526 201 LINE",
"606 0 LINE",
"660 0 LINE",
"381 699 LINE",
"334 699 LINE",
"55 0 LINE"
);
},
{
closed = 1;
nodes = (
"357 633 LINE",
"510 246 LINE",
"205 246 LINE"
);
},
{
closed = 1;
nodes = (
"380 763 LINE",
"512 919 LINE",
"458 919 LINE",
"358 798 LINE",
"258 919 LINE",
"203 919 LINE",
"335 763 LINE"
);
}
);
width = 715;
}
);
leftKerningGroup = A;
note = Acaron;
rightKerningGroup = A;
unicode = 01CD;
},
{
glyphname = Acircumflex;
lastChange = "2015-11-29 23:41:38 +0000";
layers = (
{
layerId = "FFDA6A0D-11B9-4032-BFBB-EDC4FF23EF93";
name = Light;
paths = (
{
closed = 1;
nodes = (
"109 0 LINE",
"189 201 LINE",
"526 201 LINE",
"606 0 LINE",
"660 0 LINE",
"381 699 LINE",
"334 699 LINE",
"55 0 LINE"
);
},
{
closed = 1;
nodes = (
"357 633 LINE",
"510 246 LINE",
"205 246 LINE"
);
},
{
closed = 1;
nodes = (
"258 758 LINE",
"358 879 LINE",
"458 758 LINE",
"512 758 LINE",
"380 914 LINE",
"335 914 LINE",
"203 758 LINE"
);
}
);
width = 715;
}
);
leftKerningGroup = A;
note = Acircumflex;
rightKerningGroup = A;
unicode = 00C2;
},
{
glyphname = Acircumflexacute;
lastChange = "2015-11-29 23:41:38 +0000";
layers = (
{
layerId = "FFDA6A0D-11B9-4032-BFBB-EDC4FF23EF93";
name = Light;
paths = (
{
closed = 1;
nodes = (
"109 0 LINE",
"189 201 LINE",
"526 201 LINE",
"606 0 LINE",
"660 0 LINE",
"381 699 LINE",
"334 699 LINE",
"55 0 LINE"
);
},
{
closed = 1;
nodes = (
"357 633 LINE",
"510 246 LINE",
"205 246 LINE"
);
},
{
closed = 1;
nodes = (
"258 744 LINE",
"353 835 LINE",
"448 744 LINE",
"501 744 LINE",
"371 868 LINE",
"334 868 LINE",
"204 744 LINE"
);
},
{
closed = 1;
nodes = (
"475 837 LINE",
"551 951 LINE",
"505 951 LINE",
"437 837 LINE"
);
}
);
width = 715;
}
);
leftKerningGroup = A;
note = Acircumflexacute;
rightKerningGroup = A;
unicode = 1EA4;
},
{
glyphname = Acircumflexdotbelow;
lastChange = "2015-11-29 23:41:38 +0000";
layers = (
{
layerId = "FFDA6A0D-11B9-4032-BFBB-EDC4FF23EF93";
name = Light;
paths = (
{
closed = 1;
nodes = (
"109 0 LINE",
"189 201 LINE",
"526 201 LINE",
"606 0 LINE",
"660 0 LINE",
"381 699 LINE",
"334 699 LINE",
"55 0 LINE"
);
},
{
closed = 1;
nodes = (
"378 -137 OFFCURVE",
"396 -119 OFFCURVE",
"396 -98 CURVE SMOOTH",
"396 -77 OFFCURVE",
"378 -60 OFFCURVE",
"358 -60 CURVE SMOOTH",
"337 -60 OFFCURVE",
"319 -77 OFFCURVE",
"319 -98 CURVE SMOOTH",
"319 -119 OFFCURVE",
"337 -137 OFFCURVE",
"358 -137 CURVE SMOOTH"
);
},
{
closed = 1;
nodes = (
"357 633 LINE",
"510 246 LINE",
"205 246 LINE"
);
},
{
closed = 1;
nodes = (
"258 764 LINE",
"358 885 LINE",
"458 764 LINE",
"512 764 LINE",
"380 920 LINE",
"335 920 LINE",
"203 764 LINE"
);
}
);
width = 715;
}
);
leftKerningGroup = A;
note = Acircumflexdotbelow;
rightKerningGroup = A;
unicode = 1EAC;
},
{
glyphname = Acircumflexgrave;
lastChange = "2015-11-29 23:41:38 +0000";
layers = (
{
layerId = "FFDA6A0D-11B9-4032-BFBB-EDC4FF23EF93";
name = Light;
paths = (
{
closed = 1;
nodes = (
"109 0 LINE",
"189 201 LINE",
"526 201 LINE",
"606 0 LINE",
"660 0 LINE",
"381 699 LINE",
"334 699 LINE",
"55 0 LINE"
);
},
{
closed = 1;
nodes = (
"357 633 LINE",
"510 246 LINE",
"205 246 LINE"
);
},
{
closed = 1;
nodes = (
"275 837 LINE",
"207 951 LINE",
"161 951 LINE",
"237 837 LINE"
);
},
{
closed = 1;
nodes = (
"264 744 LINE",
"359 835 LINE",
"454 744 LINE",
"508 744 LINE",
"378 868 LINE",
"341 868 LINE",
"211 744 LINE"
);
}
);
width = 715;
}
);
leftKerningGroup = A;
note = Acircumflexgrave;
rightKerningGroup = A;
unicode = 1EA6;
},
{
glyphname = Acircumflexhookabove;
lastChange = "2015-11-29 23:41:39 +0000";
layers = (
{
layerId = "FFDA6A0D-11B9-4032-BFBB-EDC4FF23EF93";
name = Light;
paths = (
{
closed = 1;
nodes = (
"109 0 LINE",
"189 201 LINE",
"526 201 LINE",
"606 0 LINE",
"660 0 LINE",
"381 699 LINE",
"334 699 LINE",
"55 0 LINE"
);
},
{
closed = 1;
nodes = (
"357 633 LINE",
"510 246 LINE",
"205 246 LINE"
);
},
{
closed = 1;
nodes = (
"264 744 LINE",
"359 835 LINE",
"454 744 LINE",
"507 744 LINE",
"377 868 LINE",
"340 868 LINE",
"210 744 LINE"
);
},
{
closed = 1;
nodes = (
"483 828 LINE",
"483 854 LINE",
"527 858 OFFCURVE",
"551 883 OFFCURVE",
"551 917 CURVE SMOOTH",
"551 955 OFFCURVE",
"526 981 OFFCURVE",
"474 981 CURVE SMOOTH",
"454 981 OFFCURVE",
"432 977 OFFCURVE",
"419 972 CURVE",
"419 942 LINE",
"430 947 OFFCURVE",
"450 950 OFFCURVE",
"466 950 CURVE SMOOTH",
"496 950 OFFCURVE",
"510 941 OFFCURVE",
"510 917 CURVE SMOOTH",
"510 889 OFFCURVE",
"491 878 OFFCURVE",
"447 878 CURVE",
"447 828 LINE"
);
}
);
width = 715;
}
);
leftKerningGroup = A;
note = Acircumflexhookabove;
rightKerningGroup = A;
unicode = 1EA8;
},
{
glyphname = Acircumflextilde;
lastChange = "2015-11-29 23:41:38 +0000";
layers = (
{
layerId = "FFDA6A0D-11B9-4032-BFBB-EDC4FF23EF93";
name = Light;
paths = (
{
closed = 1;
nodes = (
"109 0 LINE",
"189 201 LINE",
"526 201 LINE",
"606 0 LINE",
"660 0 LINE",
"381 699 LINE",
"334 699 LINE",
"55 0 LINE"
);
},
{
closed = 1;
nodes = (
"357 633 LINE",
"510 246 LINE",
"205 246 LINE"
);
},
{
closed = 1;
nodes = (
"260 744 LINE",
"355 835 LINE",
"450 744 LINE",
"503 744 LINE",
"373 868 LINE",
"336 868 LINE",
"206 744 LINE"
);
},
{
closed = 1;
nodes = (
"230 917 OFFCURVE",
"252 927 OFFCURVE",
"282 927 CURVE SMOOTH",
"331 927 OFFCURVE",
"376 882 OFFCURVE",
"433 882 CURVE SMOOTH",
"467 882 OFFCURVE",
"493 892 OFFCURVE",
"509 919 CURVE",
"509 964 LINE",
"487 929 OFFCURVE",
"463 919 OFFCURVE",
"433 919 CURVE SMOOTH",
"383 919 OFFCURVE",
"335 964 OFFCURVE",
"282 964 CURVE SMOOTH",
"248 964 OFFCURVE",
"223 954 OFFCURVE",
"206 927 CURVE",
"206 881 LINE"
);
}
);
width = 715;
}
);
leftKerningGroup = A;
note = Acircumflextilde;
rightKerningGroup = A;
unicode = 1EAA;
},
{
glyphname = Adieresis;
lastChange = "2015-11-29 23:41:39 +0000";
layers = (
{
layerId = "FFDA6A0D-11B9-4032-BFBB-EDC4FF23EF93";
name = Light;
paths = (
{
closed = 1;
nodes = (
"109 0 LINE",
"189 201 LINE",
"526 201 LINE",
"606 0 LINE",
"660 0 LINE",
"381 699 LINE",
"334 699 LINE",
"55 0 LINE"
);
},
{
closed = 1;
nodes = (
"357 633 LINE",
"510 246 LINE",
"205 246 LINE"
);
},
{
closed = 1;
nodes = (
"274 759 OFFCURVE",
"292 777 OFFCURVE",
"292 798 CURVE SMOOTH",
"292 819 OFFCURVE",
"274 836 OFFCURVE",
"254 836 CURVE SMOOTH",
"233 836 OFFCURVE",
"215 819 OFFCURVE",
"215 798 CURVE SMOOTH",
"215 777 OFFCURVE",
"233 759 OFFCURVE",
"254 759 CURVE SMOOTH"
);
},
{
closed = 1;
nodes = (
"482 759 OFFCURVE",
"500 777 OFFCURVE",
"500 798 CURVE SMOOTH",
"500 819 OFFCURVE",
"482 836 OFFCURVE",
"461 836 CURVE SMOOTH",
"440 836 OFFCURVE",
"422 819 OFFCURVE",
"422 798 CURVE SMOOTH",
"422 777 OFFCURVE",
"440 759 OFFCURVE",
"461 759 CURVE SMOOTH"
);
}
);
width = 715;
}
);
leftKerningGroup = A;
note = Adieresis;
rightKerningGroup = A;
unicode = 00C4;
},
{
glyphname = Adotbelow;
lastChange = "2015-11-29 23:41:39 +0000";
layers = (
{
layerId = "FFDA6A0D-11B9-4032-BFBB-EDC4FF23EF93";
name = Light;
paths = (
{
closed = 1;
nodes = (
"109 0 LINE",
"189 201 LINE",
"526 201 LINE",
"606 0 LINE",
"660 0 LINE",
"381 699 LINE",
"334 699 LINE",
"55 0 LINE"
);
},
{
closed = 1;
nodes = (
"378 -137 OFFCURVE",
"396 -119 OFFCURVE",
"396 -98 CURVE SMOOTH",
"396 -77 OFFCURVE",
"378 -60 OFFCURVE",
"358 -60 CURVE SMOOTH",
"337 -60 OFFCURVE",
"319 -77 OFFCURVE",
"319 -98 CURVE SMOOTH",
"319 -119 OFFCURVE",
"337 -137 OFFCURVE",
"358 -137 CURVE SMOOTH"
);
},
{
closed = 1;
nodes = (
"357 633 LINE",
"510 246 LINE",
"205 246 LINE"
);
}
);
width = 715;
}
);
leftKerningGroup = A;
note = Adotbelow;
rightKerningGroup = A;
unicode = 1EA0;
},
{
glyphname = Agrave;
lastChange = "2015-11-29 23:41:39 +0000";
layers = (
{
layerId = "FFDA6A0D-11B9-4032-BFBB-EDC4FF23EF93";
name = Light;
paths = (
{
closed = 1;
nodes = (
"109 0 LINE",
"189 201 LINE",
"526 201 LINE",
"606 0 LINE",
"660 0 LINE",
"381 699 LINE",
"334 699 LINE",
"55 0 LINE"
);
},
{
closed = 1;
nodes = (
"357 633 LINE",
"510 246 LINE",
"205 246 LINE"
);
},
{
closed = 1;
nodes = (
"379 754 LINE",
"310 923 LINE",
"255 923 LINE",
"334 754 LINE"
);
}
);
width = 715;
}
);
leftKerningGroup = A;
note = Agrave;
rightKerningGroup = A;
unicode = 00C0;
},
{
glyphname = Ahookabove;
lastChange = "2015-11-29 23:41:38 +0000";
layers = (
{
layerId = "FFDA6A0D-11B9-4032-BFBB-EDC4FF23EF93";
name = Light;
paths = (
{
closed = 1;
nodes = (
"109 0 LINE",
"189 201 LINE",
"526 201 LINE",
"606 0 LINE",
"660 0 LINE",
"381 699 LINE",
"334 699 LINE",
"55 0 LINE"
);
},
{
closed = 1;
nodes = (
"357 633 LINE",
"510 246 LINE",
"205 246 LINE"
);
},
{
closed = 1;
nodes = (
"380 743 LINE",
"380 782 LINE",
"443 787 OFFCURVE",
"475 824 OFFCURVE",
"475 873 CURVE SMOOTH",
"475 925 OFFCURVE",
"438 962 OFFCURVE",
"363 962 CURVE SMOOTH",
"339 962 OFFCURVE",
"311 958 OFFCURVE",
"297 953 CURVE",
"297 918 LINE",
"309 924 OFFCURVE",
"337 927 OFFCURVE",
"355 927 CURVE SMOOTH",
"402 927 OFFCURVE",
"428 910 OFFCURVE",
"428 871 CURVE SMOOTH",
"428 828 OFFCURVE",
"403 808 OFFCURVE",
"335 808 CURVE",
"335 743 LINE"
);
}
);
width = 715;
}
);
leftKerningGroup = A;
note = Ahookabove;
rightKerningGroup = A;
unicode = 1EA2;
},
{
glyphname = Amacron;
lastChange = "2015-11-29 23:41:38 +0000";
layers = (
{
layerId = "FFDA6A0D-11B9-4032-BFBB-EDC4FF23EF93";
name = Light;
paths = (
{
closed = 1;
nodes = (
"109 0 LINE",
"189 201 LINE",
"526 201 LINE",
"606 0 LINE",
"660 0 LINE",
"381 699 LINE",
"334 699 LINE",
"55 0 LINE"
);
},
{
closed = 1;
nodes = (
"357 633 LINE",
"510 246 LINE",
"205 246 LINE"
);
},
{
closed = 1;
nodes = (
"502 793 LINE",
"502 832 LINE",
"213 832 LINE",
"213 793 LINE"
);
}
);
width = 715;
}
);
leftKerningGroup = A;
note = Amacron;
rightKerningGroup = A;
unicode = 0100;
},
{
glyphname = Aogonek;
lastChange = "2015-11-29 23:41:38 +0000";
layers = (
{
layerId = "FFDA6A0D-11B9-4032-BFBB-EDC4FF23EF93";
name = Light;
paths = (
{
closed = 1;
nodes = (
"109 0 LINE",
"189 201 LINE",
"526 201 LINE",
"606 0 LINE",
"660 0 LINE",
"381 699 LINE",
"334 699 LINE",
"55 0 LINE"
);
},
{
closed = 1;
nodes = (
"641 -208 OFFCURVE",
"661 -205 OFFCURVE",
"674 -199 CURVE",
"674 -162 LINE",
"662 -167 OFFCURVE",
"646 -171 OFFCURVE",
"628 -171 CURVE SMOOTH",
"596 -171 OFFCURVE",
"576 -155 OFFCURVE",
"576 -119 CURVE SMOOTH",
"576 -73 OFFCURVE",
"606 -35 OFFCURVE",
"655 0 CURVE",
"605 0 LINE",
"563 -27 OFFCURVE",
"529 -72 OFFCURVE",
"529 -124 CURVE SMOOTH",
"529 -181 OFFCURVE",
"570 -208 OFFCURVE",
"618 -208 CURVE SMOOTH"
);
},
{
closed = 1;
nodes = (
"357 633 LINE",
"510 246 LINE",
"205 246 LINE"
);
}
);
width = 718;
}
);
leftKerningGroup = A;
note = Aogonek;
rightKerningGroup = A;
unicode = 0104;
},
{
glyphname = Aring;
lastChange = "2015-11-29 23:41:39 +0000";
layers = (
{
layerId = "FFDA6A0D-11B9-4032-BFBB-EDC4FF23EF93";
name = Light;
paths = (
{
closed = 1;
nodes = (
"109 0 LINE",
"189 201 LINE",
"526 201 LINE",
"606 0 LINE",
"660 0 LINE",
"381 699 LINE",
"334 699 LINE",
"55 0 LINE"
);
},
{
closed = 1;
nodes = (
"357 633 LINE",
"510 246 LINE",
"205 246 LINE"
);
},
{
closed = 1;
nodes = (
"411 664 OFFCURVE",
"456 709 OFFCURVE",
"456 764 CURVE SMOOTH",
"456 818 OFFCURVE",
"411 863 OFFCURVE",
"357 863 CURVE SMOOTH",
"302 863 OFFCURVE",
"257 818 OFFCURVE",
"257 764 CURVE SMOOTH",
"257 709 OFFCURVE",
"302 664 OFFCURVE",
"357 664 CURVE SMOOTH"
);
},
{
closed = 1;
nodes = (
"322 700 OFFCURVE",
"294 729 OFFCURVE",
"294 764 CURVE SMOOTH",
"294 798 OFFCURVE",
"321 827 OFFCURVE",
"357 827 CURVE SMOOTH",
"392 827 OFFCURVE",
"420 798 OFFCURVE",
"420 764 CURVE SMOOTH",
"420 729 OFFCURVE",
"392 700 OFFCURVE",
"357 700 CURVE SMOOTH"
);
}
);
width = 715;
}
);
leftKerningGroup = A;
note = Aring;
rightKerningGroup = A;
unicode = 00C5;
},
{
glyphname = Aringacute;
lastChange = "2015-11-29 23:41:37 +0000";
layers = (
{
layerId = "FFDA6A0D-11B9-4032-BFBB-EDC4FF23EF93";
name = Light;
paths = (
{
closed = 1;
nodes = (
"109 0 LINE",
"189 201 LINE",
"526 201 LINE",
"606 0 LINE",
"660 0 LINE",
"381 699 LINE",
"334 699 LINE",
"55 0 LINE"
);
},
{
closed = 1;
nodes = (
"357 633 LINE",
"510 246 LINE",
"205 246 LINE"
);
},
{
closed = 1;
nodes = (
"412 671 OFFCURVE",
"457 716 OFFCURVE",
"457 771 CURVE SMOOTH",
"457 825 OFFCURVE",
"412 870 OFFCURVE",
"358 870 CURVE SMOOTH",
"303 870 OFFCURVE",
"258 825 OFFCURVE",
"258 771 CURVE SMOOTH",
"258 716 OFFCURVE",
"303 671 OFFCURVE",
"358 671 CURVE SMOOTH"
);
},
{
closed = 1;
nodes = (
"323 707 OFFCURVE",
"295 736 OFFCURVE",
"295 771 CURVE SMOOTH",
"295 805 OFFCURVE",
"322 834 OFFCURVE",
"358 834 CURVE SMOOTH",
"393 834 OFFCURVE",
"421 805 OFFCURVE",
"421 771 CURVE SMOOTH",
"421 736 OFFCURVE",
"393 707 OFFCURVE",
"358 707 CURVE SMOOTH"
);
},
{
closed = 1;
nodes = (
"378 900 LINE",
"456 1035 LINE",
"402 1035 LINE",
"332 900 LINE"
);
}
);
width = 715;
}
);
leftKerningGroup = A;
note = Aringacute;
rightKerningGroup = A;
unicode = 01FA;
},
{
glyphname = Atilde;
lastChange = "2015-11-29 23:41:37 +0000";
layers = (
{
layerId = "FFDA6A0D-11B9-4032-BFBB-EDC4FF23EF93";
name = Light;
paths = (
{
closed = 1;
nodes = (
"109 0 LINE",
"189 201 LINE",
"526 201 LINE",
"606 0 LINE",
"660 0 LINE",
"381 699 LINE",
"334 699 LINE",
"55 0 LINE"
);
},
{
closed = 1;
nodes = (
"357 633 LINE",
"510 246 LINE",
"205 246 LINE"
);
},
{
closed = 1;
nodes = (
"205 806 OFFCURVE",
"235 817 OFFCURVE",
"269 817 CURVE SMOOTH",
"333 817 OFFCURVE",
"373 767 OFFCURVE",
"446 767 CURVE SMOOTH",
"485 767 OFFCURVE",
"518 778 OFFCURVE",
"539 811 CURVE",
"539 862 LINE",
"512 820 OFFCURVE",
"481 809 OFFCURVE",
"446 809 CURVE SMOOTH",
"381 809 OFFCURVE",
"337 859 OFFCURVE",
"269 859 CURVE SMOOTH",
"231 859 OFFCURVE",
"197 847 OFFCURVE",
"176 815 CURVE",
"176 764 LINE"
);
}
);
width = 715;
}
);
leftKerningGroup = A;
note = Atilde;
rightKerningGroup = A;
unicode = 00C3;
},
{
glyphname = AE;
lastChange = "2015-11-29 23:41:39 +0000";
layers = (
{
layerId = "FFDA6A0D-11B9-4032-BFBB-EDC4FF23EF93";
name = Light;
paths = (
{
closed = 1;
nodes = (
"109 0 LINE",
"215 201 LINE",
"472 201 LINE",
"472 0 LINE",
"863 0 LINE",
"863 45 LINE",
"525 45 LINE",
"525 327 LINE",
"769 327 LINE",
"769 372 LINE",
"525 372 LINE",
"525 654 LINE",
"863 654 LINE",
"863 699 LINE",
"423 699 LINE",
"55 0 LINE"
);
},
{
closed = 1;
nodes = (
"453 654 LINE",
"472 654 LINE",
"472 246 LINE",
"238 246 LINE"
);
}
);
width = 918;
}
);
leftKerningGroup = A;
note = AE;
rightKerningGroup = E;
unicode = 00C6;
},
{
glyphname = AEacute;
lastChange = "2015-11-29 23:41:38 +0000";
layers = (
{
layerId = "FFDA6A0D-11B9-4032-BFBB-EDC4FF23EF93";
name = Light;
paths = (
{
closed = 1;
nodes = (
"109 0 LINE",
"215 201 LINE",
"472 201 LINE",
"472 0 LINE",
"863 0 LINE",
"863 45 LINE",
"525 45 LINE",
"525 327 LINE",
"769 327 LINE",
"769 372 LINE",
"525 372 LINE",
"525 654 LINE",
"863 654 LINE",
"863 699 LINE",
"423 699 LINE",
"55 0 LINE"
);
},
{
closed = 1;
nodes = (
"453 654 LINE",
"472 654 LINE",
"472 246 LINE",
"238 246 LINE"
);
},
{
closed = 1;
nodes = (
"557 754 LINE",
"635 923 LINE",
"581 923 LINE",
"511 754 LINE"
);
}
);
width = 918;
}
);
leftKerningGroup = A;
note = AEacute;
rightKerningGroup = E;
unicode = 01FC;
},
{
glyphname = B;
lastChange = "2015-11-29 23:41:37 +0000";
layers = (
{
layerId = "FFDA6A0D-11B9-4032-BFBB-EDC4FF23EF93";
name = Light;
paths = (
{
closed = 1;
nodes = (
"391 0 LINE SMOOTH",
"495 0 OFFCURVE",
"578 70 OFFCURVE",
"578 189 CURVE SMOOTH",
"578 287 OFFCURVE",
"530 342 OFFCURVE",
"456 359 CURVE",
"510 382 OFFCURVE",
"553 437 OFFCURVE",
"553 516 CURVE SMOOTH",
"553 638 OFFCURVE",
"492 699 OFFCURVE",
"374 699 CURVE SMOOTH",
"75 699 LINE",
"75 0 LINE"
);
},
{
closed = 1;
nodes = (
"128 335 LINE",
"370 335 LINE SMOOTH",
"467 335 OFFCURVE",
"526 295 OFFCURVE",
"526 190 CURVE SMOOTH",
"526 83 OFFCURVE",
"465 45 OFFCURVE",
"383 45 CURVE SMOOTH",
"128 45 LINE"
);
},
{
closed = 1;
nodes = (
"128 654 LINE",
"369 654 LINE SMOOTH",
"452 654 OFFCURVE",
"501 620 OFFCURVE",
"501 515 CURVE SMOOTH",
"501 428 OFFCURVE",
"449 380 OFFCURVE",
"378 380 CURVE SMOOTH",
"128 380 LINE"
);
}
);
width = 633;
}
);
note = B;
unicode = 0042;
},
{
glyphname = C;
lastChange = "2015-11-29 23:41:33 +0000";
layers = (
{
layerId = "FFDA6A0D-11B9-4032-BFBB-EDC4FF23EF93";
name = Light;
paths = (
{
closed = 1;
nodes = (
"518 -15 OFFCURVE",
"603 8 OFFCURVE",
"667 68 CURVE",
"667 121 LINE",
"599 55 OFFCURVE",
"519 32 OFFCURVE",
"422 32 CURVE SMOOTH",
"246 32 OFFCURVE",
"107 153 OFFCURVE",
"107 349 CURVE SMOOTH",
"107 544 OFFCURVE",
"243 666 OFFCURVE",
"422 666 CURVE SMOOTH",
"513 666 OFFCURVE",
"595 640 OFFCURVE",
"658 582 CURVE",
"658 635 LINE",
"594 688 OFFCURVE",
"514 714 OFFCURVE",
"419 714 CURVE SMOOTH",
"210 714 OFFCURVE",
"55 569 OFFCURVE",
"55 349 CURVE SMOOTH",
"55 129 OFFCURVE",
"210 -15 OFFCURVE",
"419 -15 CURVE SMOOTH"
);
}
);
width = 722;
}
);
leftKerningGroup = C;
note = C;
rightKerningGroup = C;
unicode = 0043;
},
{
glyphname = Cacute;
lastChange = "2015-11-29 23:41:39 +0000";
layers = (
{
layerId = "FFDA6A0D-11B9-4032-BFBB-EDC4FF23EF93";
name = Light;
paths = (
{
closed = 1;
nodes = (
"518 -15 OFFCURVE",
"603 8 OFFCURVE",
"667 68 CURVE",
"667 121 LINE",
"599 55 OFFCURVE",
"519 32 OFFCURVE",
"422 32 CURVE SMOOTH",
"246 32 OFFCURVE",
"107 153 OFFCURVE",
"107 349 CURVE SMOOTH",
"107 544 OFFCURVE",
"243 666 OFFCURVE",
"422 666 CURVE SMOOTH",
"513 666 OFFCURVE",
"595 640 OFFCURVE",
"658 582 CURVE",
"658 635 LINE",
"594 688 OFFCURVE",
"514 714 OFFCURVE",
"419 714 CURVE SMOOTH",
"210 714 OFFCURVE",
"55 569 OFFCURVE",
"55 349 CURVE SMOOTH",
"55 129 OFFCURVE",
"210 -15 OFFCURVE",
"419 -15 CURVE SMOOTH"
);
},
{
closed = 1;
nodes = (
"423 766 LINE",
"501 935 LINE",
"447 935 LINE",
"377 766 LINE"
);
}
);
width = 722;
}
);
leftKerningGroup = C;
note = Cacute;
rightKerningGroup = C;
unicode = 0106;
},
{
glyphname = Ccaron;
lastChange = "2015-11-29 23:41:38 +0000";
layers = (
{
layerId = "FFDA6A0D-11B9-4032-BFBB-EDC4FF23EF93";
name = Light;
paths = (
{
closed = 1;
nodes = (
"518 -15 OFFCURVE",
"603 8 OFFCURVE",
"667 68 CURVE",
"667 121 LINE",
"599 55 OFFCURVE",
"519 32 OFFCURVE",
"422 32 CURVE SMOOTH",
"246 32 OFFCURVE",
"107 153 OFFCURVE",
"107 349 CURVE SMOOTH",
"107 544 OFFCURVE",
"243 666 OFFCURVE",
"422 666 CURVE SMOOTH",
"513 666 OFFCURVE",
"595 640 OFFCURVE",
"658 582 CURVE",
"658 635 LINE",
"594 688 OFFCURVE",
"514 714 OFFCURVE",
"419 714 CURVE SMOOTH",
"210 714 OFFCURVE",
"55 569 OFFCURVE",
"55 349 CURVE SMOOTH",
"55 129 OFFCURVE",
"210 -15 OFFCURVE",
"419 -15 CURVE SMOOTH"
);
},
{
closed = 1;
nodes = (
"439 769 LINE",
"571 925 LINE",
"517 925 LINE",
"417 804 LINE",
"317 925 LINE",
"262 925 LINE",
"394 769 LINE"
);
}
);
width = 722;
}
);
leftKerningGroup = C;
note = Ccaron;
rightKerningGroup = C;
unicode = 010C;
},
{
glyphname = Ccedilla;
lastChange = "2015-11-29 23:41:39 +0000";
layers = (
{
layerId = "FFDA6A0D-11B9-4032-BFBB-EDC4FF23EF93";
name = Light;
paths = (
{
closed = 1;
nodes = (
"518 -15 OFFCURVE",
"603 8 OFFCURVE",
"667 68 CURVE",
"667 121 LINE",
"599 55 OFFCURVE",
"519 32 OFFCURVE",
"422 32 CURVE SMOOTH",
"246 32 OFFCURVE",
"107 153 OFFCURVE",
"107 349 CURVE SMOOTH",
"107 544 OFFCURVE",
"243 666 OFFCURVE",
"422 666 CURVE SMOOTH",
"513 666 OFFCURVE",
"595 640 OFFCURVE",
"658 582 CURVE",
"658 635 LINE",
"594 688 OFFCURVE",
"514 714 OFFCURVE",
"419 714 CURVE SMOOTH",
"210 714 OFFCURVE",
"55 569 OFFCURVE",
"55 349 CURVE SMOOTH",
"55 129 OFFCURVE",
"210 -15 OFFCURVE",
"419 -15 CURVE SMOOTH"
);
},
{
closed = 1;
nodes = (
"483 -248 OFFCURVE",
"523 -209 OFFCURVE",
"523 -157 CURVE SMOOTH",
"523 -107 OFFCURVE",
"494 -73 OFFCURVE",
"428 -67 CURVE",
"455 0 LINE",
"405 0 LINE",
"370 -93 LINE",
"449 -93 OFFCURVE",
"474 -115 OFFCURVE",
"474 -156 CURVE SMOOTH",
"474 -196 OFFCURVE",
"447 -212 OFFCURVE",
"402 -212 CURVE SMOOTH",
"383 -212 OFFCURVE",
"358 -209 OFFCURVE",
"346 -203 CURVE",
"346 -239 LINE",
"359 -244 OFFCURVE",
"386 -248 OFFCURVE",
"410 -248 CURVE SMOOTH"
);
}
);
width = 722;
}
);
leftKerningGroup = C;
note = Ccedilla;
rightKerningGroup = C;
unicode = 00C7;
},
{
glyphname = Ccircumflex;
lastChange = "2015-11-29 23:41:38 +0000";
layers = (
{
layerId = "FFDA6A0D-11B9-4032-BFBB-EDC4FF23EF93";
name = Light;
paths = (
{
closed = 1;
nodes = (
"518 -15 OFFCURVE",
"603 8 OFFCURVE",
"667 68 CURVE",
"667 121 LINE",
"599 55 OFFCURVE",
"519 32 OFFCURVE",
"422 32 CURVE SMOOTH",
"246 32 OFFCURVE",
"107 153 OFFCURVE",
"107 349 CURVE SMOOTH",
"107 544 OFFCURVE",
"243 666 OFFCURVE",
"422 666 CURVE SMOOTH",
"513 666 OFFCURVE",
"595 640 OFFCURVE",
"658 582 CURVE",
"658 635 LINE",
"594 688 OFFCURVE",
"514 714 OFFCURVE",
"419 714 CURVE SMOOTH",
"210 714 OFFCURVE",
"55 569 OFFCURVE",
"55 349 CURVE SMOOTH",
"55 129 OFFCURVE",
"210 -15 OFFCURVE",
"419 -15 CURVE SMOOTH"
);
},
{
closed = 1;
nodes = (
"311 764 LINE",
"411 885 LINE",
"511 764 LINE",
"565 764 LINE",
"433 920 LINE",
"388 920 LINE",
"256 764 LINE"
);
}
);
width = 722;
}
);
leftKerningGroup = C;
note = Ccircumflex;
rightKerningGroup = C;
unicode = 0108;
},
{
glyphname = Cdotaccent;
lastChange = "2015-11-29 23:41:39 +0000";
layers = (
{
layerId = "FFDA6A0D-11B9-4032-BFBB-EDC4FF23EF93";
name = Light;
paths = (
{
closed = 1;
nodes = (
"518 -15 OFFCURVE",
"603 8 OFFCURVE",
"667 68 CURVE",
"667 121 LINE",
"599 55 OFFCURVE",
"519 32 OFFCURVE",
"422 32 CURVE SMOOTH",
"246 32 OFFCURVE",
"107 153 OFFCURVE",
"107 349 CURVE SMOOTH",
"107 544 OFFCURVE",
"243 666 OFFCURVE",
"422 666 CURVE SMOOTH",
"513 666 OFFCURVE",
"595 640 OFFCURVE",
"658 582 CURVE",
"658 635 LINE",
"594 688 OFFCURVE",
"514 714 OFFCURVE",
"419 714 CURVE SMOOTH",
"210 714 OFFCURVE",
"55 569 OFFCURVE",
"55 349 CURVE SMOOTH",
"55 129 OFFCURVE",
"210 -15 OFFCURVE",
"419 -15 CURVE SMOOTH"
);
},
{
closed = 1;
nodes = (
"438 771 OFFCURVE",
"456 789 OFFCURVE",
"456 810 CURVE SMOOTH",
"456 831 OFFCURVE",
"438 848 OFFCURVE",
"418 848 CURVE SMOOTH",
"397 848 OFFCURVE",
"379 831 OFFCURVE",
"379 810 CURVE SMOOTH",
"379 789 OFFCURVE",
"397 771 OFFCURVE",
"418 771 CURVE SMOOTH"
);
}
);
width = 722;
}
);
leftKerningGroup = C;
note = Cdotaccent;
rightKerningGroup = C;
unicode = 010A;
},
{
glyphname = D;
lastChange = "2015-11-29 23:41:39 +0000";
layers = (
{
layerId = "FFDA6A0D-11B9-4032-BFBB-EDC4FF23EF93";
name = Light;
paths = (
{
closed = 1;
nodes = (
"263 0 LINE SMOOTH",
"501 0 OFFCURVE",
"643 116 OFFCURVE",
"643 353 CURVE SMOOTH",
"643 566 OFFCURVE",
"508 699 OFFCURVE",
"282 699 CURVE SMOOTH",
"75 699 LINE",
"75 0 LINE"
);
},
{
closed = 1;
nodes = (
"128 654 LINE",
"278 654 LINE SMOOTH",
"483 654 OFFCURVE",
"591 540 OFFCURVE",
"591 353 CURVE SMOOTH",
"591 152 OFFCURVE",
"485 45 OFFCURVE",
"255 45 CURVE SMOOTH",
"128 45 LINE"
);
}
);
width = 698;
}
);
note = D;
rightKerningGroup = D;
unicode = 0044;
},
{
glyphname = Eth;
lastChange = "2015-11-29 23:41:39 +0000";
layers = (
{
layerId = "FFDA6A0D-11B9-4032-BFBB-EDC4FF23EF93";
name = Light;
paths = (
{
closed = 1;
nodes = (
"297 0 LINE SMOOTH",
"535 0 OFFCURVE",
"677 116 OFFCURVE",
"677 353 CURVE SMOOTH",
"677 566 OFFCURVE",
"542 699 OFFCURVE",
"317 699 CURVE SMOOTH",
"109 699 LINE",
"109 370 LINE",
"35 370 LINE",
"35 328 LINE",
"109 328 LINE",
"109 0 LINE"
);
},
{
closed = 1;
nodes = (
"162 328 LINE",
"374 328 LINE",
"374 370 LINE",
"162 370 LINE",
"162 651 LINE",
"312 651 LINE SMOOTH",
"512 651 OFFCURVE",
"625 540 OFFCURVE",
"625 353 CURVE SMOOTH",
"625 152 OFFCURVE",
"515 47 OFFCURVE",
"290 47 CURVE SMOOTH",
"162 47 LINE"
);
}
);
width = 722;
}
);
note = Eth;
rightKerningGroup = D;
unicode = 00D0;
},
{
glyphname = Dcaron;
lastChange = "2015-11-29 23:41:37 +0000";
layers = (
{
layerId = "FFDA6A0D-11B9-4032-BFBB-EDC4FF23EF93";
name = Light;
paths = (
{
closed = 1;
nodes = (
"263 0 LINE SMOOTH",
"501 0 OFFCURVE",
"643 116 OFFCURVE",
"643 353 CURVE SMOOTH",
"643 566 OFFCURVE",
"508 699 OFFCURVE",
"282 699 CURVE SMOOTH",
"75 699 LINE",
"75 0 LINE"
);
},
{
closed = 1;
nodes = (
"128 654 LINE",
"278 654 LINE SMOOTH",
"483 654 OFFCURVE",
"591 540 OFFCURVE",
"591 353 CURVE SMOOTH",
"591 152 OFFCURVE",
"485 45 OFFCURVE",
"255 45 CURVE SMOOTH",
"128 45 LINE"
);
},
{
closed = 1;
nodes = (
"317 769 LINE",
"449 925 LINE",
"395 925 LINE",
"295 804 LINE",
"195 925 LINE",
"140 925 LINE",
"272 769 LINE"
);
}
);
width = 698;
}
);
note = Dcaron;
rightKerningGroup = D;
unicode = 010E;
},
{
glyphname = Dcroat;
lastChange = "2015-11-29 23:41:39 +0000";
layers = (
{
layerId = "FFDA6A0D-11B9-4032-BFBB-EDC4FF23EF93";
name = Light;
paths = (
{
closed = 1;
nodes = (
"292 0 LINE SMOOTH",
"530 0 OFFCURVE",
"672 116 OFFCURVE",
"672 353 CURVE SMOOTH",
"672 566 OFFCURVE",
"537 699 OFFCURVE",
"312 699 CURVE SMOOTH",
"104 699 LINE",
"104 370 LINE",
"30 370 LINE",
"30 328 LINE",
"104 328 LINE",
"104 0 LINE"
);
},
{
closed = 1;
nodes = (
"157 328 LINE",
"369 328 LINE",
"369 370 LINE",
"157 370 LINE",
"157 651 LINE",
"307 651 LINE SMOOTH",
"507 651 OFFCURVE",
"620 540 OFFCURVE",
"620 353 CURVE SMOOTH",
"620 152 OFFCURVE",
"510 47 OFFCURVE",
"285 47 CURVE SMOOTH",
"157 47 LINE"
);
}
);
width = 727;
}
);
note = Dcroat;
rightKerningGroup = D;
unicode = 0110;
},
{
glyphname = Ddotbelow;
lastChange = "2015-11-29 23:41:37 +0000";
layers = (
{
layerId = "FFDA6A0D-11B9-4032-BFBB-EDC4FF23EF93";
name = Light;
paths = (
{
closed = 1;
nodes = (
"263 0 LINE SMOOTH",
"501 0 OFFCURVE",
"643 116 OFFCURVE",
"643 353 CURVE SMOOTH",
"643 566 OFFCURVE",
"508 699 OFFCURVE",
"282 699 CURVE SMOOTH",
"75 699 LINE",
"75 0 LINE"
);
},
{
closed = 1;
nodes = (
"294 -137 OFFCURVE",
"312 -119 OFFCURVE",
"312 -98 CURVE SMOOTH",
"312 -77 OFFCURVE",
"294 -60 OFFCURVE",
"274 -60 CURVE SMOOTH",
"253 -60 OFFCURVE",
"235 -77 OFFCURVE",
"235 -98 CURVE SMOOTH",
"235 -119 OFFCURVE",
"253 -137 OFFCURVE",
"274 -137 CURVE SMOOTH"
);
},
{
closed = 1;
nodes = (
"128 654 LINE",
"278 654 LINE SMOOTH",
"483 654 OFFCURVE",
"591 540 OFFCURVE",
"591 353 CURVE SMOOTH",
"591 152 OFFCURVE",
"485 45 OFFCURVE",
"255 45 CURVE SMOOTH",
"128 45 LINE"
);
}
);
width = 698;
}
);
note = Ddotbelow;
rightKerningGroup = D;
unicode = 1E0C;
},
{
glyphname = Dlinebelow;
lastChange = "2015-11-29 23:41:37 +0000";
layers = (
{
layerId = "FFDA6A0D-11B9-4032-BFBB-EDC4FF23EF93";
name = Light;
paths = (
{
closed = 1;
nodes = (
"263 0 LINE SMOOTH",
"501 0 OFFCURVE",
"643 116 OFFCURVE",
"643 353 CURVE SMOOTH",
"643 566 OFFCURVE",
"508 699 OFFCURVE",
"282 699 CURVE SMOOTH",
"75 699 LINE",
"75 0 LINE"
);
},
{
closed = 1;
nodes = (
"409 -121 LINE",
"409 -80 LINE",
"118 -80 LINE",
"118 -121 LINE"
);
},
{
closed = 1;
nodes = (
"128 654 LINE",
"278 654 LINE SMOOTH",
"483 654 OFFCURVE",
"591 540 OFFCURVE",
"591 353 CURVE SMOOTH",
"591 152 OFFCURVE",
"485 45 OFFCURVE",
"255 45 CURVE SMOOTH",
"128 45 LINE"
);
}
);
width = 698;
}
);
note = Dlinebelow;
rightKerningGroup = D;
unicode = 1E0E;
},
{
glyphname = E;
lastChange = "2015-11-29 23:41:34 +0000";
layers = (
{
layerId = "FFDA6A0D-11B9-4032-BFBB-EDC4FF23EF93";
name = Light;
paths = (
{
closed = 1;
nodes = (
"513 0 LINE",
"513 45 LINE",
"128 45 LINE",
"128 327 LINE",
"419 327 LINE",
"419 372 LINE",
"128 372 LINE",
"128 654 LINE",
"513 654 LINE",
"513 699 LINE",
"75 699 LINE",
"75 0 LINE"
);
}
);
width = 563;
}
);
leftKerningGroup = E;
note = E;
rightKerningGroup = E;
unicode = 0045;
},
{
glyphname = Eacute;
lastChange = "2015-11-29 23:41:39 +0000";
layers = (
{
layerId = "FFDA6A0D-11B9-4032-BFBB-EDC4FF23EF93";
name = Light;
paths = (
{
closed = 1;
nodes = (
"513 0 LINE",
"513 45 LINE",
"128 45 LINE",
"128 327 LINE",
"419 327 LINE",
"419 372 LINE",
"128 372 LINE",
"128 654 LINE",
"513 654 LINE",
"513 699 LINE",
"75 699 LINE",
"75 0 LINE"
);
},
{
closed = 1;
nodes = (
"290 766 LINE",
"368 935 LINE",
"314 935 LINE",
"244 766 LINE"
);
}
);
width = 563;
}
);
leftKerningGroup = E;
note = Eacute;
rightKerningGroup = E;
unicode = 00C9;
},
{
glyphname = Ebreve;
lastChange = "2015-11-29 23:41:39 +0000";
layers = (
{
layerId = "FFDA6A0D-11B9-4032-BFBB-EDC4FF23EF93";
name = Light;
paths = (
{
closed = 1;
nodes = (
"513 0 LINE",
"513 45 LINE",
"128 45 LINE",
"128 327 LINE",
"419 327 LINE",
"419 372 LINE",
"128 372 LINE",
"128 654 LINE",
"513 654 LINE",
"513 699 LINE",
"75 699 LINE",
"75 0 LINE"
);
},
{
closed = 1;
nodes = (
"366 755 OFFCURVE",
"417 807 OFFCURVE",
"417 874 CURVE",
"376 874 LINE",
"376 827 OFFCURVE",
"343 794 OFFCURVE",
"289 794 CURVE SMOOTH",
"235 794 OFFCURVE",
"202 827 OFFCURVE",
"202 874 CURVE",
"160 874 LINE",
"160 807 OFFCURVE",
"211 755 OFFCURVE",
"289 755 CURVE SMOOTH"
);
}
);
width = 568;
}
);
leftKerningGroup = E;
note = Ebreve;
rightKerningGroup = E;
unicode = 0114;
},
{
glyphname = Ecaron;
lastChange = "2015-11-29 23:41:39 +0000";
layers = (
{
layerId = "FFDA6A0D-11B9-4032-BFBB-EDC4FF23EF93";
name = Light;
paths = (
{
closed = 1;
nodes = (
"513 0 LINE",
"513 45 LINE",
"128 45 LINE",
"128 327 LINE",
"419 327 LINE",
"419 372 LINE",
"128 372 LINE",
"128 654 LINE",
"513 654 LINE",
"513 699 LINE",
"75 699 LINE",
"75 0 LINE"
);
},
{
closed = 1;
nodes = (
"305 769 LINE",
"437 925 LINE",
"383 925 LINE",
"283 804 LINE",
"183 925 LINE",
"128 925 LINE",
"260 769 LINE"
);
}
);
width = 568;
}
);
leftKerningGroup = E;
note = Ecaron;
rightKerningGroup = E;
unicode = 011A;
},
{
glyphname = Ecircumflex;
lastChange = "2015-11-29 23:41:39 +0000";
layers = (
{
layerId = "FFDA6A0D-11B9-4032-BFBB-EDC4FF23EF93";
name = Light;
paths = (
{
closed = 1;
nodes = (
"513 0 LINE",
"513 45 LINE",
"128 45 LINE",
"128 327 LINE",
"419 327 LINE",
"419 372 LINE",
"128 372 LINE",
"128 654 LINE",
"513 654 LINE",
"513 699 LINE",
"75 699 LINE",
"75 0 LINE"
);
},
{
closed = 1;
nodes = (
"191 758 LINE",
"291 879 LINE",
"391 758 LINE",
"445 758 LINE",
"313 914 LINE",
"268 914 LINE",
"136 758 LINE"
);
}
);
width = 568;
}
);
leftKerningGroup = E;
note = Ecircumflex;
rightKerningGroup = E;
unicode = 00CA;
},
{
glyphname = Ecircumflexacute;
lastChange = "2015-11-29 23:41:38 +0000";
layers = (
{
layerId = "FFDA6A0D-11B9-4032-BFBB-EDC4FF23EF93";
name = Light;
paths = (
{
closed = 1;
nodes = (
"513 0 LINE",
"513 45 LINE",
"128 45 LINE",
"128 327 LINE",
"419 327 LINE",
"419 372 LINE",
"128 372 LINE",
"128 654 LINE",
"513 654 LINE",
"513 699 LINE",
"75 699 LINE",
"75 0 LINE"
);
},
{
closed = 1;
nodes = (
"174 744 LINE",
"269 835 LINE",
"364 744 LINE",
"417 744 LINE",
"287 868 LINE",
"250 868 LINE",
"120 744 LINE"
);
},
{
closed = 1;
nodes = (
"391 837 LINE",
"467 951 LINE",
"421 951 LINE",
"353 837 LINE"
);
}
);
width = 568;
}
);
leftKerningGroup = E;
note = Ecircumflexacute;
rightKerningGroup = E;
unicode = 1EBE;
},
{
glyphname = Ecircumflexdotbelow;
lastChange = "2015-11-29 23:41:37 +0000";
layers = (
{
layerId = "FFDA6A0D-11B9-4032-BFBB-EDC4FF23EF93";
name = Light;
paths = (
{
closed = 1;
nodes = (
"513 0 LINE",
"513 45 LINE",
"128 45 LINE",
"128 327 LINE",
"419 327 LINE",
"419 372 LINE",
"128 372 LINE",
"128 654 LINE",
"513 654 LINE",
"513 699 LINE",
"75 699 LINE",
"75 0 LINE"
);
},
{
closed = 1;
nodes = (
"290 -137 OFFCURVE",
"308 -119 OFFCURVE",
"308 -98 CURVE SMOOTH",
"308 -77 OFFCURVE",
"290 -60 OFFCURVE",
"270 -60 CURVE SMOOTH",
"249 -60 OFFCURVE",
"231 -77 OFFCURVE",
"231 -98 CURVE SMOOTH",
"231 -119 OFFCURVE",
"249 -137 OFFCURVE",
"270 -137 CURVE SMOOTH"
);
},
{
closed = 1;
nodes = (
"170 775 LINE",
"270 896 LINE",
"370 775 LINE",
"424 775 LINE",
"292 931 LINE",
"247 931 LINE",
"115 775 LINE"
);
}
);
width = 568;
}
);
leftKerningGroup = E;
note = Ecircumflexdotbelow;
rightKerningGroup = E;
unicode = 1EC6;
},
{
glyphname = Ecircumflexgrave;
lastChange = "2015-11-29 23:41:39 +0000";
layers = (
{
layerId = "FFDA6A0D-11B9-4032-BFBB-EDC4FF23EF93";
name = Light;
paths = (
{
closed = 1;
nodes = (
"532 0 LINE",
"532 45 LINE",
"147 45 LINE",
"147 327 LINE",
"438 327 LINE",
"438 372 LINE",
"147 372 LINE",
"147 654 LINE",
"532 654 LINE",
"532 699 LINE",
"94 699 LINE",
"94 0 LINE"
);
},
{
closed = 1;
nodes = (
"215 837 LINE",
"147 951 LINE",
"101 951 LINE",
"177 837 LINE"
);
},
{
closed = 1;
nodes = (
"204 744 LINE",
"299 835 LINE",
"394 744 LINE",
"448 744 LINE",
"318 868 LINE",
"281 868 LINE",
"151 744 LINE"
);
}
);
width = 588;
}
);
leftKerningGroup = E;
note = Ecircumflexgrave;
rightKerningGroup = E;
unicode = 1EC0;
},
{
glyphname = Ecircumflexhookabove;
lastChange = "2015-11-29 23:41:39 +0000";
layers = (
{
layerId = "FFDA6A0D-11B9-4032-BFBB-EDC4FF23EF93";
name = Light;
paths = (
{
closed = 1;
nodes = (
"513 0 LINE",
"513 45 LINE",
"128 45 LINE",
"128 327 LINE",
"419 327 LINE",
"419 372 LINE",
"128 372 LINE",
"128 654 LINE",
"513 654 LINE",
"513 699 LINE",
"75 699 LINE",
"75 0 LINE"
);
},
{
closed = 1;
nodes = (
"204 744 LINE",
"299 835 LINE",
"394 744 LINE",
"447 744 LINE",
"317 868 LINE",
"280 868 LINE",
"150 744 LINE"
);
},
{
closed = 1;
nodes = (
"423 828 LINE",
"423 854 LINE",
"467 858 OFFCURVE",
"491 883 OFFCURVE",
"491 917 CURVE SMOOTH",
"491 955 OFFCURVE",
"466 981 OFFCURVE",
"414 981 CURVE SMOOTH",
"394 981 OFFCURVE",
"372 977 OFFCURVE",
"359 972 CURVE",
"359 942 LINE",
"370 947 OFFCURVE",
"390 950 OFFCURVE",
"406 950 CURVE SMOOTH",
"436 950 OFFCURVE",
"450 941 OFFCURVE",
"450 917 CURVE SMOOTH",
"450 889 OFFCURVE",
"431 878 OFFCURVE",
"387 878 CURVE",
"387 828 LINE"
);
}
);
width = 569;
}
);
leftKerningGroup = E;
note = Ecircumflexhookabove;
rightKerningGroup = E;
unicode = 1EC2;
},
{
glyphname = Ecircumflextilde;
lastChange = "2015-11-29 23:41:37 +0000";
layers = (
{
layerId = "FFDA6A0D-11B9-4032-BFBB-EDC4FF23EF93";
name = Light;
paths = (
{
closed = 1;
nodes = (
"513 0 LINE",
"513 45 LINE",
"128 45 LINE",
"128 327 LINE",
"419 327 LINE",
"419 372 LINE",
"128 372 LINE",
"128 654 LINE",
"513 654 LINE",
"513 699 LINE",
"75 699 LINE",
"75 0 LINE"
);
},
{
closed = 1;
nodes = (
"206 744 LINE",
"301 835 LINE",
"396 744 LINE",
"449 744 LINE",
"319 868 LINE",
"282 868 LINE",
"152 744 LINE"
);
},
{
closed = 1;
nodes = (
"176 917 OFFCURVE",
"198 927 OFFCURVE",
"228 927 CURVE SMOOTH",
"277 927 OFFCURVE",
"322 882 OFFCURVE",
"379 882 CURVE SMOOTH",
"413 882 OFFCURVE",
"439 892 OFFCURVE",
"455 919 CURVE",
"455 964 LINE",
"433 929 OFFCURVE",
"409 919 OFFCURVE",
"379 919 CURVE SMOOTH",
"329 919 OFFCURVE",
"281 964 OFFCURVE",
"228 964 CURVE SMOOTH",
"194 964 OFFCURVE",
"169 954 OFFCURVE",
"152 927 CURVE",
"152 881 LINE"
);
}
);
width = 568;
}
);
leftKerningGroup = E;
note = Ecircumflextilde;
rightKerningGroup = E;
unicode = 1EC4;
},
{
glyphname = Edieresis;
lastChange = "2015-11-29 23:41:38 +0000";
layers = (
{
layerId = "FFDA6A0D-11B9-4032-BFBB-EDC4FF23EF93";
name = Light;
paths = (
{
closed = 1;
nodes = (
"513 0 LINE",
"513 45 LINE",
"128 45 LINE",
"128 327 LINE",
"419 327 LINE",
"419 372 LINE",
"128 372 LINE",
"128 654 LINE",
"513 654 LINE",
"513 699 LINE",
"75 699 LINE",
"75 0 LINE"
);
},
{
closed = 1;
nodes = (
"204 770 OFFCURVE",
"222 788 OFFCURVE",
"222 809 CURVE SMOOTH",
"222 830 OFFCURVE",
"204 847 OFFCURVE",
"184 847 CURVE SMOOTH",
"163 847 OFFCURVE",
"145 830 OFFCURVE",
"145 809 CURVE SMOOTH",
"145 788 OFFCURVE",
"163 770 OFFCURVE",
"184 770 CURVE SMOOTH"
);
},
{
closed = 1;
nodes = (
"412 770 OFFCURVE",
"430 788 OFFCURVE",
"430 809 CURVE SMOOTH",
"430 830 OFFCURVE",
"412 847 OFFCURVE",
"391 847 CURVE SMOOTH",
"370 847 OFFCURVE",
"352 830 OFFCURVE",
"352 809 CURVE SMOOTH",
"352 788 OFFCURVE",
"370 770 OFFCURVE",
"391 770 CURVE SMOOTH"
);
}
);
width = 568;
}
);
leftKerningGroup = E;
note = Edieresis;
rightKerningGroup = E;
unicode = 00CB;
},
{
glyphname = Edotaccent;
lastChange = "2015-11-29 23:41:39 +0000";
layers = (
{
layerId = "FFDA6A0D-11B9-4032-BFBB-EDC4FF23EF93";
name = Light;
paths = (
{
closed = 1;
nodes = (
"513 0 LINE",
"513 45 LINE",
"128 45 LINE",
"128 327 LINE",
"419 327 LINE",
"419 372 LINE",
"128 372 LINE",
"128 654 LINE",
"513 654 LINE",
"513 699 LINE",
"75 699 LINE",
"75 0 LINE"
);
},
{
closed = 1;
nodes = (
"301 770 OFFCURVE",
"319 788 OFFCURVE",
"319 809 CURVE SMOOTH",
"319 830 OFFCURVE",
"301 847 OFFCURVE",
"281 847 CURVE SMOOTH",
"260 847 OFFCURVE",
"242 830 OFFCURVE",
"242 809 CURVE SMOOTH",
"242 788 OFFCURVE",
"260 770 OFFCURVE",
"281 770 CURVE SMOOTH"
);
}
);
width = 568;
}
);
leftKerningGroup = E;
note = Edotaccent;
rightKerningGroup = E;
unicode = 0116;
},
{
glyphname = Edotbelow;
lastChange = "2015-11-29 23:41:38 +0000";
layers = (
{
layerId = "FFDA6A0D-11B9-4032-BFBB-EDC4FF23EF93";
name = Light;
paths = (
{
closed = 1;
nodes = (
"513 0 LINE",
"513 45 LINE",
"128 45 LINE",
"128 327 LINE",
"419 327 LINE",
"419 372 LINE",
"128 372 LINE",
"128 654 LINE",
"513 654 LINE",
"513 699 LINE",
"75 699 LINE",
"75 0 LINE"
);
},
{
closed = 1;
nodes = (
"292 -137 OFFCURVE",
"310 -119 OFFCURVE",
"310 -98 CURVE SMOOTH",
"310 -77 OFFCURVE",
"292 -60 OFFCURVE",
"272 -60 CURVE SMOOTH",
"251 -60 OFFCURVE",
"233 -77 OFFCURVE",
"233 -98 CURVE SMOOTH",
"233 -119 OFFCURVE",
"251 -137 OFFCURVE",
"272 -137 CURVE SMOOTH"
);
}
);
width = 568;
}
);
leftKerningGroup = E;
note = Edotbelow;
rightKerningGroup = E;
unicode = 1EB8;
},
{
glyphname = Egrave;
lastChange = "2015-11-29 23:41:39 +0000";
layers = (
{
layerId = "FFDA6A0D-11B9-4032-BFBB-EDC4FF23EF93";
name = Light;
paths = (
{
closed = 1;
nodes = (
"513 0 LINE",
"513 45 LINE",
"128 45 LINE",
"128 327 LINE",
"419 327 LINE",
"419 372 LINE",
"128 372 LINE",
"128 654 LINE",
"513 654 LINE",
"513 699 LINE",
"75 699 LINE",
"75 0 LINE"
);
},
{
closed = 1;
nodes = (
"323 766 LINE",
"254 935 LINE",
"199 935 LINE",
"278 766 LINE"
);
}
);
width = 568;
}
);
leftKerningGroup = E;
note = Egrave;
rightKerningGroup = E;
unicode = 00C8;
},
{
glyphname = Ehookabove;
lastChange = "2015-11-29 23:41:37 +0000";
layers = (
{
layerId = "FFDA6A0D-11B9-4032-BFBB-EDC4FF23EF93";
name = Light;
paths = (
{
closed = 1;
nodes = (
"513 0 LINE",
"513 45 LINE",
"128 45 LINE",
"128 327 LINE",
"419 327 LINE",
"419 372 LINE",
"128 372 LINE",
"128 654 LINE",
"513 654 LINE",
"513 699 LINE",
"75 699 LINE",
"75 0 LINE"
);
},
{
closed = 1;
nodes = (
"293 743 LINE",
"293 782 LINE",
"356 787 OFFCURVE",
"388 824 OFFCURVE",
"388 873 CURVE SMOOTH",
"388 925 OFFCURVE",
"351 962 OFFCURVE",
"276 962 CURVE SMOOTH",
"252 962 OFFCURVE",
"224 958 OFFCURVE",
"210 953 CURVE",
"210 918 LINE",
"222 924 OFFCURVE",
"250 927 OFFCURVE",
"268 927 CURVE SMOOTH",
"315 927 OFFCURVE",
"341 910 OFFCURVE",
"341 871 CURVE SMOOTH",
"341 828 OFFCURVE",
"316 808 OFFCURVE",
"248 808 CURVE",
"248 743 LINE"
);
}
);
width = 568;
}
);
leftKerningGroup = E;
note = Ehookabove;
rightKerningGroup = E;
unicode = 1EBA;
},
{
glyphname = Emacron;
lastChange = "2015-11-29 23:41:39 +0000";
layers = (
{
layerId = "FFDA6A0D-11B9-4032-BFBB-EDC4FF23EF93";
name = Light;
paths = (
{
closed = 1;
nodes = (
"513 0 LINE",
"513 45 LINE",
"128 45 LINE",
"128 327 LINE",
"419 327 LINE",
"419 372 LINE",
"128 372 LINE",
"128 654 LINE",
"513 654 LINE",
"513 699 LINE",
"75 699 LINE",
"75 0 LINE"
);
},
{
closed = 1;
nodes = (
"436 793 LINE",
"436 832 LINE",
"147 832 LINE",
"147 793 LINE"
);
}
);
width = 568;
}
);
leftKerningGroup = E;
note = Emacron;
rightKerningGroup = E;
unicode = 0112;
},
{
glyphname = Eogonek;
lastChange = "2015-11-29 23:41:39 +0000";
layers = (
{
layerId = "FFDA6A0D-11B9-4032-BFBB-EDC4FF23EF93";
name = Light;
paths = (
{
closed = 1;
nodes = (
"513 0 LINE",
"513 45 LINE",
"128 45 LINE",
"128 327 LINE",
"419 327 LINE",
"419 372 LINE",
"128 372 LINE",
"128 654 LINE",
"513 654 LINE",
"513 699 LINE",
"75 699 LINE",
"75 0 LINE"
);
},
{
closed = 1;
nodes = (
"463 -208 OFFCURVE",
"483 -205 OFFCURVE",
"496 -199 CURVE",
"496 -162 LINE",
"484 -167 OFFCURVE",
"468 -171 OFFCURVE",
"450 -171 CURVE SMOOTH",
"418 -171 OFFCURVE",
"398 -155 OFFCURVE",
"398 -119 CURVE SMOOTH",
"398 -73 OFFCURVE",
"428 -35 OFFCURVE",
"477 0 CURVE",
"427 0 LINE",
"385 -27 OFFCURVE",
"351 -72 OFFCURVE",
"351 -124 CURVE SMOOTH",
"351 -181 OFFCURVE",
"392 -208 OFFCURVE",
"440 -208 CURVE SMOOTH"
);
}
);
width = 568;
}
);
leftKerningGroup = E;
note = Eogonek;
rightKerningGroup = E;
unicode = 0118;
},
{
glyphname = Etilde;
lastChange = "2015-11-29 23:41:38 +0000";
layers = (
{
layerId = "FFDA6A0D-11B9-4032-BFBB-EDC4FF23EF93";
name = Light;
paths = (
{
closed = 1;
nodes = (
"513 0 LINE",
"513 45 LINE",
"128 45 LINE",
"128 327 LINE",
"419 327 LINE",
"419 372 LINE",
"128 372 LINE",
"128 654 LINE",
"513 654 LINE",
"513 699 LINE",
"75 699 LINE",
"75 0 LINE"
);
},
{
closed = 1;
nodes = (
"125 826 OFFCURVE",
"155 837 OFFCURVE",
"189 837 CURVE SMOOTH",
"253 837 OFFCURVE",
"293 787 OFFCURVE",
"366 787 CURVE SMOOTH",
"405 787 OFFCURVE",
"438 798 OFFCURVE",
"459 831 CURVE",
"459 882 LINE",
"432 840 OFFCURVE",
"401 829 OFFCURVE",
"366 829 CURVE SMOOTH",
"301 829 OFFCURVE",
"257 879 OFFCURVE",
"189 879 CURVE SMOOTH",
"151 879 OFFCURVE",
"117 867 OFFCURVE",
"96 835 CURVE",
"96 784 LINE"
);
}
);
width = 568;
}
);
leftKerningGroup = E;
note = Etilde;
rightKerningGroup = E;
unicode = 1EBC;
},
{
glyphname = F;
lastChange = "2015-11-29 23:41:34 +0000";
layers = (
{
layerId = "FFDA6A0D-11B9-4032-BFBB-EDC4FF23EF93";
name = Light;
paths = (
{
closed = 1;
nodes = (
"128 0 LINE",
"128 327 LINE",
"419 327 LINE",
"419 372 LINE",
"128 372 LINE",
"128 654 LINE",
"513 654 LINE",
"513 699 LINE",
"75 699 LINE",
"75 0 LINE"
);
}
);
width = 548;
}
);
note = F;
unicode = 0046;
},
{
glyphname = G;
lastChange = "2015-11-29 23:41:34 +0000";
layers = (
{
layerId = "FFDA6A0D-11B9-4032-BFBB-EDC4FF23EF93";
name = Light;
paths = (
{
closed = 1;
nodes = (
"520 -15 OFFCURVE",
"605 8 OFFCURVE",
"669 68 CURVE",
"669 370 LINE",
"454 370 LINE",
"454 325 LINE",
"616 325 LINE",
"616 90 LINE",
"560 48 OFFCURVE",
"501 32 OFFCURVE",
"421 32 CURVE SMOOTH",
"245 32 OFFCURVE",
"107 153 OFFCURVE",
"107 349 CURVE SMOOTH",
"107 544 OFFCURVE",
"243 666 OFFCURVE",
"422 666 CURVE SMOOTH",
"513 666 OFFCURVE",
"595 642 OFFCURVE",
"657 583 CURVE",
"657 636 LINE",
"594 689 OFFCURVE",
"514 714 OFFCURVE",
"419 714 CURVE SMOOTH",
"210 714 OFFCURVE",
"55 569 OFFCURVE",
"55 349 CURVE SMOOTH",
"55 129 OFFCURVE",
"210 -15 OFFCURVE",
"419 -15 CURVE SMOOTH"
);
}
);
width = 724;
}
);
leftKerningGroup = C;
note = G;
unicode = 0047;
},
{
glyphname = Gbreve;
lastChange = "2015-11-29 23:41:37 +0000";
layers = (
{
layerId = "FFDA6A0D-11B9-4032-BFBB-EDC4FF23EF93";
name = Light;
paths = (
{
closed = 1;
nodes = (
"520 -15 OFFCURVE",
"605 8 OFFCURVE",
"669 68 CURVE",
"669 370 LINE",
"454 370 LINE",
"454 325 LINE",
"616 325 LINE",
"616 90 LINE",
"560 48 OFFCURVE",
"501 32 OFFCURVE",
"421 32 CURVE SMOOTH",
"245 32 OFFCURVE",
"107 153 OFFCURVE",
"107 349 CURVE SMOOTH",
"107 544 OFFCURVE",
"243 666 OFFCURVE",
"422 666 CURVE SMOOTH",
"513 666 OFFCURVE",
"595 642 OFFCURVE",
"657 583 CURVE",
"657 636 LINE",
"594 689 OFFCURVE",
"514 714 OFFCURVE",
"419 714 CURVE SMOOTH",
"210 714 OFFCURVE",
"55 569 OFFCURVE",
"55 349 CURVE SMOOTH",
"55 129 OFFCURVE",
"210 -15 OFFCURVE",
"419 -15 CURVE SMOOTH"
);
},
{
closed = 1;
nodes = (
"490 743 OFFCURVE",
"541 795 OFFCURVE",
"541 862 CURVE",
"500 862 LINE",
"500 815 OFFCURVE",
"467 782 OFFCURVE",
"413 782 CURVE SMOOTH",
"359 782 OFFCURVE",
"326 815 OFFCURVE",
"326 862 CURVE",
"284 862 LINE",
"284 795 OFFCURVE",
"335 743 OFFCURVE",
"413 743 CURVE SMOOTH"
);
}
);
width = 724;
}
);
leftKerningGroup = C;
note = Gbreve;
unicode = 011E;
},
{
glyphname = Gcaron;
lastChange = "2015-11-29 23:41:38 +0000";
layers = (
{
layerId = "FFDA6A0D-11B9-4032-BFBB-EDC4FF23EF93";
name = Light;
paths = (
{
closed = 1;
nodes = (
"520 -15 OFFCURVE",
"605 8 OFFCURVE",
"669 68 CURVE",
"669 370 LINE",
"454 370 LINE",
"454 325 LINE",
"616 325 LINE",
"616 90 LINE",
"560 48 OFFCURVE",
"501 32 OFFCURVE",
"421 32 CURVE SMOOTH",
"245 32 OFFCURVE",
"107 153 OFFCURVE",
"107 349 CURVE SMOOTH",
"107 544 OFFCURVE",
"243 666 OFFCURVE",
"422 666 CURVE SMOOTH",
"513 666 OFFCURVE",
"595 642 OFFCURVE",
"657 583 CURVE",
"657 636 LINE",
"594 689 OFFCURVE",
"514 714 OFFCURVE",
"419 714 CURVE SMOOTH",
"210 714 OFFCURVE",
"55 569 OFFCURVE",
"55 349 CURVE SMOOTH",
"55 129 OFFCURVE",
"210 -15 OFFCURVE",
"419 -15 CURVE SMOOTH"
);
},
{
closed = 1;
nodes = (
"428 763 LINE",
"560 919 LINE",
"506 919 LINE",
"406 798 LINE",
"306 919 LINE",
"251 919 LINE",
"383 763 LINE"
);
}
);
width = 724;
}
);
leftKerningGroup = C;
note = Gcaron;
unicode = 01E6;
},
{
glyphname = Gcircumflex;
lastChange = "2015-11-29 23:41:39 +0000";
layers = (
{
layerId = "FFDA6A0D-11B9-4032-BFBB-EDC4FF23EF93";
name = Light;
paths = (
{
closed = 1;
nodes = (
"520 -15 OFFCURVE",
"605 8 OFFCURVE",
"669 68 CURVE",
"669 370 LINE",
"454 370 LINE",
"454 325 LINE",
"616 325 LINE",
"616 90 LINE",
"560 48 OFFCURVE",
"501 32 OFFCURVE",
"421 32 CURVE SMOOTH",
"245 32 OFFCURVE",
"107 153 OFFCURVE",
"107 349 CURVE SMOOTH",
"107 544 OFFCURVE",
"243 666 OFFCURVE",
"422 666 CURVE SMOOTH",
"513 666 OFFCURVE",
"595 642 OFFCURVE",
"657 583 CURVE",
"657 636 LINE",
"594 689 OFFCURVE",
"514 714 OFFCURVE",
"419 714 CURVE SMOOTH",
"210 714 OFFCURVE",
"55 569 OFFCURVE",
"55 349 CURVE SMOOTH",
"55 129 OFFCURVE",
"210 -15 OFFCURVE",
"419 -15 CURVE SMOOTH"
);
},
{
closed = 1;
nodes = (
"313 758 LINE",
"413 879 LINE",
"513 758 LINE",
"567 758 LINE",
"435 914 LINE",
"390 914 LINE",
"258 758 LINE"
);
}
);
width = 724;
}
);
leftKerningGroup = C;
note = Gcircumflex;
unicode = 011C;
},
{
glyphname = Gcommaaccent;
lastChange = "2015-11-29 23:41:37 +0000";
layers = (
{
layerId = "FFDA6A0D-11B9-4032-BFBB-EDC4FF23EF93";
name = Light;
paths = (
{
closed = 1;
nodes = (
"520 -15 OFFCURVE",
"605 8 OFFCURVE",
"669 68 CURVE",
"669 370 LINE",
"454 370 LINE",
"454 325 LINE",
"616 325 LINE",
"616 90 LINE",
"560 48 OFFCURVE",
"501 32 OFFCURVE",
"421 32 CURVE SMOOTH",
"245 32 OFFCURVE",
"107 153 OFFCURVE",
"107 349 CURVE SMOOTH",
"107 544 OFFCURVE",
"243 666 OFFCURVE",
"422 666 CURVE SMOOTH",
"513 666 OFFCURVE",
"595 642 OFFCURVE",
"657 583 CURVE",
"657 636 LINE",
"594 689 OFFCURVE",
"514 714 OFFCURVE",
"419 714 CURVE SMOOTH",
"210 714 OFFCURVE",
"55 569 OFFCURVE",
"55 349 CURVE SMOOTH",
"55 129 OFFCURVE",
"210 -15 OFFCURVE",
"419 -15 CURVE SMOOTH"
);
},
{
closed = 1;
nodes = (
"357 -260 LINE",
"445 -67 LINE",
"389 -67 LINE",
"310 -260 LINE"
);
}
);
width = 724;
}
);
leftKerningGroup = C;
note = Gcommaaccent;
unicode = 0122;
},
{
glyphname = Gdotaccent;
lastChange = "2015-11-29 23:41:38 +0000";
layers = (
{
layerId = "FFDA6A0D-11B9-4032-BFBB-EDC4FF23EF93";
name = Light;
paths = (
{
closed = 1;
nodes = (
"520 -15 OFFCURVE",
"605 8 OFFCURVE",
"669 68 CURVE",
"669 370 LINE",
"454 370 LINE",
"454 325 LINE",
"616 325 LINE",
"616 90 LINE",
"560 48 OFFCURVE",
"501 32 OFFCURVE",
"421 32 CURVE SMOOTH",
"245 32 OFFCURVE",
"107 153 OFFCURVE",
"107 349 CURVE SMOOTH",
"107 544 OFFCURVE",
"243 666 OFFCURVE",
"422 666 CURVE SMOOTH",
"513 666 OFFCURVE",
"595 642 OFFCURVE",
"657 583 CURVE",
"657 636 LINE",
"594 689 OFFCURVE",
"514 714 OFFCURVE",
"419 714 CURVE SMOOTH",
"210 714 OFFCURVE",
"55 569 OFFCURVE",
"55 349 CURVE SMOOTH",
"55 129 OFFCURVE",
"210 -15 OFFCURVE",
"419 -15 CURVE SMOOTH"
);
},
{
closed = 1;
nodes = (
"435 752 OFFCURVE",
"453 770 OFFCURVE",
"453 791 CURVE SMOOTH",
"453 812 OFFCURVE",
"435 829 OFFCURVE",
"415 829 CURVE SMOOTH",
"394 829 OFFCURVE",
"376 812 OFFCURVE",
"376 791 CURVE SMOOTH",
"376 770 OFFCURVE",
"394 752 OFFCURVE",
"415 752 CURVE SMOOTH"
);
}
);
width = 724;
}
);
leftKerningGroup = C;
note = Gdotaccent;
unicode = 0120;
},
{
glyphname = Gmacron;
lastChange = "2015-11-29 23:41:39 +0000";
layers = (
{
layerId = "FFDA6A0D-11B9-4032-BFBB-EDC4FF23EF93";
name = Light;
paths = (
{
closed = 1;
nodes = (
"520 -15 OFFCURVE",
"605 8 OFFCURVE",
"669 68 CURVE",
"669 370 LINE",
"454 370 LINE",
"454 325 LINE",
"616 325 LINE",
"616 90 LINE",
"560 48 OFFCURVE",
"501 32 OFFCURVE",
"421 32 CURVE SMOOTH",
"245 32 OFFCURVE",
"107 153 OFFCURVE",
"107 349 CURVE SMOOTH",
"107 544 OFFCURVE",
"243 666 OFFCURVE",
"422 666 CURVE SMOOTH",
"513 666 OFFCURVE",
"595 642 OFFCURVE",
"657 583 CURVE",
"657 636 LINE",
"594 689 OFFCURVE",
"514 714 OFFCURVE",
"419 714 CURVE SMOOTH",
"210 714 OFFCURVE",
"55 569 OFFCURVE",
"55 349 CURVE SMOOTH",
"55 129 OFFCURVE",
"210 -15 OFFCURVE",
"419 -15 CURVE SMOOTH"
);
},
{
closed = 1;
nodes = (
"551 787 LINE",
"551 826 LINE",
"262 826 LINE",
"262 787 LINE"
);
}
);
width = 724;
}
);
leftKerningGroup = C;
note = Gmacron;
unicode = 1E20;
},
{
glyphname = H;
lastChange = "2015-11-29 23:41:34 +0000";
layers = (
{
layerId = "FFDA6A0D-11B9-4032-BFBB-EDC4FF23EF93";
name = Light;
paths = (
{
closed = 1;
nodes = (
"128 0 LINE",
"128 334 LINE",
"553 334 LINE",
"553 0 LINE",
"606 0 LINE",
"606 699 LINE",
"553 699 LINE",
"553 379 LINE",
"128 379 LINE",
"128 699 LINE",
"75 699 LINE",
"75 0 LINE"
);
}
);
width = 681;
}
);
note = H;
unicode = 0048;
},
{
glyphname = Hbar;
lastChange = "2015-11-29 23:41:37 +0000";
layers = (
{
layerId = "FFDA6A0D-11B9-4032-BFBB-EDC4FF23EF93";
name = Light;
paths = (
{
closed = 1;
nodes = (
"136 0 LINE",
"136 333 LINE",
"561 333 LINE",
"561 0 LINE",
"614 0 LINE",
"614 515 LINE",
"674 515 LINE",
"674 558 LINE",
"614 558 LINE",
"614 699 LINE",
"561 699 LINE",
"561 558 LINE",
"136 558 LINE",
"136 699 LINE",
"83 699 LINE",
"83 558 LINE",
"35 558 LINE",
"35 515 LINE",
"83 515 LINE",
"83 0 LINE"
);
},
{
closed = 1;
nodes = (
"136 515 LINE",
"561 515 LINE",
"561 380 LINE",
"136 380 LINE"
);
}
);
width = 709;
}
);
note = Hbar;
unicode = 0126;
},
{
glyphname = Hbrevebelow;
lastChange = "2015-11-29 23:41:37 +0000";
layers = (
{
layerId = "FFDA6A0D-11B9-4032-BFBB-EDC4FF23EF93";
name = Light;
paths = (
{
closed = 1;
nodes = (
"128 0 LINE",
"128 334 LINE",
"553 334 LINE",
"553 0 LINE",
"606 0 LINE",
"606 699 LINE",
"553 699 LINE",
"553 379 LINE",
"128 379 LINE",
"128 699 LINE",
"75 699 LINE",
"75 0 LINE"
);
},
{
closed = 1;
nodes = (
"418 -184 OFFCURVE",
"469 -133 OFFCURVE",
"469 -65 CURVE",
"428 -65 LINE",
"428 -112 OFFCURVE",
"395 -146 OFFCURVE",
"341 -146 CURVE SMOOTH",
"287 -146 OFFCURVE",
"254 -112 OFFCURVE",
"254 -65 CURVE",
"212 -65 LINE",
"212 -133 OFFCURVE",
"263 -184 OFFCURVE",
"341 -184 CURVE SMOOTH"
);
}
);
width = 681;
}
);
note = Hbrevebelow;
unicode = 1E2A;
},
{
glyphname = Hcircumflex;
lastChange = "2015-11-29 23:41:38 +0000";
layers = (
{
layerId = "FFDA6A0D-11B9-4032-BFBB-EDC4FF23EF93";
name = Light;
paths = (
{
closed = 1;
nodes = (
"128 0 LINE",
"128 334 LINE",
"553 334 LINE",
"553 0 LINE",
"606 0 LINE",
"606 699 LINE",
"553 699 LINE",
"553 379 LINE",
"128 379 LINE",
"128 699 LINE",
"75 699 LINE",
"75 0 LINE"
);
},
{
closed = 1;
nodes = (
"241 770 LINE",
"341 891 LINE",
"441 770 LINE",
"495 770 LINE",
"363 926 LINE",
"318 926 LINE",
"186 770 LINE"
);
}
);
width = 681;
}
);
note = Hcircumflex;
unicode = 0124;
},
{
glyphname = Hdotbelow;
lastChange = "2015-11-29 23:41:39 +0000";
layers = (
{
layerId = "FFDA6A0D-11B9-4032-BFBB-EDC4FF23EF93";
name = Light;
paths = (
{
closed = 1;
nodes = (
"128 0 LINE",
"128 334 LINE",
"553 334 LINE",
"553 0 LINE",
"606 0 LINE",
"606 699 LINE",
"553 699 LINE",
"553 379 LINE",
"128 379 LINE",
"128 699 LINE",
"75 699 LINE",
"75 0 LINE"
);
},
{
closed = 1;
nodes = (
"361 -137 OFFCURVE",
"379 -119 OFFCURVE",
"379 -98 CURVE SMOOTH",
"379 -77 OFFCURVE",
"361 -60 OFFCURVE",
"341 -60 CURVE SMOOTH",
"320 -60 OFFCURVE",
"302 -77 OFFCURVE",
"302 -98 CURVE SMOOTH",
"302 -119 OFFCURVE",
"320 -137 OFFCURVE",
"341 -137 CURVE SMOOTH"
);
}
);
width = 681;
}
);
note = Hdotbelow;
unicode = 1E24;
},
{
glyphname = I;
lastChange = "2015-11-29 23:41:34 +0000";
layers = (
{
layerId = "FFDA6A0D-11B9-4032-BFBB-EDC4FF23EF93";
name = Light;
paths = (
{
closed = 1;
nodes = (
"128 0 LINE",
"128 699 LINE",
"75 699 LINE",
"75 0 LINE"
);
}
);
width = 204;
}
);
note = I;
unicode = 0049;
},
{
glyphname = IJ;
lastChange = "2015-11-29 23:41:39 +0000";
layers = (
{
layerId = "FFDA6A0D-11B9-4032-BFBB-EDC4FF23EF93";
name = Light;
paths = (
{
closed = 1;
nodes = (
"434 -15 OFFCURVE",
"503 36 OFFCURVE",
"503 141 CURVE SMOOTH",
"503 699 LINE",
"450 699 LINE",
"450 144 LINE SMOOTH",
"450 67 OFFCURVE",
"409 31 OFFCURVE",
"335 31 CURVE SMOOTH",
"311 31 OFFCURVE",
"272 36 OFFCURVE",
"251 44 CURVE",
"251 -2 LINE",
"272 -10 OFFCURVE",
"312 -15 OFFCURVE",
"345 -15 CURVE SMOOTH"
);
},
{
closed = 1;
nodes = (
"128 0 LINE",
"128 699 LINE",
"75 699 LINE",
"75 0 LINE"
);
}
);
width = 573;
}
);
note = IJ;
rightKerningGroup = J;
unicode = 0132;
},
{
glyphname = Iacute;
lastChange = "2015-11-29 23:41:38 +0000";
layers = (
{
layerId = "FFDA6A0D-11B9-4032-BFBB-EDC4FF23EF93";
name = Light;
paths = (
{
closed = 1;
nodes = (
"128 0 LINE",
"128 699 LINE",
"75 699 LINE",
"75 0 LINE"
);
},
{
closed = 1;
nodes = (
"125 754 LINE",
"203 923 LINE",
"149 923 LINE",
"79 754 LINE"
);
}
);
width = 204;
}
);
note = Iacute;
unicode = 00CD;
},
{
glyphname = Ibreve;
lastChange = "2015-11-29 23:41:37 +0000";
layers = (
{
layerId = "FFDA6A0D-11B9-4032-BFBB-EDC4FF23EF93";
name = Light;
paths = (
{
closed = 1;
nodes = (
"128 0 LINE",
"128 699 LINE",
"75 699 LINE",
"75 0 LINE"
);
},
{
closed = 1;
nodes = (
"179 759 OFFCURVE",
"230 811 OFFCURVE",
"230 878 CURVE",
"189 878 LINE",
"189 831 OFFCURVE",
"156 798 OFFCURVE",
"102 798 CURVE SMOOTH",
"48 798 OFFCURVE",
"15 831 OFFCURVE",
"15 878 CURVE",
"-27 878 LINE",
"-27 811 OFFCURVE",
"24 759 OFFCURVE",
"102 759 CURVE SMOOTH"
);
}
);
width = 204;
}
);
note = Ibreve;
unicode = 012C;
},
{
glyphname = Icaron;
lastChange = "2015-11-29 23:41:38 +0000";
layers = (
{
layerId = "FFDA6A0D-11B9-4032-BFBB-EDC4FF23EF93";
name = Light;
paths = (
{
closed = 1;
nodes = (
"124 763 LINE",
"256 919 LINE",
"202 919 LINE",
"102 798 LINE",
"2 919 LINE",
"-53 919 LINE",
"79 763 LINE"
);
},
{
closed = 1;
nodes = (
"128 0 LINE",
"128 699 LINE",
"75 699 LINE",
"75 0 LINE"
);
}
);
width = 204;
}
);
note = Icaron;
unicode = 01CF;
},
{
glyphname = Icircumflex;
lastChange = "2015-11-29 23:41:38 +0000";
layers = (
{
layerId = "FFDA6A0D-11B9-4032-BFBB-EDC4FF23EF93";
name = Light;
paths = (
{
closed = 1;
nodes = (
"2 758 LINE",
"102 879 LINE",
"202 758 LINE",
"256 758 LINE",
"124 914 LINE",
"79 914 LINE",
"-53 758 LINE"
);
},
{
closed = 1;
nodes = (
"128 0 LINE",
"128 699 LINE",
"75 699 LINE",
"75 0 LINE"
);
}
);
width = 204;
}
);
note = Icircumflex;
unicode = 00CE;
},
{
glyphname = Idieresis;
lastChange = "2015-11-29 23:41:38 +0000";
layers = (
{
layerId = "FFDA6A0D-11B9-4032-BFBB-EDC4FF23EF93";
name = Light;
paths = (
{
closed = 1;
nodes = (
"128 0 LINE",
"128 699 LINE",
"75 699 LINE",
"75 0 LINE"
);
},
{
closed = 1;
nodes = (
"18 771 OFFCURVE",
"36 789 OFFCURVE",
"36 810 CURVE SMOOTH",
"36 831 OFFCURVE",
"18 848 OFFCURVE",
"-2 848 CURVE SMOOTH",
"-23 848 OFFCURVE",
"-41 831 OFFCURVE",
"-41 810 CURVE SMOOTH",
"-41 789 OFFCURVE",
"-23 771 OFFCURVE",
"-2 771 CURVE SMOOTH"
);
},
{
closed = 1;
nodes = (
"226 771 OFFCURVE",
"244 789 OFFCURVE",
"244 810 CURVE SMOOTH",
"244 831 OFFCURVE",
"226 848 OFFCURVE",
"205 848 CURVE SMOOTH",
"184 848 OFFCURVE",
"166 831 OFFCURVE",
"166 810 CURVE SMOOTH",
"166 789 OFFCURVE",
"184 771 OFFCURVE",
"205 771 CURVE SMOOTH"
);
}
);
width = 204;
}
);
note = Idieresis;
unicode = 00CF;
},
{
glyphname = Idotaccent;
lastChange = "2015-11-29 23:41:39 +0000";
layers = (
{
layerId = "FFDA6A0D-11B9-4032-BFBB-EDC4FF23EF93";
name = Light;
paths = (
{
closed = 1;
nodes = (
"128 0 LINE",
"128 699 LINE",
"75 699 LINE",
"75 0 LINE"
);
},
{
closed = 1;
nodes = (
"122 752 OFFCURVE",
"140 770 OFFCURVE",
"140 791 CURVE SMOOTH",
"140 812 OFFCURVE",
"122 829 OFFCURVE",
"102 829 CURVE SMOOTH",
"81 829 OFFCURVE",
"63 812 OFFCURVE",
"63 791 CURVE SMOOTH",
"63 770 OFFCURVE",
"81 752 OFFCURVE",
"102 752 CURVE SMOOTH"
);
}
);
width = 204;
}
);
note = Idotaccent;
unicode = 0130;
},
{
glyphname = Idotbelow;
lastChange = "2015-11-29 23:41:38 +0000";
layers = (
{
layerId = "FFDA6A0D-11B9-4032-BFBB-EDC4FF23EF93";
name = Light;
paths = (
{
closed = 1;
nodes = (
"128 0 LINE",
"128 699 LINE",
"75 699 LINE",
"75 0 LINE"
);
},
{
closed = 1;
nodes = (
"122 -137 OFFCURVE",
"140 -119 OFFCURVE",
"140 -98 CURVE SMOOTH",
"140 -77 OFFCURVE",
"122 -60 OFFCURVE",
"102 -60 CURVE SMOOTH",
"81 -60 OFFCURVE",
"63 -77 OFFCURVE",
"63 -98 CURVE SMOOTH",
"63 -119 OFFCURVE",
"81 -137 OFFCURVE",
"102 -137 CURVE SMOOTH"
);
}
);
width = 204;
}
);
note = Idotbelow;
unicode = 1ECA;
},
{
glyphname = Igrave;
lastChange = "2015-11-29 23:41:38 +0000";
layers = (
{
layerId = "FFDA6A0D-11B9-4032-BFBB-EDC4FF23EF93";
name = Light;
paths = (
{
closed = 1;
nodes = (
"128 0 LINE",
"128 699 LINE",
"75 699 LINE",
"75 0 LINE"
);
},
{
closed = 1;
nodes = (
"126 766 LINE",
"57 935 LINE",
"2 935 LINE",
"81 766 LINE"
);
}
);
width = 204;
}
);
note = Igrave;
unicode = 00CC;
},
{
glyphname = Ihookabove;
lastChange = "2015-11-29 23:41:39 +0000";
layers = (
{
layerId = "FFDA6A0D-11B9-4032-BFBB-EDC4FF23EF93";
name = Light;
paths = (
{
closed = 1;
nodes = (
"124 743 LINE",
"124 782 LINE",
"187 787 OFFCURVE",
"219 824 OFFCURVE",
"219 873 CURVE SMOOTH",
"219 925 OFFCURVE",
"182 962 OFFCURVE",
"107 962 CURVE SMOOTH",
"83 962 OFFCURVE",
"55 958 OFFCURVE",
"41 953 CURVE",
"41 918 LINE",
"53 924 OFFCURVE",
"81 927 OFFCURVE",
"99 927 CURVE SMOOTH",
"146 927 OFFCURVE",
"172 910 OFFCURVE",
"172 871 CURVE SMOOTH",
"172 828 OFFCURVE",
"147 808 OFFCURVE",
"79 808 CURVE",
"79 743 LINE"
);
},
{
closed = 1;
nodes = (
"128 0 LINE",
"128 699 LINE",
"75 699 LINE",
"75 0 LINE"
);
}
);
width = 204;
}
);
note = Ihookabove;
unicode = 1EC8;
},
{
glyphname = Imacron;
lastChange = "2015-11-29 23:41:39 +0000";
layers = (
{
layerId = "FFDA6A0D-11B9-4032-BFBB-EDC4FF23EF93";
name = Light;
paths = (
{
closed = 1;
nodes = (
"128 0 LINE",
"128 699 LINE",
"75 699 LINE",
"75 0 LINE"
);
},
{
closed = 1;
nodes = (
"247 763 LINE",
"247 804 LINE",
"-45 804 LINE",
"-45 763 LINE"
);
}
);
width = 204;
}
);
note = Imacron;
unicode = 012A;
},
{
glyphname = Iogonek;
lastChange = "2015-11-29 23:41:39 +0000";
layers = (
{
layerId = "FFDA6A0D-11B9-4032-BFBB-EDC4FF23EF93";
name = Light;
paths = (
{
closed = 1;
nodes = (
"128 0 LINE",
"128 699 LINE",
"75 699 LINE",
"75 0 LINE"
);
},
{
closed = 1;
nodes = (
"113 -208 OFFCURVE",
"133 -205 OFFCURVE",
"146 -199 CURVE",
"146 -162 LINE",
"134 -167 OFFCURVE",
"118 -171 OFFCURVE",
"100 -171 CURVE SMOOTH",
"68 -171 OFFCURVE",
"48 -155 OFFCURVE",
"48 -119 CURVE SMOOTH",
"48 -73 OFFCURVE",
"78 -35 OFFCURVE",
"127 0 CURVE",
"77 0 LINE",
"35 -27 OFFCURVE",
"1 -72 OFFCURVE",
"1 -124 CURVE SMOOTH",
"1 -181 OFFCURVE",
"42 -208 OFFCURVE",
"90 -208 CURVE SMOOTH"
);
}
);
width = 204;
}
);
note = Iogonek;
unicode = 012E;
},
{
glyphname = Itilde;
lastChange = "2015-11-29 23:41:39 +0000";
layers = (
{
layerId = "FFDA6A0D-11B9-4032-BFBB-EDC4FF23EF93";
name = Light;
paths = (
{
closed = 1;
nodes = (
"128 0 LINE",
"128 699 LINE",
"75 699 LINE",
"75 0 LINE"
);
},
{
closed = 1;
nodes = (
"-51 806 OFFCURVE",
"-21 817 OFFCURVE",
"13 817 CURVE SMOOTH",
"77 817 OFFCURVE",
"117 767 OFFCURVE",
"190 767 CURVE SMOOTH",
"229 767 OFFCURVE",
"262 778 OFFCURVE",
"283 811 CURVE",
"283 862 LINE",
"256 820 OFFCURVE",
"225 809 OFFCURVE",
"190 809 CURVE SMOOTH",
"125 809 OFFCURVE",
"81 859 OFFCURVE",
"13 859 CURVE SMOOTH",
"-25 859 OFFCURVE",
"-59 847 OFFCURVE",
"-80 815 CURVE",
"-80 764 LINE"
);
}
);
width = 204;
}
);
note = Itilde;
unicode = 0128;
},
{
glyphname = J;
lastChange = "2015-11-29 23:41:34 +0000";
layers = (
{
layerId = "FFDA6A0D-11B9-4032-BFBB-EDC4FF23EF93";
name = Light;
paths = (
{
closed = 1;
nodes = (
"218 -15 OFFCURVE",
"287 36 OFFCURVE",
"287 141 CURVE SMOOTH",
"287 699 LINE",
"234 699 LINE",
"234 144 LINE SMOOTH",
"234 67 OFFCURVE",
"193 31 OFFCURVE",
"119 31 CURVE SMOOTH",
"95 31 OFFCURVE",
"56 36 OFFCURVE",
"35 44 CURVE",
"35 -2 LINE",
"56 -10 OFFCURVE",
"96 -15 OFFCURVE",
"129 -15 CURVE SMOOTH"
);
}
);
width = 357;
}
);
note = J;
rightKerningGroup = J;
unicode = 004A;
},
{
glyphname = Jcircumflex;
lastChange = "2015-11-29 23:41:38 +0000";
layers = (
{
layerId = "FFDA6A0D-11B9-4032-BFBB-EDC4FF23EF93";
name = Light;
paths = (
{
closed = 1;
nodes = (
"218 -15 OFFCURVE",
"287 36 OFFCURVE",
"287 141 CURVE SMOOTH",
"287 699 LINE",
"234 699 LINE",
"234 144 LINE SMOOTH",
"234 67 OFFCURVE",
"193 31 OFFCURVE",
"119 31 CURVE SMOOTH",
"95 31 OFFCURVE",
"56 36 OFFCURVE",
"35 44 CURVE",
"35 -2 LINE",
"56 -10 OFFCURVE",
"96 -15 OFFCURVE",
"129 -15 CURVE SMOOTH"
);
},
{
closed = 1;
nodes = (
"160 758 LINE",
"260 879 LINE",
"360 758 LINE",
"414 758 LINE",
"282 914 LINE",
"237 914 LINE",
"105 758 LINE"
);
}
);
width = 357;
}
);
note = Jcircumflex;
rightKerningGroup = J;
unicode = 0134;
},
{
glyphname = K;
lastChange = "2015-11-29 23:41:34 +0000";
layers = (
{
layerId = "FFDA6A0D-11B9-4032-BFBB-EDC4FF23EF93";
name = Light;
paths = (
{
closed = 1;
nodes = (
"128 0 LINE",
"128 351 LINE",
"491 0 LINE",
"559 0 LINE",
"192 354 LINE",
"537 699 LINE",
"470 699 LINE",
"128 357 LINE",
"128 699 LINE",
"75 699 LINE",
"75 0 LINE"
);
}
);
width = 604;
}
);
leftKerningGroup = K;
note = K;
rightKerningGroup = K;
unicode = 004B;
},
{
glyphname = Kcommaaccent;
lastChange = "2015-11-29 23:41:38 +0000";
layers = (
{
layerId = "FFDA6A0D-11B9-4032-BFBB-EDC4FF23EF93";
name = Light;
paths = (
{
closed = 1;
nodes = (
"128 0 LINE",
"128 351 LINE",
"491 0 LINE",
"559 0 LINE",
"192 354 LINE",
"537 699 LINE",
"470 699 LINE",
"128 357 LINE",
"128 699 LINE",
"75 699 LINE",
"75 0 LINE"
);
},
{
closed = 1;
nodes = (
"227 -260 LINE",
"315 -67 LINE",
"259 -67 LINE",
"180 -260 LINE"
);
}
);
width = 622;
}
);
leftKerningGroup = K;
note = Kcommaaccent;
rightKerningGroup = K;
unicode = 0136;
},
{
glyphname = L;
lastChange = "2015-11-29 23:41:34 +0000";
layers = (
{
layerId = "FFDA6A0D-11B9-4032-BFBB-EDC4FF23EF93";
name = Light;
paths = (
{
closed = 1;
nodes = (
"513 0 LINE",
"513 45 LINE",
"128 45 LINE",
"128 699 LINE",
"75 699 LINE",
"75 0 LINE"
);
}
);
width = 546;
}
);
note = L;
rightKerningGroup = L;
unicode = 004C;
},
{
glyphname = Lacute;
lastChange = "2015-11-29 23:41:39 +0000";
layers = (
{
layerId = "FFDA6A0D-11B9-4032-BFBB-EDC4FF23EF93";
name = Light;
paths = (
{
closed = 1;
nodes = (
"513 0 LINE",
"513 45 LINE",
"128 45 LINE",
"128 699 LINE",
"75 699 LINE",
"75 0 LINE"
);
},
{
closed = 1;
nodes = (
"124 764 LINE",
"202 933 LINE",
"148 933 LINE",
"78 764 LINE"
);
}
);
width = 546;
}
);
note = Lacute;
rightKerningGroup = L;
unicode = 0139;
},
{
glyphname = Lcaron;
lastChange = "2015-11-29 23:41:38 +0000";
layers = (
{
layerId = "FFDA6A0D-11B9-4032-BFBB-EDC4FF23EF93";
name = Light;
paths = (
{
closed = 1;
nodes = (
"513 0 LINE",
"513 45 LINE",
"128 45 LINE",
"128 699 LINE",
"75 699 LINE",
"75 0 LINE"
);
},
{
closed = 1;
nodes = (
"296 502 LINE",
"384 695 LINE",
"328 695 LINE",
"249 502 LINE"
);
}
);
width = 546;
}
);
note = Lcaron;
rightKerningGroup = L;
unicode = 013D;
},
{
glyphname = Lcommaaccent;
lastChange = "2015-11-29 23:41:39 +0000";
layers = (
{
layerId = "FFDA6A0D-11B9-4032-BFBB-EDC4FF23EF93";
name = Light;
paths = (
{
closed = 1;
nodes = (
"513 0 LINE",
"513 45 LINE",
"128 45 LINE",
"128 699 LINE",
"75 699 LINE",
"75 0 LINE"
);
},
{
closed = 1;
nodes = (
"236 -260 LINE",
"324 -67 LINE",
"268 -67 LINE",
"189 -260 LINE"
);
}
);
width = 546;
}
);
note = Lcommaaccent;
rightKerningGroup = L;
unicode = 013B;
},
{
glyphname = Ldot;
lastChange = "2015-11-29 23:41:38 +0000";
layers = (
{
layerId = "FFDA6A0D-11B9-4032-BFBB-EDC4FF23EF93";
name = Light;
paths = (
{
closed = 1;
nodes = (
"513 0 LINE",
"513 45 LINE",
"128 45 LINE",
"128 699 LINE",
"75 699 LINE",
"75 0 LINE"
);
},
{
closed = 1;
nodes = (
"353 336 OFFCURVE",
"371 354 OFFCURVE",
"371 375 CURVE SMOOTH",
"371 396 OFFCURVE",
"353 413 OFFCURVE",
"333 413 CURVE SMOOTH",
"312 413 OFFCURVE",
"294 396 OFFCURVE",
"294 375 CURVE SMOOTH",
"294 354 OFFCURVE",
"312 336 OFFCURVE",
"333 336 CURVE SMOOTH"
);
}
);
width = 546;
}
);
note = Ldot;
rightKerningGroup = L;
unicode = 013F;
},
{
glyphname = Ldotbelow;
lastChange = "2015-11-29 23:41:38 +0000";
layers = (
{
layerId = "FFDA6A0D-11B9-4032-BFBB-EDC4FF23EF93";
name = Light;
paths = (
{
closed = 1;
nodes = (
"513 0 LINE",
"513 45 LINE",
"128 45 LINE",
"128 699 LINE",
"75 699 LINE",
"75 0 LINE"
);
},
{
closed = 1;
nodes = (
"307 -137 OFFCURVE",
"325 -119 OFFCURVE",
"325 -98 CURVE SMOOTH",
"325 -77 OFFCURVE",
"307 -60 OFFCURVE",
"287 -60 CURVE SMOOTH",
"266 -60 OFFCURVE",
"248 -77 OFFCURVE",
"248 -98 CURVE SMOOTH",
"248 -119 OFFCURVE",
"266 -137 OFFCURVE",
"287 -137 CURVE SMOOTH"
);
}
);
width = 546;
}
);
note = Ldotbelow;
rightKerningGroup = L;
unicode = 1E36;
},
{
glyphname = Ldotbelowmacron;
lastChange = "2015-11-29 23:41:39 +0000";
layers = (
{
layerId = "FFDA6A0D-11B9-4032-BFBB-EDC4FF23EF93";
name = Light;
paths = (
{
closed = 1;
nodes = (
"513 0 LINE",
"513 45 LINE",
"128 45 LINE",
"128 699 LINE",
"75 699 LINE",
"75 0 LINE"
);
},
{
closed = 1;
nodes = (
"310 -137 OFFCURVE",
"328 -119 OFFCURVE",
"328 -98 CURVE SMOOTH",
"328 -77 OFFCURVE",
"310 -60 OFFCURVE",
"290 -60 CURVE SMOOTH",
"269 -60 OFFCURVE",
"251 -77 OFFCURVE",
"251 -98 CURVE SMOOTH",
"251 -119 OFFCURVE",
"269 -137 OFFCURVE",
"290 -137 CURVE SMOOTH"
);
},
{
closed = 1;
nodes = (
"401 798 LINE",
"401 837 LINE",
"112 837 LINE",
"112 798 LINE"
);
}
);
width = 546;
}
);
note = Ldotbelowmacron;
rightKerningGroup = L;
unicode = 1E38;
},
{
glyphname = Llinebelow;
lastChange = "2015-11-29 23:41:37 +0000";
layers = (
{
layerId = "FFDA6A0D-11B9-4032-BFBB-EDC4FF23EF93";
name = Light;
paths = (
{
closed = 1;
nodes = (
"513 0 LINE",
"513 45 LINE",
"128 45 LINE",
"128 699 LINE",
"75 699 LINE",
"75 0 LINE"
);
},
{
closed = 1;
nodes = (
"443 -121 LINE",
"443 -80 LINE",
"152 -80 LINE",
"152 -121 LINE"
);
}
);
width = 546;
}
);
note = Llinebelow;
rightKerningGroup = L;
unicode = 1E3A;
},
{
glyphname = Lslash;
lastChange = "2015-11-29 23:41:34 +0000";
layers = (
{
layerId = "FFDA6A0D-11B9-4032-BFBB-EDC4FF23EF93";
name = Light;
paths = (
{
closed = 1;
nodes = (
"582 0 LINE",
"582 45 LINE",
"196 45 LINE",
"196 346 LINE",
"371 425 LINE",
"371 472 LINE",
"196 394 LINE",
"196 699 LINE",
"143 699 LINE",
"143 370 LINE",
"25 318 LINE",
"25 270 LINE",
"143 323 LINE",
"143 0 LINE"
);
}
);
width = 612;
}
);
note = Lslash;
rightKerningGroup = L;
unicode = 0141;
},
{
glyphname = M;
lastChange = "2015-11-29 23:41:34 +0000";
layers = (
{
layerId = "FFDA6A0D-11B9-4032-BFBB-EDC4FF23EF93";
name = Light;
paths = (
{
closed = 1;
nodes = (
"127 0 LINE",
"127 591 LINE",
"397 0 LINE",
"426 0 LINE",
"696 591 LINE",
"696 0 LINE",
"748 0 LINE",
"748 699 LINE",
"692 699 LINE",
"412 84 LINE",
"131 699 LINE",
"75 699 LINE",
"75 0 LINE"
);
}
);
width = 823;
}
);
note = M;
unicode = 004D;
},
{
glyphname = Mdotbelow;
lastChange = "2015-11-29 23:41:39 +0000";
layers = (
{
layerId = "FFDA6A0D-11B9-4032-BFBB-EDC4FF23EF93";
name = Light;
paths = (
{
closed = 1;
nodes = (
"127 0 LINE",
"127 591 LINE",
"397 0 LINE",
"426 0 LINE",
"696 591 LINE",
"696 0 LINE",
"748 0 LINE",
"748 699 LINE",
"692 699 LINE",
"412 84 LINE",
"131 699 LINE",
"75 699 LINE",
"75 0 LINE"
);
},
{
closed = 1;
nodes = (
"433 -137 OFFCURVE",
"451 -119 OFFCURVE",
"451 -98 CURVE SMOOTH",
"451 -77 OFFCURVE",
"433 -60 OFFCURVE",
"413 -60 CURVE SMOOTH",
"392 -60 OFFCURVE",
"374 -77 OFFCURVE",
"374 -98 CURVE SMOOTH",
"374 -119 OFFCURVE",
"392 -137 OFFCURVE",
"413 -137 CURVE SMOOTH"
);
}
);
width = 823;
}
);
note = Mdotbelow;
unicode = 1E42;
},
{
glyphname = N;
lastChange = "2015-11-29 23:41:34 +0000";
layers = (
{
layerId = "FFDA6A0D-11B9-4032-BFBB-EDC4FF23EF93";
name = Light;
paths = (
{
closed = 1;
nodes = (
"128 0 LINE",
"128 608 LINE",
"546 0 LINE",
"595 0 LINE",
"595 699 LINE",
"542 699 LINE",
"542 92 LINE",
"125 699 LINE",
"75 699 LINE",
"75 0 LINE"
);
}
);
width = 670;
}
);
note = N;
unicode = 004E;
},
{
glyphname = Nacute;
lastChange = "2015-11-29 23:41:38 +0000";
layers = (
{
layerId = "FFDA6A0D-11B9-4032-BFBB-EDC4FF23EF93";
name = Light;
paths = (
{
closed = 1;
nodes = (
"128 0 LINE",
"128 608 LINE",
"546 0 LINE",
"595 0 LINE",
"595 699 LINE",
"542 699 LINE",
"542 92 LINE",
"125 699 LINE",
"75 699 LINE",
"75 0 LINE"
);
},
{
closed = 1;
nodes = (
"362 760 LINE",
"440 929 LINE",
"386 929 LINE",
"316 760 LINE"
);
}
);
width = 670;
}
);
note = Nacute;
unicode = 0143;
},
{
glyphname = Ncaron;
lastChange = "2015-11-29 23:41:37 +0000";
layers = (
{
layerId = "FFDA6A0D-11B9-4032-BFBB-EDC4FF23EF93";
name = Light;
paths = (
{
closed = 1;
nodes = (
"128 0 LINE",
"128 608 LINE",
"546 0 LINE",
"595 0 LINE",
"595 699 LINE",
"542 699 LINE",
"542 92 LINE",
"125 699 LINE",
"75 699 LINE",
"75 0 LINE"
);
},
{
closed = 1;
nodes = (
"360 763 LINE",
"492 919 LINE",
"438 919 LINE",
"338 798 LINE",
"238 919 LINE",
"183 919 LINE",
"315 763 LINE"
);
}
);
width = 670;
}
);
note = Ncaron;
unicode = 0147;
},
{
glyphname = Ncommaaccent;
lastChange = "2015-11-29 23:41:38 +0000";
layers = (
{
layerId = "FFDA6A0D-11B9-4032-BFBB-EDC4FF23EF93";
name = Light;
paths = (
{
closed = 1;
nodes = (
"128 0 LINE",
"128 608 LINE",
"546 0 LINE",
"595 0 LINE",
"595 699 LINE",
"542 699 LINE",
"542 92 LINE",
"125 699 LINE",
"75 699 LINE",
"75 0 LINE"
);
},
{
closed = 1;
nodes = (
"299 -260 LINE",
"387 -67 LINE",
"331 -67 LINE",
"252 -260 LINE"
);
}
);
width = 670;
}
);
note = Ncommaaccent;
unicode = 0145;
},
{
glyphname = Ndotaccent;
lastChange = "2015-11-29 23:41:37 +0000";
layers = (
{
layerId = "FFDA6A0D-11B9-4032-BFBB-EDC4FF23EF93";
name = Light;
paths = (
{
closed = 1;
nodes = (
"128 0 LINE",
"128 608 LINE",
"546 0 LINE",
"595 0 LINE",
"595 699 LINE",
"542 699 LINE",
"542 92 LINE",
"125 699 LINE",
"75 699 LINE",
"75 0 LINE"
);
},
{
closed = 1;
nodes = (
"370 765 OFFCURVE",
"388 783 OFFCURVE",
"388 804 CURVE SMOOTH",
"388 825 OFFCURVE",
"370 842 OFFCURVE",
"350 842 CURVE SMOOTH",
"329 842 OFFCURVE",
"311 825 OFFCURVE",
"311 804 CURVE SMOOTH",
"311 783 OFFCURVE",
"329 765 OFFCURVE",
"350 765 CURVE SMOOTH"
);
}
);
width = 670;
}
);
note = Ndotaccent;
unicode = 1E44;
},
{
glyphname = Ndotbelow;
lastChange = "2015-11-29 23:41:39 +0000";
layers = (
{
layerId = "FFDA6A0D-11B9-4032-BFBB-EDC4FF23EF93";
name = Light;
paths = (
{
closed = 1;
nodes = (
"128 0 LINE",
"128 608 LINE",
"546 0 LINE",
"595 0 LINE",
"595 699 LINE",
"542 699 LINE",
"542 92 LINE",
"125 699 LINE",
"75 699 LINE",
"75 0 LINE"
);
},
{
closed = 1;
nodes = (
"363 -137 OFFCURVE",
"381 -119 OFFCURVE",
"381 -98 CURVE SMOOTH",
"381 -77 OFFCURVE",
"363 -60 OFFCURVE",
"343 -60 CURVE SMOOTH",
"322 -60 OFFCURVE",
"304 -77 OFFCURVE",
"304 -98 CURVE SMOOTH",
"304 -119 OFFCURVE",
"322 -137 OFFCURVE",
"343 -137 CURVE SMOOTH"
);
}
);
width = 670;
}
);
note = Ndotbelow;
unicode = 1E46;
},
{
glyphname = Eng;
lastChange = "2015-11-29 23:41:34 +0000";
layers = (
{
layerId = "FFDA6A0D-11B9-4032-BFBB-EDC4FF23EF93";
name = Light;
paths = (
{
closed = 1;
nodes = (
"543 -231 OFFCURVE",
"595 -186 OFFCURVE",
"595 -85 CURVE SMOOTH",
"595 699 LINE",
"542 699 LINE",
"542 92 LINE",
"125 699 LINE",
"75 699 LINE",
"75 0 LINE",
"128 0 LINE",
"128 608 LINE",
"543 4 LINE",
"543 -86 LINE SMOOTH",
"543 -157 OFFCURVE",
"519 -189 OFFCURVE",
"449 -189 CURVE SMOOTH",
"431 -189 OFFCURVE",
"411 -185 OFFCURVE",
"395 -179 CURVE",
"395 -224 LINE",
"413 -229 OFFCURVE",
"434 -231 OFFCURVE",
"459 -231 CURVE SMOOTH"
);
}
);
width = 670;
}
);
note = Eng;
unicode = 014A;
},
{
glyphname = Nlinebelow;
lastChange = "2015-11-29 23:41:38 +0000";
layers = (
{
layerId = "FFDA6A0D-11B9-4032-BFBB-EDC4FF23EF93";
name = Light;
paths = (
{
closed = 1;
nodes = (
"128 0 LINE",
"128 608 LINE",
"546 0 LINE",
"595 0 LINE",
"595 699 LINE",
"542 699 LINE",
"542 92 LINE",
"125 699 LINE",
"75 699 LINE",
"75 0 LINE"
);
},
{
closed = 1;
nodes = (
"496 -121 LINE",
"496 -80 LINE",
"205 -80 LINE",
"205 -121 LINE"
);
}
);
width = 670;
}
);
note = Nlinebelow;
unicode = 1E48;
},
{
glyphname = Ntilde;
lastChange = "2015-11-29 23:41:38 +0000";
layers = (
{
layerId = "FFDA6A0D-11B9-4032-BFBB-EDC4FF23EF93";
name = Light;
paths = (
{
closed = 1;
nodes = (
"128 0 LINE",
"128 608 LINE",
"546 0 LINE",
"595 0 LINE",
"595 699 LINE",
"542 699 LINE",
"542 92 LINE",
"125 699 LINE",
"75 699 LINE",
"75 0 LINE"
);
},
{
closed = 1;
nodes = (
"192 818 OFFCURVE",
"222 829 OFFCURVE",
"256 829 CURVE SMOOTH",
"320 829 OFFCURVE",
"360 779 OFFCURVE",
"433 779 CURVE SMOOTH",
"472 779 OFFCURVE",
"505 790 OFFCURVE",
"526 823 CURVE",
"526 874 LINE",
"499 832 OFFCURVE",
"468 821 OFFCURVE",
"433 821 CURVE SMOOTH",
"368 821 OFFCURVE",
"324 871 OFFCURVE",
"256 871 CURVE SMOOTH",
"218 871 OFFCURVE",
"184 859 OFFCURVE",
"163 827 CURVE",
"163 776 LINE"
);
}
);
width = 670;
}
);
note = Ntilde;
unicode = 00D1;
},
{
glyphname = O;
lastChange = "2015-11-29 23:41:38 +0000";
layers = (
{
layerId = "FFDA6A0D-11B9-4032-BFBB-EDC4FF23EF93";
name = Light;
paths = (
{
closed = 1;
nodes = (
"625 -15 OFFCURVE",
"782 131 OFFCURVE",
"782 349 CURVE SMOOTH",
"782 568 OFFCURVE",
"625 714 OFFCURVE",
"418 714 CURVE SMOOTH",
"212 714 OFFCURVE",
"55 568 OFFCURVE",
"55 349 CURVE SMOOTH",
"55 131 OFFCURVE",
"212 -15 OFFCURVE",
"418 -15 CURVE SMOOTH"
);
},
{
closed = 1;
nodes = (
"246 32 OFFCURVE",
"107 153 OFFCURVE",
"107 349 CURVE SMOOTH",
"107 543 OFFCURVE",
"244 666 OFFCURVE",
"418 666 CURVE SMOOTH",
"593 667 OFFCURVE",
"730 543 OFFCURVE",
"730 349 CURVE SMOOTH",
"730 153 OFFCURVE",
"590 32 OFFCURVE",
"418 32 CURVE SMOOTH"
);
}
);
width = 837;
}
);
leftKerningGroup = O;
note = O;
rightKerningGroup = O;
unicode = 004F;
},
{
glyphname = Oacute;
lastChange = "2015-11-29 23:41:39 +0000";
layers = (
{
layerId = "FFDA6A0D-11B9-4032-BFBB-EDC4FF23EF93";
name = Light;
paths = (
{
closed = 1;
nodes = (
"625 -15 OFFCURVE",
"782 131 OFFCURVE",
"782 349 CURVE SMOOTH",
"782 568 OFFCURVE",
"625 714 OFFCURVE",
"418 714 CURVE SMOOTH",
"212 714 OFFCURVE",
"55 568 OFFCURVE",
"55 349 CURVE SMOOTH",
"55 131 OFFCURVE",
"212 -15 OFFCURVE",
"418 -15 CURVE SMOOTH"
);
},
{
closed = 1;
nodes = (
"246 32 OFFCURVE",
"107 153 OFFCURVE",
"107 349 CURVE SMOOTH",
"107 543 OFFCURVE",
"244 666 OFFCURVE",
"418 666 CURVE SMOOTH",
"593 667 OFFCURVE",
"730 543 OFFCURVE",
"730 349 CURVE SMOOTH",
"730 153 OFFCURVE",
"590 32 OFFCURVE",
"418 32 CURVE SMOOTH"
);
},
{
closed = 1;
nodes = (
"432 766 LINE",
"510 935 LINE",
"456 935 LINE",
"386 766 LINE"
);
}
);
width = 837;
}
);
leftKerningGroup = O;
note = Oacute;
rightKerningGroup = O;
unicode = 00D3;
},
{
glyphname = Obreve;
lastChange = "2015-11-29 23:41:39 +0000";
layers = (
{
layerId = "FFDA6A0D-11B9-4032-BFBB-EDC4FF23EF93";
name = Light;
paths = (
{
closed = 1;
nodes = (
"625 -15 OFFCURVE",
"782 131 OFFCURVE",
"782 349 CURVE SMOOTH",
"782 568 OFFCURVE",
"625 714 OFFCURVE",
"418 714 CURVE SMOOTH",
"212 714 OFFCURVE",
"55 568 OFFCURVE",
"55 349 CURVE SMOOTH",
"55 131 OFFCURVE",
"212 -15 OFFCURVE",
"418 -15 CURVE SMOOTH"
);
},
{
closed = 1;
nodes = (
"246 32 OFFCURVE",
"107 153 OFFCURVE",
"107 349 CURVE SMOOTH",
"107 543 OFFCURVE",
"244 666 OFFCURVE",
"418 666 CURVE SMOOTH",
"593 667 OFFCURVE",
"730 543 OFFCURVE",
"730 349 CURVE SMOOTH",
"730 153 OFFCURVE",
"590 32 OFFCURVE",
"418 32 CURVE SMOOTH"
);
},
{
closed = 1;
nodes = (
"496 749 OFFCURVE",
"547 801 OFFCURVE",
"547 868 CURVE",
"506 868 LINE",
"506 821 OFFCURVE",
"473 788 OFFCURVE",
"419 788 CURVE SMOOTH",
"365 788 OFFCURVE",
"332 821 OFFCURVE",
"332 868 CURVE",
"290 868 LINE",
"290 801 OFFCURVE",
"341 749 OFFCURVE",
"419 749 CURVE SMOOTH"
);
}
);
width = 837;
}
);
leftKerningGroup = O;
note = Obreve;
rightKerningGroup = O;
unicode = 014E;
},
{
glyphname = Ocaron;
lastChange = "2015-11-29 23:41:39 +0000";
layers = (
{
layerId = "FFDA6A0D-11B9-4032-BFBB-EDC4FF23EF93";
name = Light;
paths = (
{
closed = 1;
nodes = (
"625 -15 OFFCURVE",
"782 131 OFFCURVE",
"782 349 CURVE SMOOTH",
"782 568 OFFCURVE",
"625 714 OFFCURVE",
"418 714 CURVE SMOOTH",
"212 714 OFFCURVE",
"55 568 OFFCURVE",
"55 349 CURVE SMOOTH",
"55 131 OFFCURVE",
"212 -15 OFFCURVE",
"418 -15 CURVE SMOOTH"
);
},
{
closed = 1;
nodes = (
"246 32 OFFCURVE",
"107 153 OFFCURVE",
"107 349 CURVE SMOOTH",
"107 543 OFFCURVE",
"244 666 OFFCURVE",
"418 666 CURVE SMOOTH",
"593 667 OFFCURVE",
"730 543 OFFCURVE",
"730 349 CURVE SMOOTH",
"730 153 OFFCURVE",
"590 32 OFFCURVE",
"418 32 CURVE SMOOTH"
);
},
{
closed = 1;
nodes = (
"441 763 LINE",
"573 919 LINE",
"519 919 LINE",
"419 798 LINE",
"319 919 LINE",
"264 919 LINE",
"396 763 LINE"
);
}
);
width = 837;
}
);
leftKerningGroup = O;
note = Ocaron;
rightKerningGroup = O;
unicode = 01D1;
},
{
glyphname = Ocircumflex;
lastChange = "2015-11-29 23:41:38 +0000";
layers = (
{
layerId = "FFDA6A0D-11B9-4032-BFBB-EDC4FF23EF93";
name = Light;
paths = (
{
closed = 1;
nodes = (
"625 -15 OFFCURVE",
"782 131 OFFCURVE",
"782 349 CURVE SMOOTH",
"782 568 OFFCURVE",
"625 714 OFFCURVE",
"418 714 CURVE SMOOTH",
"212 714 OFFCURVE",
"55 568 OFFCURVE",
"55 349 CURVE SMOOTH",
"55 131 OFFCURVE",
"212 -15 OFFCURVE",
"418 -15 CURVE SMOOTH"
);
},
{
closed = 1;
nodes = (
"246 32 OFFCURVE",
"107 153 OFFCURVE",
"107 349 CURVE SMOOTH",
"107 543 OFFCURVE",
"244 666 OFFCURVE",
"418 666 CURVE SMOOTH",
"593 667 OFFCURVE",
"730 543 OFFCURVE",
"730 349 CURVE SMOOTH",
"730 153 OFFCURVE",
"590 32 OFFCURVE",
"418 32 CURVE SMOOTH"
);
},
{
closed = 1;
nodes = (
"316 770 LINE",
"416 891 LINE",
"516 770 LINE",
"570 770 LINE",
"438 926 LINE",
"393 926 LINE",
"261 770 LINE"
);
}
);
width = 837;
}
);
leftKerningGroup = O;
note = Ocircumflex;
rightKerningGroup = O;
unicode = 00D4;
},
{
glyphname = Ocircumflexacute;
lastChange = "2015-11-29 23:41:38 +0000";
layers = (
{
layerId = "FFDA6A0D-11B9-4032-BFBB-EDC4FF23EF93";
name = Light;
paths = (
{
closed = 1;
nodes = (
"625 -15 OFFCURVE",
"782 131 OFFCURVE",
"782 349 CURVE SMOOTH",
"782 568 OFFCURVE",
"625 714 OFFCURVE",
"418 714 CURVE SMOOTH",
"212 714 OFFCURVE",
"55 568 OFFCURVE",
"55 349 CURVE SMOOTH",
"55 131 OFFCURVE",
"212 -15 OFFCURVE",
"418 -15 CURVE SMOOTH"
);
},
{
closed = 1;
nodes = (
"246 32 OFFCURVE",
"107 153 OFFCURVE",
"107 349 CURVE SMOOTH",
"107 543 OFFCURVE",
"244 666 OFFCURVE",
"418 666 CURVE SMOOTH",
"593 667 OFFCURVE",
"730 543 OFFCURVE",
"730 349 CURVE SMOOTH",
"730 153 OFFCURVE",
"590 32 OFFCURVE",
"418 32 CURVE SMOOTH"
);
},
{
closed = 1;
nodes = (
"327 744 LINE",
"422 835 LINE",
"517 744 LINE",
"570 744 LINE",
"440 868 LINE",
"403 868 LINE",
"273 744 LINE"
);
},
{
closed = 1;
nodes = (
"544 837 LINE",
"620 951 LINE",
"574 951 LINE",
"506 837 LINE"
);
}
);
width = 837;
}
);
leftKerningGroup = O;
note = Ocircumflexacute;
rightKerningGroup = O;
unicode = 1ED0;
},
{
glyphname = Ocircumflexdotbelow;
lastChange = "2015-11-29 23:41:38 +0000";
layers = (
{
layerId = "FFDA6A0D-11B9-4032-BFBB-EDC4FF23EF93";
name = Light;
paths = (
{
closed = 1;
nodes = (
"625 -15 OFFCURVE",
"782 131 OFFCURVE",
"782 349 CURVE SMOOTH",
"782 568 OFFCURVE",
"625 714 OFFCURVE",
"418 714 CURVE SMOOTH",
"212 714 OFFCURVE",
"55 568 OFFCURVE",
"55 349 CURVE SMOOTH",
"55 131 OFFCURVE",
"212 -15 OFFCURVE",
"418 -15 CURVE SMOOTH"
);
},
{
closed = 1;
nodes = (
"439 -137 OFFCURVE",
"457 -119 OFFCURVE",
"457 -98 CURVE SMOOTH",
"457 -77 OFFCURVE",
"439 -60 OFFCURVE",
"419 -60 CURVE SMOOTH",
"398 -60 OFFCURVE",
"380 -77 OFFCURVE",
"380 -98 CURVE SMOOTH",
"380 -119 OFFCURVE",
"398 -137 OFFCURVE",
"419 -137 CURVE SMOOTH"
);
},
{
closed = 1;
nodes = (
"246 32 OFFCURVE",
"107 153 OFFCURVE",
"107 349 CURVE SMOOTH",
"107 543 OFFCURVE",
"244 666 OFFCURVE",
"418 666 CURVE SMOOTH",
"593 667 OFFCURVE",
"730 543 OFFCURVE",
"730 349 CURVE SMOOTH",
"730 153 OFFCURVE",
"590 32 OFFCURVE",
"418 32 CURVE SMOOTH"
);
},
{
closed = 1;
nodes = (
"318 764 LINE",
"418 885 LINE",
"518 764 LINE",
"572 764 LINE",
"440 920 LINE",
"395 920 LINE",
"263 764 LINE"
);
}
);
width = 837;
}
);
leftKerningGroup = O;
note = Ocircumflexdotbelow;
rightKerningGroup = O;
unicode = 1ED8;
},
{
glyphname = Ocircumflexgrave;
lastChange = "2015-11-29 23:41:38 +0000";
layers = (
{
layerId = "FFDA6A0D-11B9-4032-BFBB-EDC4FF23EF93";
name = Light;
paths = (
{
closed = 1;
nodes = (
"625 -15 OFFCURVE",
"782 131 OFFCURVE",
"782 349 CURVE SMOOTH",
"782 568 OFFCURVE",
"625 714 OFFCURVE",
"418 714 CURVE SMOOTH",
"212 714 OFFCURVE",
"55 568 OFFCURVE",
"55 349 CURVE SMOOTH",
"55 131 OFFCURVE",
"212 -15 OFFCURVE",
"418 -15 CURVE SMOOTH"
);
},
{
closed = 1;
nodes = (
"246 32 OFFCURVE",
"107 153 OFFCURVE",
"107 349 CURVE SMOOTH",
"107 543 OFFCURVE",
"244 666 OFFCURVE",
"418 666 CURVE SMOOTH",
"593 667 OFFCURVE",
"730 543 OFFCURVE",
"730 349 CURVE SMOOTH",
"730 153 OFFCURVE",
"590 32 OFFCURVE",
"418 32 CURVE SMOOTH"
);
},
{
closed = 1;
nodes = (
"331 837 LINE",
"263 951 LINE",
"217 951 LINE",
"293 837 LINE"
);
},
{
closed = 1;
nodes = (
"320 744 LINE",
"415 835 LINE",
"510 744 LINE",
"564 744 LINE",
"434 868 LINE",
"397 868 LINE",
"267 744 LINE"
);
}
);
width = 837;
}
);
leftKerningGroup = O;
note = Ocircumflexgrave;
rightKerningGroup = O;
unicode = 1ED2;
},
{
glyphname = Ocircumflexhookabove;
lastChange = "2015-11-29 23:41:37 +0000";
layers = (
{
layerId = "FFDA6A0D-11B9-4032-BFBB-EDC4FF23EF93";
name = Light;
paths = (
{
closed = 1;
nodes = (
"625 -15 OFFCURVE",
"782 131 OFFCURVE",
"782 349 CURVE SMOOTH",
"782 568 OFFCURVE",
"625 714 OFFCURVE",
"418 714 CURVE SMOOTH",
"212 714 OFFCURVE",
"55 568 OFFCURVE",
"55 349 CURVE SMOOTH",
"55 131 OFFCURVE",
"212 -15 OFFCURVE",
"418 -15 CURVE SMOOTH"
);
},
{
closed = 1;
nodes = (
"246 32 OFFCURVE",
"107 153 OFFCURVE",
"107 349 CURVE SMOOTH",
"107 543 OFFCURVE",
"244 666 OFFCURVE",
"418 666 CURVE SMOOTH",
"593 667 OFFCURVE",
"730 543 OFFCURVE",
"730 349 CURVE SMOOTH",
"730 153 OFFCURVE",
"590 32 OFFCURVE",
"418 32 CURVE SMOOTH"
);
},
{
closed = 1;
nodes = (
"319 744 LINE",
"414 835 LINE",
"509 744 LINE",
"562 744 LINE",
"432 868 LINE",
"395 868 LINE",
"265 744 LINE"
);
},
{
closed = 1;
nodes = (
"538 828 LINE",
"538 854 LINE",
"582 858 OFFCURVE",
"606 883 OFFCURVE",
"606 917 CURVE SMOOTH",
"606 955 OFFCURVE",
"581 981 OFFCURVE",
"529 981 CURVE SMOOTH",
"509 981 OFFCURVE",
"487 977 OFFCURVE",
"474 972 CURVE",
"474 942 LINE",
"485 947 OFFCURVE",
"505 950 OFFCURVE",
"521 950 CURVE SMOOTH",
"551 950 OFFCURVE",
"565 941 OFFCURVE",
"565 917 CURVE SMOOTH",
"565 889 OFFCURVE",
"546 878 OFFCURVE",
"502 878 CURVE",
"502 828 LINE"
);
}
);
width = 837;
}
);
leftKerningGroup = O;
note = Ocircumflexhookabove;
rightKerningGroup = O;
unicode = 1ED4;
},
{
glyphname = Ocircumflextilde;
lastChange = "2015-11-29 23:41:37 +0000";
layers = (
{
layerId = "FFDA6A0D-11B9-4032-BFBB-EDC4FF23EF93";
name = Light;
paths = (
{
closed = 1;
nodes = (
"625 -15 OFFCURVE",
"782 131 OFFCURVE",
"782 349 CURVE SMOOTH",
"782 568 OFFCURVE",
"625 714 OFFCURVE",
"418 714 CURVE SMOOTH",
"212 714 OFFCURVE",
"55 568 OFFCURVE",
"55 349 CURVE SMOOTH",
"55 131 OFFCURVE",
"212 -15 OFFCURVE",
"418 -15 CURVE SMOOTH"
);
},
{
closed = 1;
nodes = (
"246 32 OFFCURVE",
"107 153 OFFCURVE",
"107 349 CURVE SMOOTH",
"107 543 OFFCURVE",
"244 666 OFFCURVE",
"418 666 CURVE SMOOTH",
"593 667 OFFCURVE",
"730 543 OFFCURVE",
"730 349 CURVE SMOOTH",
"730 153 OFFCURVE",
"590 32 OFFCURVE",
"418 32 CURVE SMOOTH"
);
},
{
closed = 1;
nodes = (
"498 745 OFFCURVE",
"548 796 OFFCURVE",
"548 863 CURVE",
"508 863 LINE",
"508 816 OFFCURVE",
"475 783 OFFCURVE",
"421 783 CURVE SMOOTH",
"367 783 OFFCURVE",
"334 816 OFFCURVE",
"334 863 CURVE",
"293 863 LINE",
"293 796 OFFCURVE",
"344 745 OFFCURVE",
"421 745 CURVE SMOOTH"
);
},
{
closed = 1;
nodes = (
"290 921 OFFCURVE",
"313 931 OFFCURVE",
"343 931 CURVE SMOOTH",
"391 931 OFFCURVE",
"437 887 OFFCURVE",
"493 887 CURVE SMOOTH",
"528 887 OFFCURVE",
"553 896 OFFCURVE",
"569 923 CURVE",
"569 969 LINE",
"548 934 OFFCURVE",
"524 923 OFFCURVE",
"493 923 CURVE SMOOTH",
"444 923 OFFCURVE",
"395 968 OFFCURVE",
"343 968 CURVE SMOOTH",
"309 968 OFFCURVE",
"283 958 OFFCURVE",
"267 931 CURVE",
"267 886 LINE"
);
}
);
width = 837;
}
);
leftKerningGroup = O;
note = Ocircumflextilde;
rightKerningGroup = O;
unicode = 1ED6;
},
{
glyphname = Odieresis;
lastChange = "2015-11-29 23:41:38 +0000";
layers = (
{
layerId = "FFDA6A0D-11B9-4032-BFBB-EDC4FF23EF93";
name = Light;
paths = (
{
closed = 1;
nodes = (
"625 -15 OFFCURVE",
"782 131 OFFCURVE",
"782 349 CURVE SMOOTH",
"782 568 OFFCURVE",
"625 714 OFFCURVE",
"418 714 CURVE SMOOTH",
"212 714 OFFCURVE",
"55 568 OFFCURVE",
"55 349 CURVE SMOOTH",
"55 131 OFFCURVE",
"212 -15 OFFCURVE",
"418 -15 CURVE SMOOTH"
);
},
{
closed = 1;
nodes = (
"246 32 OFFCURVE",
"107 153 OFFCURVE",
"107 349 CURVE SMOOTH",
"107 543 OFFCURVE",
"244 666 OFFCURVE",
"418 666 CURVE SMOOTH",
"593 667 OFFCURVE",
"730 543 OFFCURVE",
"730 349 CURVE SMOOTH",
"730 153 OFFCURVE",
"590 32 OFFCURVE",
"418 32 CURVE SMOOTH"
);
},
{
closed = 1;
nodes = (
"335 771 OFFCURVE",
"353 789 OFFCURVE",
"353 810 CURVE SMOOTH",
"353 831 OFFCURVE",
"335 848 OFFCURVE",
"315 848 CURVE SMOOTH",
"294 848 OFFCURVE",
"276 831 OFFCURVE",
"276 810 CURVE SMOOTH",
"276 789 OFFCURVE",
"294 771 OFFCURVE",
"315 771 CURVE SMOOTH"
);
},
{
closed = 1;
nodes = (
"543 771 OFFCURVE",
"561 789 OFFCURVE",
"561 810 CURVE SMOOTH",
"561 831 OFFCURVE",
"543 848 OFFCURVE",
"522 848 CURVE SMOOTH",
"501 848 OFFCURVE",
"483 831 OFFCURVE",
"483 810 CURVE SMOOTH",
"483 789 OFFCURVE",
"501 771 OFFCURVE",
"522 771 CURVE SMOOTH"
);
}
);
width = 837;
}
);
leftKerningGroup = O;
note = Odieresis;
rightKerningGroup = O;
unicode = 00D6;
},
{
glyphname = Odotbelow;
lastChange = "2015-11-29 23:41:38 +0000";
layers = (
{
layerId = "FFDA6A0D-11B9-4032-BFBB-EDC4FF23EF93";
name = Light;
paths = (
{
closed = 1;
nodes = (
"625 -15 OFFCURVE",
"782 131 OFFCURVE",
"782 349 CURVE SMOOTH",
"782 568 OFFCURVE",
"625 714 OFFCURVE",
"418 714 CURVE SMOOTH",
"212 714 OFFCURVE",
"55 568 OFFCURVE",
"55 349 CURVE SMOOTH",
"55 131 OFFCURVE",
"212 -15 OFFCURVE",
"418 -15 CURVE SMOOTH"
);
},
{
closed = 1;
nodes = (
"439 -137 OFFCURVE",
"457 -119 OFFCURVE",
"457 -98 CURVE SMOOTH",
"457 -77 OFFCURVE",
"439 -60 OFFCURVE",
"419 -60 CURVE SMOOTH",
"398 -60 OFFCURVE",
"380 -77 OFFCURVE",
"380 -98 CURVE SMOOTH",
"380 -119 OFFCURVE",
"398 -137 OFFCURVE",
"419 -137 CURVE SMOOTH"
);
},
{
closed = 1;
nodes = (
"246 32 OFFCURVE",
"107 153 OFFCURVE",
"107 349 CURVE SMOOTH",
"107 543 OFFCURVE",
"244 666 OFFCURVE",
"418 666 CURVE SMOOTH",
"593 667 OFFCURVE",
"730 543 OFFCURVE",
"730 349 CURVE SMOOTH",
"730 153 OFFCURVE",
"590 32 OFFCURVE",
"418 32 CURVE SMOOTH"
);
}
);
width = 837;
}
);
leftKerningGroup = O;
note = Odotbelow;
rightKerningGroup = O;
unicode = 1ECC;
},
{
glyphname = Ograve;
lastChange = "2015-11-29 23:41:39 +0000";
layers = (
{
layerId = "FFDA6A0D-11B9-4032-BFBB-EDC4FF23EF93";
name = Light;
paths = (
{
closed = 1;
nodes = (
"625 -15 OFFCURVE",
"782 131 OFFCURVE",
"782 349 CURVE SMOOTH",
"782 568 OFFCURVE",
"625 714 OFFCURVE",
"418 714 CURVE SMOOTH",
"212 714 OFFCURVE",
"55 568 OFFCURVE",
"55 349 CURVE SMOOTH",
"55 131 OFFCURVE",
"212 -15 OFFCURVE",
"418 -15 CURVE SMOOTH"
);
},
{
closed = 1;
nodes = (
"246 32 OFFCURVE",
"107 153 OFFCURVE",
"107 349 CURVE SMOOTH",
"107 543 OFFCURVE",
"244 666 OFFCURVE",
"418 666 CURVE SMOOTH",
"593 667 OFFCURVE",
"730 543 OFFCURVE",
"730 349 CURVE SMOOTH",
"730 153 OFFCURVE",
"590 32 OFFCURVE",
"418 32 CURVE SMOOTH"
);
},
{
closed = 1;
nodes = (
"457 766 LINE",
"388 935 LINE",
"333 935 LINE",
"412 766 LINE"
);
}
);
width = 837;
}
);
leftKerningGroup = O;
note = Ograve;
rightKerningGroup = O;
unicode = 00D2;
},
{
glyphname = Ohookabove;
lastChange = "2015-11-29 23:41:38 +0000";
layers = (
{
layerId = "FFDA6A0D-11B9-4032-BFBB-EDC4FF23EF93";
name = Light;
paths = (
{
closed = 1;
nodes = (
"625 -15 OFFCURVE",
"782 131 OFFCURVE",
"782 349 CURVE SMOOTH",
"782 568 OFFCURVE",
"625 714 OFFCURVE",
"418 714 CURVE SMOOTH",
"212 714 OFFCURVE",
"55 568 OFFCURVE",
"55 349 CURVE SMOOTH",
"55 131 OFFCURVE",
"212 -15 OFFCURVE",
"418 -15 CURVE SMOOTH"
);
},
{
closed = 1;
nodes = (
"246 32 OFFCURVE",
"107 153 OFFCURVE",
"107 349 CURVE SMOOTH",
"107 543 OFFCURVE",
"244 666 OFFCURVE",
"418 666 CURVE SMOOTH",
"593 667 OFFCURVE",
"730 543 OFFCURVE",
"730 349 CURVE SMOOTH",
"730 153 OFFCURVE",
"590 32 OFFCURVE",
"418 32 CURVE SMOOTH"
);
},
{
closed = 1;
nodes = (
"436 743 LINE",
"436 782 LINE",
"499 787 OFFCURVE",
"531 824 OFFCURVE",
"531 873 CURVE SMOOTH",
"531 925 OFFCURVE",
"494 962 OFFCURVE",
"419 962 CURVE SMOOTH",
"395 962 OFFCURVE",
"367 958 OFFCURVE",
"353 953 CURVE",
"353 918 LINE",
"365 924 OFFCURVE",
"393 927 OFFCURVE",
"411 927 CURVE SMOOTH",
"458 927 OFFCURVE",
"484 910 OFFCURVE",
"484 871 CURVE SMOOTH",
"484 828 OFFCURVE",
"459 808 OFFCURVE",
"391 808 CURVE",
"391 743 LINE"
);
}
);
width = 837;
}
);
leftKerningGroup = O;
note = Ohookabove;
rightKerningGroup = O;
unicode = 1ECE;
},
{
glyphname = Ohorn;
lastChange = "2015-11-29 23:41:38 +0000";
layers = (
{
layerId = "FFDA6A0D-11B9-4032-BFBB-EDC4FF23EF93";
name = Light;
paths = (
{
closed = 1;
nodes = (
"625 -15 OFFCURVE",
"782 131 OFFCURVE",
"782 349 CURVE SMOOTH",
"782 442 OFFCURVE",
"753 522 OFFCURVE",
"705 583 CURVE",
"767 597 OFFCURVE",
"811 649 OFFCURVE",
"811 708 CURVE SMOOTH",
"811 747 LINE",
"763 747 LINE",
"763 710 LINE SMOOTH",
"763 660 OFFCURVE",
"727 623 OFFCURVE",
"669 621 CURVE",
"605 680 OFFCURVE",
"517 714 OFFCURVE",
"418 714 CURVE SMOOTH",
"212 714 OFFCURVE",
"55 568 OFFCURVE",
"55 349 CURVE SMOOTH",
"55 131 OFFCURVE",
"212 -15 OFFCURVE",
"418 -15 CURVE SMOOTH"
);
},
{
closed = 1;
nodes = (
"246 32 OFFCURVE",
"107 153 OFFCURVE",
"107 349 CURVE SMOOTH",
"107 543 OFFCURVE",
"244 666 OFFCURVE",
"418 666 CURVE SMOOTH",
"593 667 OFFCURVE",
"730 543 OFFCURVE",
"730 349 CURVE SMOOTH",
"730 153 OFFCURVE",
"590 32 OFFCURVE",
"418 32 CURVE SMOOTH"
);
}
);
width = 836;
}
);
leftKerningGroup = O;
note = Ohorn;
rightKerningGroup = O;
unicode = 01A0;
},
{
glyphname = Ohornacute;
lastChange = "2015-11-29 23:41:39 +0000";
layers = (
{
layerId = "FFDA6A0D-11B9-4032-BFBB-EDC4FF23EF93";
name = Light;
paths = (
{
closed = 1;
nodes = (
"625 -15 OFFCURVE",
"782 131 OFFCURVE",
"782 349 CURVE SMOOTH",
"782 442 OFFCURVE",
"753 522 OFFCURVE",
"705 583 CURVE",
"767 597 OFFCURVE",
"811 649 OFFCURVE",
"811 708 CURVE SMOOTH",
"811 747 LINE",
"763 747 LINE",
"763 710 LINE SMOOTH",
"763 660 OFFCURVE",
"727 623 OFFCURVE",
"669 621 CURVE",
"605 680 OFFCURVE",
"517 714 OFFCURVE",
"418 714 CURVE SMOOTH",
"212 714 OFFCURVE",
"55 568 OFFCURVE",
"55 349 CURVE SMOOTH",
"55 131 OFFCURVE",
"212 -15 OFFCURVE",
"418 -15 CURVE SMOOTH"
);
},
{
closed = 1;
nodes = (
"246 32 OFFCURVE",
"107 153 OFFCURVE",
"107 349 CURVE SMOOTH",
"107 543 OFFCURVE",
"244 666 OFFCURVE",
"418 666 CURVE SMOOTH",
"593 667 OFFCURVE",
"730 543 OFFCURVE",
"730 349 CURVE SMOOTH",
"730 153 OFFCURVE",
"590 32 OFFCURVE",
"418 32 CURVE SMOOTH"
);
},
{
closed = 1;
nodes = (
"448 754 LINE",
"526 923 LINE",
"472 923 LINE",
"402 754 LINE"
);
}
);
width = 843;
}
);
leftKerningGroup = O;
note = Ohornacute;
rightKerningGroup = O;
unicode = 1EDA;
},
{
glyphname = Ohorndotbelow;
lastChange = "2015-11-29 23:41:38 +0000";
layers = (
{
layerId = "FFDA6A0D-11B9-4032-BFBB-EDC4FF23EF93";
name = Light;
paths = (
{
closed = 1;
nodes = (
"625 -15 OFFCURVE",
"782 131 OFFCURVE",
"782 349 CURVE SMOOTH",
"782 442 OFFCURVE",
"753 522 OFFCURVE",
"705 583 CURVE",
"767 597 OFFCURVE",
"811 649 OFFCURVE",
"811 708 CURVE SMOOTH",
"811 747 LINE",
"763 747 LINE",
"763 710 LINE SMOOTH",
"763 660 OFFCURVE",
"727 623 OFFCURVE",
"669 621 CURVE",
"605 680 OFFCURVE",
"517 714 OFFCURVE",
"418 714 CURVE SMOOTH",
"212 714 OFFCURVE",
"55 568 OFFCURVE",
"55 349 CURVE SMOOTH",
"55 131 OFFCURVE",
"212 -15 OFFCURVE",
"418 -15 CURVE SMOOTH"
);
},
{
closed = 1;
nodes = (
"443 -137 OFFCURVE",
"461 -119 OFFCURVE",
"461 -98 CURVE SMOOTH",
"461 -77 OFFCURVE",
"443 -60 OFFCURVE",
"423 -60 CURVE SMOOTH",
"402 -60 OFFCURVE",
"384 -77 OFFCURVE",
"384 -98 CURVE SMOOTH",
"384 -119 OFFCURVE",
"402 -137 OFFCURVE",
"423 -137 CURVE SMOOTH"
);
},
{
closed = 1;
nodes = (
"246 32 OFFCURVE",
"107 153 OFFCURVE",
"107 349 CURVE SMOOTH",
"107 543 OFFCURVE",
"244 666 OFFCURVE",
"418 666 CURVE SMOOTH",
"593 667 OFFCURVE",
"730 543 OFFCURVE",
"730 349 CURVE SMOOTH",
"730 153 OFFCURVE",
"590 32 OFFCURVE",
"418 32 CURVE SMOOTH"
);
}
);
width = 843;
}
);
leftKerningGroup = O;
note = Ohorndotbelow;
rightKerningGroup = O;
unicode = 1EE2;
},
{
glyphname = Ohorngrave;
lastChange = "2015-11-29 23:41:37 +0000";
layers = (
{
layerId = "FFDA6A0D-11B9-4032-BFBB-EDC4FF23EF93";
name = Light;
paths = (
{
closed = 1;
nodes = (
"625 -15 OFFCURVE",
"782 131 OFFCURVE",
"782 349 CURVE SMOOTH",
"782 442 OFFCURVE",
"753 522 OFFCURVE",
"705 583 CURVE",
"767 597 OFFCURVE",
"811 649 OFFCURVE",
"811 708 CURVE SMOOTH",
"811 747 LINE",
"763 747 LINE",
"763 710 LINE SMOOTH",
"763 660 OFFCURVE",
"727 623 OFFCURVE",
"669 621 CURVE",
"605 680 OFFCURVE",
"517 714 OFFCURVE",
"418 714 CURVE SMOOTH",
"212 714 OFFCURVE",
"55 568 OFFCURVE",
"55 349 CURVE SMOOTH",
"55 131 OFFCURVE",
"212 -15 OFFCURVE",
"418 -15 CURVE SMOOTH"
);
},
{
closed = 1;
nodes = (
"246 32 OFFCURVE",
"107 153 OFFCURVE",
"107 349 CURVE SMOOTH",
"107 543 OFFCURVE",
"244 666 OFFCURVE",
"418 666 CURVE SMOOTH",
"593 667 OFFCURVE",
"730 543 OFFCURVE",
"730 349 CURVE SMOOTH",
"730 153 OFFCURVE",
"590 32 OFFCURVE",
"418 32 CURVE SMOOTH"
);
},
{
closed = 1;
nodes = (
"450 754 LINE",
"381 923 LINE",
"326 923 LINE",
"405 754 LINE"
);
}
);
width = 843;
}
);
leftKerningGroup = O;
note = Ohorngrave;
rightKerningGroup = O;
unicode = 1EDC;
},
{
glyphname = Ohornhookabove;
lastChange = "2015-11-29 23:41:39 +0000";
layers = (
{
layerId = "FFDA6A0D-11B9-4032-BFBB-EDC4FF23EF93";
name = Light;
paths = (
{
closed = 1;
nodes = (
"625 -15 OFFCURVE",
"782 131 OFFCURVE",
"782 349 CURVE SMOOTH",
"782 442 OFFCURVE",
"753 522 OFFCURVE",
"705 583 CURVE",
"767 597 OFFCURVE",
"811 649 OFFCURVE",
"811 708 CURVE SMOOTH",
"811 747 LINE",
"763 747 LINE",
"763 710 LINE SMOOTH",
"763 660 OFFCURVE",
"727 623 OFFCURVE",
"669 621 CURVE",
"605 680 OFFCURVE",
"517 714 OFFCURVE",
"418 714 CURVE SMOOTH",
"212 714 OFFCURVE",
"55 568 OFFCURVE",
"55 349 CURVE SMOOTH",
"55 131 OFFCURVE",
"212 -15 OFFCURVE",
"418 -15 CURVE SMOOTH"
);
},
{
closed = 1;
nodes = (
"246 32 OFFCURVE",
"107 153 OFFCURVE",
"107 349 CURVE SMOOTH",
"107 543 OFFCURVE",
"244 666 OFFCURVE",
"418 666 CURVE SMOOTH",
"593 667 OFFCURVE",
"730 543 OFFCURVE",
"730 349 CURVE SMOOTH",
"730 153 OFFCURVE",
"590 32 OFFCURVE",
"418 32 CURVE SMOOTH"
);
},
{
closed = 1;
nodes = (
"446 743 LINE",
"446 782 LINE",
"509 787 OFFCURVE",
"541 824 OFFCURVE",
"541 873 CURVE SMOOTH",
"541 925 OFFCURVE",
"504 962 OFFCURVE",
"429 962 CURVE SMOOTH",
"405 962 OFFCURVE",
"377 958 OFFCURVE",
"363 953 CURVE",
"363 918 LINE",
"375 924 OFFCURVE",
"403 927 OFFCURVE",
"421 927 CURVE SMOOTH",
"468 927 OFFCURVE",
"494 910 OFFCURVE",
"494 871 CURVE SMOOTH",
"494 828 OFFCURVE",
"469 808 OFFCURVE",
"401 808 CURVE",
"401 743 LINE"
);
}
);
width = 843;
}
);
leftKerningGroup = O;
note = Ohornhookabove;
rightKerningGroup = O;
unicode = 1EDE;
},
{
glyphname = Ohorntilde;
lastChange = "2015-11-29 23:41:38 +0000";
layers = (
{
layerId = "FFDA6A0D-11B9-4032-BFBB-EDC4FF23EF93";
name = Light;
paths = (
{
closed = 1;
nodes = (
"625 -15 OFFCURVE",
"782 131 OFFCURVE",
"782 349 CURVE SMOOTH",
"782 442 OFFCURVE",
"753 522 OFFCURVE",
"705 583 CURVE",
"767 597 OFFCURVE",
"811 649 OFFCURVE",
"811 708 CURVE SMOOTH",
"811 747 LINE",
"763 747 LINE",
"763 710 LINE SMOOTH",
"763 660 OFFCURVE",
"727 623 OFFCURVE",
"669 621 CURVE",
"605 680 OFFCURVE",
"517 714 OFFCURVE",
"418 714 CURVE SMOOTH",
"212 714 OFFCURVE",
"55 568 OFFCURVE",
"55 349 CURVE SMOOTH",
"55 131 OFFCURVE",
"212 -15 OFFCURVE",
"418 -15 CURVE SMOOTH"
);
},
{
closed = 1;
nodes = (
"246 32 OFFCURVE",
"107 153 OFFCURVE",
"107 349 CURVE SMOOTH",
"107 543 OFFCURVE",
"244 666 OFFCURVE",
"418 666 CURVE SMOOTH",
"593 667 OFFCURVE",
"730 543 OFFCURVE",
"730 349 CURVE SMOOTH",
"730 153 OFFCURVE",
"590 32 OFFCURVE",
"418 32 CURVE SMOOTH"
);
},
{
closed = 1;
nodes = (
"283 806 OFFCURVE",
"313 817 OFFCURVE",
"347 817 CURVE SMOOTH",
"411 817 OFFCURVE",
"451 767 OFFCURVE",
"524 767 CURVE SMOOTH",
"563 767 OFFCURVE",
"596 778 OFFCURVE",
"617 811 CURVE",
"617 862 LINE",
"590 820 OFFCURVE",
"559 809 OFFCURVE",
"524 809 CURVE SMOOTH",
"459 809 OFFCURVE",
"415 859 OFFCURVE",
"347 859 CURVE SMOOTH",
"309 859 OFFCURVE",
"275 847 OFFCURVE",
"254 815 CURVE",
"254 764 LINE"
);
}
);
width = 843;
}
);
leftKerningGroup = O;
note = Ohorntilde;
rightKerningGroup = O;
unicode = 1EE0;
},
{
glyphname = Ohungarumlaut;
lastChange = "2015-11-29 23:41:37 +0000";
layers = (
{
layerId = "FFDA6A0D-11B9-4032-BFBB-EDC4FF23EF93";
name = Light;
paths = (
{
closed = 1;
nodes = (
"625 -15 OFFCURVE",
"782 131 OFFCURVE",
"782 349 CURVE SMOOTH",
"782 568 OFFCURVE",
"625 714 OFFCURVE",
"418 714 CURVE SMOOTH",
"212 714 OFFCURVE",
"55 568 OFFCURVE",
"55 349 CURVE SMOOTH",
"55 131 OFFCURVE",
"212 -15 OFFCURVE",
"418 -15 CURVE SMOOTH"
);
},
{
closed = 1;
nodes = (
"246 32 OFFCURVE",
"107 153 OFFCURVE",
"107 349 CURVE SMOOTH",
"107 543 OFFCURVE",
"244 666 OFFCURVE",
"418 666 CURVE SMOOTH",
"593 667 OFFCURVE",
"730 543 OFFCURVE",
"730 349 CURVE SMOOTH",
"730 153 OFFCURVE",
"590 32 OFFCURVE",
"418 32 CURVE SMOOTH"
);
},
{
closed = 1;
nodes = (
"336 760 LINE",
"414 929 LINE",
"360 929 LINE",
"290 760 LINE"
);
},
{
closed = 1;
nodes = (
"514 760 LINE",
"593 929 LINE",
"538 929 LINE",
"469 760 LINE"
);
}
);
width = 837;
}
);
leftKerningGroup = O;
note = Ohungarumlaut;
rightKerningGroup = O;
unicode = 0150;
},
{
glyphname = Omacron;
lastChange = "2015-11-29 23:41:39 +0000";
layers = (
{
layerId = "FFDA6A0D-11B9-4032-BFBB-EDC4FF23EF93";
name = Light;
paths = (
{
closed = 1;
nodes = (
"625 -15 OFFCURVE",
"782 131 OFFCURVE",
"782 349 CURVE SMOOTH",
"782 568 OFFCURVE",
"625 714 OFFCURVE",
"418 714 CURVE SMOOTH",
"212 714 OFFCURVE",
"55 568 OFFCURVE",
"55 349 CURVE SMOOTH",
"55 131 OFFCURVE",
"212 -15 OFFCURVE",
"418 -15 CURVE SMOOTH"
);
},
{
closed = 1;
nodes = (
"246 32 OFFCURVE",
"107 153 OFFCURVE",
"107 349 CURVE SMOOTH",
"107 543 OFFCURVE",
"244 666 OFFCURVE",
"418 666 CURVE SMOOTH",
"593 667 OFFCURVE",
"730 543 OFFCURVE",
"730 349 CURVE SMOOTH",
"730 153 OFFCURVE",
"590 32 OFFCURVE",
"418 32 CURVE SMOOTH"
);
},
{
closed = 1;
nodes = (
"554 787 LINE",
"554 826 LINE",
"265 826 LINE",
"265 787 LINE"
);
}
);
width = 837;
}
);
leftKerningGroup = O;
note = Omacron;
rightKerningGroup = O;
unicode = 014C;
},
{
glyphname = Oslash;
lastChange = "2015-11-29 23:41:39 +0000";
layers = (
{
layerId = "FFDA6A0D-11B9-4032-BFBB-EDC4FF23EF93";
name = Light;
paths = (
{
closed = 1;
nodes = (
"275 -86 LINE",
"309 0 LINE",
"343 -10 OFFCURVE",
"380 -15 OFFCURVE",
"418 -15 CURVE SMOOTH",
"625 -15 OFFCURVE",
"782 131 OFFCURVE",
"782 349 CURVE SMOOTH",
"782 504 OFFCURVE",
"703 623 OFFCURVE",
"583 679 CURVE",
"625 784 LINE",
"573 784 LINE",
"537 696 LINE",
"500 708 OFFCURVE",
"460 714 OFFCURVE",
"418 714 CURVE SMOOTH",
"212 714 OFFCURVE",
"55 568 OFFCURVE",
"55 349 CURVE SMOOTH",
"55 190 OFFCURVE",
"138 69 OFFCURVE",
"264 15 CURVE",
"223 -86 LINE"
);
},
{
closed = 1;
nodes = (
"178 107 OFFCURVE",
"107 208 OFFCURVE",
"107 349 CURVE SMOOTH",
"107 543 OFFCURVE",
"244 666 OFFCURVE",
"418 666 CURVE SMOOTH",
"453 666 OFFCURVE",
"488 661 OFFCURVE",
"519 651 CURVE",
"282 60 LINE"
);
},
{
closed = 1;
nodes = (
"386 32 OFFCURVE",
"356 36 OFFCURVE",
"327 44 CURVE",
"564 633 LINE",
"663 585 OFFCURVE",
"730 484 OFFCURVE",
"730 349 CURVE SMOOTH",
"730 153 OFFCURVE",
"590 32 OFFCURVE",
"418 32 CURVE SMOOTH"
);
}
);
width = 837;
}
);
leftKerningGroup = O;
note = Oslash;
rightKerningGroup = O;
unicode = 00D8;
},
{
glyphname = Oslashacute;
lastChange = "2015-11-29 23:41:39 +0000";
layers = (
{
layerId = "FFDA6A0D-11B9-4032-BFBB-EDC4FF23EF93";
name = Light;
paths = (
{
closed = 1;
nodes = (
"275 -86 LINE",
"309 0 LINE",
"343 -10 OFFCURVE",
"380 -15 OFFCURVE",
"418 -15 CURVE SMOOTH",
"625 -15 OFFCURVE",
"782 131 OFFCURVE",
"782 349 CURVE SMOOTH",
"782 504 OFFCURVE",
"703 623 OFFCURVE",
"583 679 CURVE",
"625 784 LINE",
"573 784 LINE",
"537 696 LINE",
"500 708 OFFCURVE",
"460 714 OFFCURVE",
"418 714 CURVE SMOOTH",
"212 714 OFFCURVE",
"55 568 OFFCURVE",
"55 349 CURVE SMOOTH",
"55 190 OFFCURVE",
"138 69 OFFCURVE",
"264 15 CURVE",
"223 -86 LINE"
);
},
{
closed = 1;
nodes = (
"178 107 OFFCURVE",
"107 208 OFFCURVE",
"107 349 CURVE SMOOTH",
"107 543 OFFCURVE",
"244 666 OFFCURVE",
"418 666 CURVE SMOOTH",
"453 666 OFFCURVE",
"488 661 OFFCURVE",
"519 651 CURVE",
"282 60 LINE"
);
},
{
closed = 1;
nodes = (
"386 32 OFFCURVE",
"356 36 OFFCURVE",
"327 44 CURVE",
"564 633 LINE",
"663 585 OFFCURVE",
"730 484 OFFCURVE",
"730 349 CURVE SMOOTH",
"730 153 OFFCURVE",
"590 32 OFFCURVE",
"418 32 CURVE SMOOTH"
);
},
{
closed = 1;
nodes = (
"446 761 LINE",
"525 930 LINE",
"470 930 LINE",
"401 761 LINE"
);
}
);
width = 837;
}
);
leftKerningGroup = O;
note = Oslashacute;
rightKerningGroup = O;
unicode = 01FE;
},
{
glyphname = Otilde;
lastChange = "2015-11-29 23:41:39 +0000";
layers = (
{
layerId = "FFDA6A0D-11B9-4032-BFBB-EDC4FF23EF93";
name = Light;
paths = (
{
closed = 1;
nodes = (
"625 -15 OFFCURVE",
"782 131 OFFCURVE",
"782 349 CURVE SMOOTH",
"782 568 OFFCURVE",
"625 714 OFFCURVE",
"418 714 CURVE SMOOTH",
"212 714 OFFCURVE",
"55 568 OFFCURVE",
"55 349 CURVE SMOOTH",
"55 131 OFFCURVE",
"212 -15 OFFCURVE",
"418 -15 CURVE SMOOTH"
);
},
{
closed = 1;
nodes = (
"246 32 OFFCURVE",
"107 153 OFFCURVE",
"107 349 CURVE SMOOTH",
"107 543 OFFCURVE",
"244 666 OFFCURVE",
"418 666 CURVE SMOOTH",
"593 667 OFFCURVE",
"730 543 OFFCURVE",
"730 349 CURVE SMOOTH",
"730 153 OFFCURVE",
"590 32 OFFCURVE",
"418 32 CURVE SMOOTH"
);
},
{
closed = 1;
nodes = (
"266 818 OFFCURVE",
"296 829 OFFCURVE",
"330 829 CURVE SMOOTH",
"394 829 OFFCURVE",
"434 779 OFFCURVE",
"507 779 CURVE SMOOTH",
"546 779 OFFCURVE",
"579 790 OFFCURVE",
"600 823 CURVE",
"600 874 LINE",
"573 832 OFFCURVE",
"542 821 OFFCURVE",
"507 821 CURVE SMOOTH",
"442 821 OFFCURVE",
"398 871 OFFCURVE",
"330 871 CURVE SMOOTH",
"292 871 OFFCURVE",
"258 859 OFFCURVE",
"237 827 CURVE",
"237 776 LINE"
);
}
);
width = 837;
}
);
leftKerningGroup = O;
note = Otilde;
rightKerningGroup = O;
unicode = 00D5;
},
{
glyphname = OE;
lastChange = "2015-11-29 23:41:39 +0000";
layers = (
{
layerId = "FFDA6A0D-11B9-4032-BFBB-EDC4FF23EF93";
name = Light;
paths = (
{
closed = 1;
nodes = (
"832 0 LINE",
"832 45 LINE",
"503 45 LINE",
"503 327 LINE",
"738 327 LINE",
"738 372 LINE",
"503 372 LINE",
"503 654 LINE",
"832 654 LINE",
"832 699 LINE",
"421 699 LINE SMOOTH",
"213 699 OFFCURVE",
"55 568 OFFCURVE",
"55 349 CURVE SMOOTH",
"55 131 OFFCURVE",
"213 0 OFFCURVE",
"421 0 CURVE SMOOTH"
);
},
{
closed = 1;
nodes = (
"248 45 OFFCURVE",
"107 153 OFFCURVE",
"107 349 CURVE SMOOTH",
"107 544 OFFCURVE",
"245 654 OFFCURVE",
"419 654 CURVE SMOOTH",
"450 654 LINE",
"450 45 LINE",
"419 45 LINE SMOOTH"
);
}
);
width = 887;
}
);
leftKerningGroup = O;
note = OE;
rightKerningGroup = E;
unicode = 0152;
},
{
glyphname = P;
lastChange = "2015-11-29 23:41:39 +0000";
layers = (
{
layerId = "FFDA6A0D-11B9-4032-BFBB-EDC4FF23EF93";
name = Light;
paths = (
{
closed = 1;
nodes = (
"128 0 LINE",
"128 310 LINE",
"324 310 LINE SMOOTH",
"464 310 OFFCURVE",
"546 369 OFFCURVE",
"546 504 CURVE SMOOTH",
"546 639 OFFCURVE",
"464 699 OFFCURVE",
"324 699 CURVE SMOOTH",
"75 699 LINE",
"75 0 LINE"
);
},
{
closed = 1;
nodes = (
"128 654 LINE",
"322 654 LINE SMOOTH",
"418 654 OFFCURVE",
"494 626 OFFCURVE",
"494 504 CURVE SMOOTH",
"494 383 OFFCURVE",
"418 355 OFFCURVE",
"322 355 CURVE SMOOTH",
"128 355 LINE"
);
}
);
width = 581;
}
);
note = P;
unicode = 0050;
},
{
glyphname = Thorn;
lastChange = "2015-11-29 23:41:39 +0000";
layers = (
{
layerId = "FFDA6A0D-11B9-4032-BFBB-EDC4FF23EF93";
name = Light;
paths = (
{
closed = 1;
nodes = (
"128 0 LINE",
"128 158 LINE",
"326 158 LINE SMOOTH",
"466 158 OFFCURVE",
"546 214 OFFCURVE",
"546 350 CURVE SMOOTH",
"546 486 OFFCURVE",
"466 542 OFFCURVE",
"326 542 CURVE SMOOTH",
"128 542 LINE",
"128 699 LINE",
"75 699 LINE",
"75 0 LINE"
);
},
{
closed = 1;
nodes = (
"128 497 LINE",
"322 497 LINE SMOOTH",
"418 497 OFFCURVE",
"494 471 OFFCURVE",
"494 350 CURVE SMOOTH",
"494 229 OFFCURVE",
"418 203 OFFCURVE",
"322 203 CURVE SMOOTH",
"128 203 LINE"
);
}
);
width = 591;
}
);
note = Thorn;
unicode = 00DE;
},
{
glyphname = Q;
lastChange = "2015-11-29 23:41:37 +0000";
layers = (
{
layerId = "FFDA6A0D-11B9-4032-BFBB-EDC4FF23EF93";
name = Light;
paths = (
{
closed = 1;
nodes = (
"788 0 LINE",
"788 45 LINE",
"581 45 LINE",
"703 92 OFFCURVE",
"781 200 OFFCURVE",
"781 349 CURVE SMOOTH",
"781 568 OFFCURVE",
"624 714 OFFCURVE",
"418 714 CURVE SMOOTH",
"212 714 OFFCURVE",
"55 568 OFFCURVE",
"55 349 CURVE SMOOTH",
"55 137 OFFCURVE",
"210 0 OFFCURVE",
"430 0 CURVE SMOOTH"
);
},
{
closed = 1;
nodes = (
"244 48 OFFCURVE",
"107 154 OFFCURVE",
"107 349 CURVE SMOOTH",
"107 543 OFFCURVE",
"245 666 OFFCURVE",
"418 666 CURVE SMOOTH",
"591 666 OFFCURVE",
"729 543 OFFCURVE",
"729 349 CURVE SMOOTH",
"729 155 OFFCURVE",
"589 48 OFFCURVE",
"418 48 CURVE SMOOTH"
);
}
);
width = 833;
}
);
leftKerningGroup = O;
note = Q;
rightKerningGroup = O;
unicode = 0051;
},
{
glyphname = R;
lastChange = "2015-11-29 23:41:38 +0000";
layers = (
{
layerId = "FFDA6A0D-11B9-4032-BFBB-EDC4FF23EF93";
name = Light;
paths = (
{
closed = 1;
nodes = (
"128 0 LINE",
"128 318 LINE",
"312 318 LINE",
"490 0 LINE",
"545 0 LINE",
"366 319 LINE",
"484 331 OFFCURVE",
"546 408 OFFCURVE",
"546 507 CURVE SMOOTH",
"546 634 OFFCURVE",
"475 699 OFFCURVE",
"334 699 CURVE SMOOTH",
"75 699 LINE",
"75 0 LINE"
);
},
{
closed = 1;
nodes = (
"128 654 LINE",
"331 654 LINE SMOOTH",
"427 654 OFFCURVE",
"494 620 OFFCURVE",
"494 507 CURVE SMOOTH",
"494 412 OFFCURVE",
"430 363 OFFCURVE",
"330 363 CURVE SMOOTH",
"128 363 LINE"
);
}
);
width = 601;
}
);
note = R;
rightKerningGroup = R;
unicode = 0052;
},
{
glyphname = Racute;
lastChange = "2015-11-29 23:41:39 +0000";
layers = (
{
layerId = "FFDA6A0D-11B9-4032-BFBB-EDC4FF23EF93";
name = Light;
paths = (
{
closed = 1;
nodes = (
"128 0 LINE",
"128 318 LINE",
"312 318 LINE",
"490 0 LINE",
"545 0 LINE",
"366 319 LINE",
"484 331 OFFCURVE",
"546 408 OFFCURVE",
"546 507 CURVE SMOOTH",
"546 634 OFFCURVE",
"475 699 OFFCURVE",
"334 699 CURVE SMOOTH",
"75 699 LINE",
"75 0 LINE"
);
},
{
closed = 1;
nodes = (
"128 654 LINE",
"331 654 LINE SMOOTH",
"427 654 OFFCURVE",
"494 620 OFFCURVE",
"494 507 CURVE SMOOTH",
"494 412 OFFCURVE",
"430 363 OFFCURVE",
"330 363 CURVE SMOOTH",
"128 363 LINE"
);
},
{
closed = 1;
nodes = (
"279 760 LINE",
"357 929 LINE",
"303 929 LINE",
"233 760 LINE"
);
}
);
width = 601;
}
);
note = Racute;
rightKerningGroup = R;
unicode = 0154;
},
{
glyphname = Rcaron;
lastChange = "2015-11-29 23:41:38 +0000";
layers = (
{
layerId = "FFDA6A0D-11B9-4032-BFBB-EDC4FF23EF93";
name = Light;
paths = (
{
closed = 1;
nodes = (
"128 0 LINE",
"128 318 LINE",
"312 318 LINE",
"490 0 LINE",
"545 0 LINE",
"366 319 LINE",
"484 331 OFFCURVE",
"546 408 OFFCURVE",
"546 507 CURVE SMOOTH",
"546 634 OFFCURVE",
"475 699 OFFCURVE",
"334 699 CURVE SMOOTH",
"75 699 LINE",
"75 0 LINE"
);
},
{
closed = 1;
nodes = (
"128 654 LINE",
"331 654 LINE SMOOTH",
"427 654 OFFCURVE",
"494 620 OFFCURVE",
"494 507 CURVE SMOOTH",
"494 412 OFFCURVE",
"430 363 OFFCURVE",
"330 363 CURVE SMOOTH",
"128 363 LINE"
);
},
{
closed = 1;
nodes = (
"304 763 LINE",
"436 919 LINE",
"382 919 LINE",
"282 798 LINE",
"182 919 LINE",
"127 919 LINE",
"259 763 LINE"
);
}
);
width = 601;
}
);
note = Rcaron;
rightKerningGroup = R;
unicode = 0158;
},
{
glyphname = Rcommaaccent;
lastChange = "2015-11-29 23:41:39 +0000";
layers = (
{
layerId = "FFDA6A0D-11B9-4032-BFBB-EDC4FF23EF93";
name = Light;
paths = (
{
closed = 1;
nodes = (
"128 0 LINE",
"128 318 LINE",
"312 318 LINE",
"490 0 LINE",
"545 0 LINE",
"366 319 LINE",
"484 331 OFFCURVE",
"546 408 OFFCURVE",
"546 507 CURVE SMOOTH",
"546 634 OFFCURVE",
"475 699 OFFCURVE",
"334 699 CURVE SMOOTH",
"75 699 LINE",
"75 0 LINE"
);
},
{
closed = 1;
nodes = (
"226 -260 LINE",
"314 -67 LINE",
"258 -67 LINE",
"179 -260 LINE"
);
},
{
closed = 1;
nodes = (
"128 654 LINE",
"331 654 LINE SMOOTH",
"427 654 OFFCURVE",
"494 620 OFFCURVE",
"494 507 CURVE SMOOTH",
"494 412 OFFCURVE",
"430 363 OFFCURVE",
"330 363 CURVE SMOOTH",
"128 363 LINE"
);
}
);
width = 601;
}
);
note = Rcommaaccent;
rightKerningGroup = R;
unicode = 0156;
},
{
glyphname = Rdotbelow;
lastChange = "2015-11-29 23:41:38 +0000";
layers = (
{
layerId = "FFDA6A0D-11B9-4032-BFBB-EDC4FF23EF93";
name = Light;
paths = (
{
closed = 1;
nodes = (
"128 0 LINE",
"128 318 LINE",
"312 318 LINE",
"490 0 LINE",
"545 0 LINE",
"366 319 LINE",
"484 331 OFFCURVE",
"546 408 OFFCURVE",
"546 507 CURVE SMOOTH",
"546 634 OFFCURVE",
"475 699 OFFCURVE",
"334 699 CURVE SMOOTH",
"75 699 LINE",
"75 0 LINE"
);
},
{
closed = 1;
nodes = (
"312 -137 OFFCURVE",
"330 -119 OFFCURVE",
"330 -98 CURVE SMOOTH",
"330 -77 OFFCURVE",
"312 -60 OFFCURVE",
"292 -60 CURVE SMOOTH",
"271 -60 OFFCURVE",
"253 -77 OFFCURVE",
"253 -98 CURVE SMOOTH",
"253 -119 OFFCURVE",
"271 -137 OFFCURVE",
"292 -137 CURVE SMOOTH"
);
},
{
closed = 1;
nodes = (
"128 654 LINE",
"331 654 LINE SMOOTH",
"427 654 OFFCURVE",
"494 620 OFFCURVE",
"494 507 CURVE SMOOTH",
"494 412 OFFCURVE",
"430 363 OFFCURVE",
"330 363 CURVE SMOOTH",
"128 363 LINE"
);
}
);
width = 601;
}
);
note = Rdotbelow;
rightKerningGroup = R;
unicode = 1E5A;
},
{
glyphname = Rdotbelowmacron;
lastChange = "2015-11-29 23:41:38 +0000";
layers = (
{
layerId = "FFDA6A0D-11B9-4032-BFBB-EDC4FF23EF93";
name = Light;
paths = (
{
closed = 1;
nodes = (
"128 0 LINE",
"128 318 LINE",
"312 318 LINE",
"490 0 LINE",
"545 0 LINE",
"366 319 LINE",
"484 331 OFFCURVE",
"546 408 OFFCURVE",
"546 507 CURVE SMOOTH",
"546 634 OFFCURVE",
"475 699 OFFCURVE",
"334 699 CURVE SMOOTH",
"75 699 LINE",
"75 0 LINE"
);
},
{
closed = 1;
nodes = (
"289 -137 OFFCURVE",
"307 -119 OFFCURVE",
"307 -98 CURVE SMOOTH",
"307 -77 OFFCURVE",
"289 -60 OFFCURVE",
"269 -60 CURVE SMOOTH",
"248 -60 OFFCURVE",
"230 -77 OFFCURVE",
"230 -98 CURVE SMOOTH",
"230 -119 OFFCURVE",
"248 -137 OFFCURVE",
"269 -137 CURVE SMOOTH"
);
},
{
closed = 1;
nodes = (
"128 654 LINE",
"331 654 LINE SMOOTH",
"427 654 OFFCURVE",
"494 620 OFFCURVE",
"494 507 CURVE SMOOTH",
"494 412 OFFCURVE",
"430 363 OFFCURVE",
"330 363 CURVE SMOOTH",
"128 363 LINE"
);
},
{
closed = 1;
nodes = (
"415 799 LINE",
"415 838 LINE",
"126 838 LINE",
"126 799 LINE"
);
}
);
width = 601;
}
);
note = Rdotbelowmacron;
rightKerningGroup = R;
unicode = 1E5C;
},
{
glyphname = Rlinebelow;
lastChange = "2015-11-29 23:41:38 +0000";
layers = (
{
layerId = "FFDA6A0D-11B9-4032-BFBB-EDC4FF23EF93";
name = Light;
paths = (
{
closed = 1;
nodes = (
"128 0 LINE",
"128 318 LINE",
"312 318 LINE",
"490 0 LINE",
"545 0 LINE",
"366 319 LINE",
"484 331 OFFCURVE",
"546 408 OFFCURVE",
"546 507 CURVE SMOOTH",
"546 634 OFFCURVE",
"475 699 OFFCURVE",
"334 699 CURVE SMOOTH",
"75 699 LINE",
"75 0 LINE"
);
},
{
closed = 1;
nodes = (
"425 -121 LINE",
"425 -80 LINE",
"134 -80 LINE",
"134 -121 LINE"
);
},
{
closed = 1;
nodes = (
"128 654 LINE",
"331 654 LINE SMOOTH",
"427 654 OFFCURVE",
"494 620 OFFCURVE",
"494 507 CURVE SMOOTH",
"494 412 OFFCURVE",
"430 363 OFFCURVE",
"330 363 CURVE SMOOTH",
"128 363 LINE"
);
}
);
width = 601;
}
);
note = Rlinebelow;
rightKerningGroup = R;
unicode = 1E5E;
},
{
glyphname = S;
lastChange = "2015-11-29 23:41:34 +0000";
layers = (
{
layerId = "FFDA6A0D-11B9-4032-BFBB-EDC4FF23EF93";
name = Light;
paths = (
{
closed = 1;
nodes = (
"413 -15 OFFCURVE",
"494 51 OFFCURVE",
"494 166 CURVE SMOOTH",
"494 290 OFFCURVE",
"417 326 OFFCURVE",
"292 373 CURVE SMOOTH",
"161 423 OFFCURVE",
"115 462 OFFCURVE",
"115 540 CURVE SMOOTH",
"115 615 OFFCURVE",
"174 667 OFFCURVE",
"288 667 CURVE SMOOTH",
"354 667 OFFCURVE",
"408 655 OFFCURVE",
"464 632 CURVE",
"464 680 LINE",
"408 703 OFFCURVE",
"354 714 OFFCURVE",
"283 714 CURVE SMOOTH",
"151 714 OFFCURVE",
"63 645 OFFCURVE",
"63 540 CURVE SMOOTH",
"63 441 OFFCURVE",
"121 387 OFFCURVE",
"251 337 CURVE SMOOTH",
"386 285 OFFCURVE",
"442 259 OFFCURVE",
"442 166 CURVE SMOOTH",
"442 78 OFFCURVE",
"383 32 OFFCURVE",
"251 32 CURVE SMOOTH",
"183 32 OFFCURVE",
"116 43 OFFCURVE",
"55 69 CURVE",
"55 19 LINE",
"101 -2 OFFCURVE",
"178 -15 OFFCURVE",
"253 -15 CURVE SMOOTH"
);
}
);
width = 549;
}
);
leftKerningGroup = S;
note = S;
rightKerningGroup = S;
unicode = 0053;
},
{
glyphname = Sacute;
lastChange = "2015-11-29 23:41:39 +0000";
layers = (
{
layerId = "FFDA6A0D-11B9-4032-BFBB-EDC4FF23EF93";
name = Light;
paths = (
{
closed = 1;
nodes = (
"413 -15 OFFCURVE",
"494 51 OFFCURVE",
"494 166 CURVE SMOOTH",
"494 290 OFFCURVE",
"417 326 OFFCURVE",
"292 373 CURVE SMOOTH",
"161 423 OFFCURVE",
"115 462 OFFCURVE",
"115 540 CURVE SMOOTH",
"115 615 OFFCURVE",
"174 667 OFFCURVE",
"288 667 CURVE SMOOTH",
"354 667 OFFCURVE",
"408 655 OFFCURVE",
"464 632 CURVE",
"464 680 LINE",
"408 703 OFFCURVE",
"354 714 OFFCURVE",
"283 714 CURVE SMOOTH",
"151 714 OFFCURVE",
"63 645 OFFCURVE",
"63 540 CURVE SMOOTH",
"63 441 OFFCURVE",
"121 387 OFFCURVE",
"251 337 CURVE SMOOTH",
"386 285 OFFCURVE",
"442 259 OFFCURVE",
"442 166 CURVE SMOOTH",
"442 78 OFFCURVE",
"383 32 OFFCURVE",
"251 32 CURVE SMOOTH",
"183 32 OFFCURVE",
"116 43 OFFCURVE",
"55 69 CURVE",
"55 19 LINE",
"101 -2 OFFCURVE",
"178 -15 OFFCURVE",
"253 -15 CURVE SMOOTH"
);
},
{
closed = 1;
nodes = (
"299 760 LINE",
"377 929 LINE",
"323 929 LINE",
"253 760 LINE"
);
}
);
width = 549;
}
);
leftKerningGroup = S;
note = Sacute;
rightKerningGroup = S;
unicode = 015A;
},
{
glyphname = Scaron;
lastChange = "2015-11-29 23:41:39 +0000";
layers = (
{
layerId = "FFDA6A0D-11B9-4032-BFBB-EDC4FF23EF93";
name = Light;
paths = (
{
closed = 1;
nodes = (
"413 -15 OFFCURVE",
"494 51 OFFCURVE",
"494 166 CURVE SMOOTH",
"494 290 OFFCURVE",
"417 326 OFFCURVE",
"292 373 CURVE SMOOTH",
"161 423 OFFCURVE",
"115 462 OFFCURVE",
"115 540 CURVE SMOOTH",
"115 615 OFFCURVE",
"174 667 OFFCURVE",
"288 667 CURVE SMOOTH",
"354 667 OFFCURVE",
"408 655 OFFCURVE",
"464 632 CURVE",
"464 680 LINE",
"408 703 OFFCURVE",
"354 714 OFFCURVE",
"283 714 CURVE SMOOTH",
"151 714 OFFCURVE",
"63 645 OFFCURVE",
"63 540 CURVE SMOOTH",
"63 441 OFFCURVE",
"121 387 OFFCURVE",
"251 337 CURVE SMOOTH",
"386 285 OFFCURVE",
"442 259 OFFCURVE",
"442 166 CURVE SMOOTH",
"442 78 OFFCURVE",
"383 32 OFFCURVE",
"251 32 CURVE SMOOTH",
"183 32 OFFCURVE",
"116 43 OFFCURVE",
"55 69 CURVE",
"55 19 LINE",
"101 -2 OFFCURVE",
"178 -15 OFFCURVE",
"253 -15 CURVE SMOOTH"
);
},
{
closed = 1;
nodes = (
"322 769 LINE",
"454 925 LINE",
"400 925 LINE",
"300 804 LINE",
"200 925 LINE",
"145 925 LINE",
"277 769 LINE"
);
}
);
width = 549;
}
);
leftKerningGroup = S;
note = Scaron;
rightKerningGroup = S;
unicode = 0160;
},
{
glyphname = Scedilla;
lastChange = "2015-11-29 23:41:38 +0000";
layers = (
{
layerId = "FFDA6A0D-11B9-4032-BFBB-EDC4FF23EF93";
name = Light;
paths = (
{
closed = 1;
nodes = (
"413 -15 OFFCURVE",
"494 51 OFFCURVE",
"494 166 CURVE SMOOTH",
"494 290 OFFCURVE",
"417 326 OFFCURVE",
"292 373 CURVE SMOOTH",
"161 423 OFFCURVE",
"115 462 OFFCURVE",
"115 540 CURVE SMOOTH",
"115 615 OFFCURVE",
"174 667 OFFCURVE",
"288 667 CURVE SMOOTH",
"354 667 OFFCURVE",
"408 655 OFFCURVE",
"464 632 CURVE",
"464 680 LINE",
"408 703 OFFCURVE",
"354 714 OFFCURVE",
"283 714 CURVE SMOOTH",
"151 714 OFFCURVE",
"63 645 OFFCURVE",
"63 540 CURVE SMOOTH",
"63 441 OFFCURVE",
"121 387 OFFCURVE",
"251 337 CURVE SMOOTH",
"386 285 OFFCURVE",
"442 259 OFFCURVE",
"442 166 CURVE SMOOTH",
"442 78 OFFCURVE",
"383 32 OFFCURVE",
"251 32 CURVE SMOOTH",
"183 32 OFFCURVE",
"116 43 OFFCURVE",
"55 69 CURVE",
"55 19 LINE",
"101 -2 OFFCURVE",
"178 -15 OFFCURVE",
"253 -15 CURVE SMOOTH"
);
},
{
closed = 1;
nodes = (
"328 -248 OFFCURVE",
"368 -209 OFFCURVE",
"368 -157 CURVE SMOOTH",
"368 -107 OFFCURVE",
"339 -73 OFFCURVE",
"273 -67 CURVE",
"300 0 LINE",
"250 0 LINE",
"215 -93 LINE",
"294 -93 OFFCURVE",
"319 -115 OFFCURVE",
"319 -156 CURVE SMOOTH",
"319 -196 OFFCURVE",
"292 -212 OFFCURVE",
"247 -212 CURVE SMOOTH",
"228 -212 OFFCURVE",
"203 -209 OFFCURVE",
"191 -203 CURVE",
"191 -239 LINE",
"204 -244 OFFCURVE",
"231 -248 OFFCURVE",
"255 -248 CURVE SMOOTH"
);
}
);
width = 549;
}
);
leftKerningGroup = S;
note = Scedilla;
rightKerningGroup = S;
unicode = 015E;
},
{
glyphname = Scircumflex;
lastChange = "2015-11-29 23:41:38 +0000";
layers = (
{
layerId = "FFDA6A0D-11B9-4032-BFBB-EDC4FF23EF93";
name = Light;
paths = (
{
closed = 1;
nodes = (
"413 -15 OFFCURVE",
"494 51 OFFCURVE",
"494 166 CURVE SMOOTH",
"494 290 OFFCURVE",
"417 326 OFFCURVE",
"292 373 CURVE SMOOTH",
"161 423 OFFCURVE",
"115 462 OFFCURVE",
"115 540 CURVE SMOOTH",
"115 615 OFFCURVE",
"174 667 OFFCURVE",
"288 667 CURVE SMOOTH",
"354 667 OFFCURVE",
"408 655 OFFCURVE",
"464 632 CURVE",
"464 680 LINE",
"408 703 OFFCURVE",
"354 714 OFFCURVE",
"283 714 CURVE SMOOTH",
"151 714 OFFCURVE",
"63 645 OFFCURVE",
"63 540 CURVE SMOOTH",
"63 441 OFFCURVE",
"121 387 OFFCURVE",
"251 337 CURVE SMOOTH",
"386 285 OFFCURVE",
"442 259 OFFCURVE",
"442 166 CURVE SMOOTH",
"442 78 OFFCURVE",
"383 32 OFFCURVE",
"251 32 CURVE SMOOTH",
"183 32 OFFCURVE",
"116 43 OFFCURVE",
"55 69 CURVE",
"55 19 LINE",
"101 -2 OFFCURVE",
"178 -15 OFFCURVE",
"253 -15 CURVE SMOOTH"
);
},
{
closed = 1;
nodes = (
"183 764 LINE",
"283 885 LINE",
"383 764 LINE",
"437 764 LINE",
"305 920 LINE",
"260 920 LINE",
"128 764 LINE"
);
}
);
width = 549;
}
);
leftKerningGroup = S;
note = Scircumflex;
rightKerningGroup = S;
unicode = 015C;
},
{
glyphname = Scommaaccent;
lastChange = "2015-11-29 23:41:38 +0000";
layers = (
{
layerId = "FFDA6A0D-11B9-4032-BFBB-EDC4FF23EF93";
name = Light;
paths = (
{
closed = 1;
nodes = (
"413 -15 OFFCURVE",
"494 51 OFFCURVE",
"494 166 CURVE SMOOTH",
"494 290 OFFCURVE",
"417 326 OFFCURVE",
"292 373 CURVE SMOOTH",
"161 423 OFFCURVE",
"115 462 OFFCURVE",
"115 540 CURVE SMOOTH",
"115 615 OFFCURVE",
"174 667 OFFCURVE",
"288 667 CURVE SMOOTH",
"354 667 OFFCURVE",
"408 655 OFFCURVE",
"464 632 CURVE",
"464 680 LINE",
"408 703 OFFCURVE",
"354 714 OFFCURVE",
"283 714 CURVE SMOOTH",
"151 714 OFFCURVE",
"63 645 OFFCURVE",
"63 540 CURVE SMOOTH",
"63 441 OFFCURVE",
"121 387 OFFCURVE",
"251 337 CURVE SMOOTH",
"386 285 OFFCURVE",
"442 259 OFFCURVE",
"442 166 CURVE SMOOTH",
"442 78 OFFCURVE",
"383 32 OFFCURVE",
"251 32 CURVE SMOOTH",
"183 32 OFFCURVE",
"116 43 OFFCURVE",
"55 69 CURVE",
"55 19 LINE",
"101 -2 OFFCURVE",
"178 -15 OFFCURVE",
"253 -15 CURVE SMOOTH"
);
},
{
closed = 1;
nodes = (
"225 -259 LINE",
"314 -67 LINE",
"258 -67 LINE",
"178 -259 LINE"
);
}
);
width = 549;
}
);
leftKerningGroup = S;
note = Scommaaccent;
rightKerningGroup = S;
unicode = 0218;
},
{
glyphname = Sdotaccent;
lastChange = "2015-11-29 23:41:39 +0000";
layers = (
{
layerId = "FFDA6A0D-11B9-4032-BFBB-EDC4FF23EF93";
name = Light;
paths = (
{
closed = 1;
nodes = (
"413 -15 OFFCURVE",
"494 51 OFFCURVE",
"494 166 CURVE SMOOTH",
"494 290 OFFCURVE",
"417 326 OFFCURVE",
"292 373 CURVE SMOOTH",
"161 423 OFFCURVE",
"115 462 OFFCURVE",
"115 540 CURVE SMOOTH",
"115 615 OFFCURVE",
"174 667 OFFCURVE",
"288 667 CURVE SMOOTH",
"354 667 OFFCURVE",
"408 655 OFFCURVE",
"464 632 CURVE",
"464 680 LINE",
"408 703 OFFCURVE",
"354 714 OFFCURVE",
"283 714 CURVE SMOOTH",
"151 714 OFFCURVE",
"63 645 OFFCURVE",
"63 540 CURVE SMOOTH",
"63 441 OFFCURVE",
"121 387 OFFCURVE",
"251 337 CURVE SMOOTH",
"386 285 OFFCURVE",
"442 259 OFFCURVE",
"442 166 CURVE SMOOTH",
"442 78 OFFCURVE",
"383 32 OFFCURVE",
"251 32 CURVE SMOOTH",
"183 32 OFFCURVE",
"116 43 OFFCURVE",
"55 69 CURVE",
"55 19 LINE",
"101 -2 OFFCURVE",
"178 -15 OFFCURVE",
"253 -15 CURVE SMOOTH"
);
},
{
closed = 1;
nodes = (
"313 765 OFFCURVE",
"331 783 OFFCURVE",
"331 804 CURVE SMOOTH",
"331 825 OFFCURVE",
"313 842 OFFCURVE",
"293 842 CURVE SMOOTH",
"272 842 OFFCURVE",
"254 825 OFFCURVE",
"254 804 CURVE SMOOTH",
"254 783 OFFCURVE",
"272 765 OFFCURVE",
"293 765 CURVE SMOOTH"
);
}
);
width = 549;
}
);
leftKerningGroup = S;
note = Sdotaccent;
rightKerningGroup = S;
unicode = 1E60;
},
{
glyphname = Sdotbelow;
lastChange = "2015-11-29 23:41:39 +0000";
layers = (
{
layerId = "FFDA6A0D-11B9-4032-BFBB-EDC4FF23EF93";
name = Light;
paths = (
{
closed = 1;
nodes = (
"413 -15 OFFCURVE",
"494 51 OFFCURVE",
"494 166 CURVE SMOOTH",
"494 290 OFFCURVE",
"417 326 OFFCURVE",
"292 373 CURVE SMOOTH",
"161 423 OFFCURVE",
"115 462 OFFCURVE",
"115 540 CURVE SMOOTH",
"115 615 OFFCURVE",
"174 667 OFFCURVE",
"288 667 CURVE SMOOTH",
"354 667 OFFCURVE",
"408 655 OFFCURVE",
"464 632 CURVE",
"464 680 LINE",
"408 703 OFFCURVE",
"354 714 OFFCURVE",
"283 714 CURVE SMOOTH",
"151 714 OFFCURVE",
"63 645 OFFCURVE",
"63 540 CURVE SMOOTH",
"63 441 OFFCURVE",
"121 387 OFFCURVE",
"251 337 CURVE SMOOTH",
"386 285 OFFCURVE",
"442 259 OFFCURVE",
"442 166 CURVE SMOOTH",
"442 78 OFFCURVE",
"383 32 OFFCURVE",
"251 32 CURVE SMOOTH",
"183 32 OFFCURVE",
"116 43 OFFCURVE",
"55 69 CURVE",
"55 19 LINE",
"101 -2 OFFCURVE",
"178 -15 OFFCURVE",
"253 -15 CURVE SMOOTH"
);
},
{
closed = 1;
nodes = (
"291 -137 OFFCURVE",
"309 -119 OFFCURVE",
"309 -98 CURVE SMOOTH",
"309 -77 OFFCURVE",
"291 -60 OFFCURVE",
"271 -60 CURVE SMOOTH",
"250 -60 OFFCURVE",
"232 -77 OFFCURVE",
"232 -98 CURVE SMOOTH",
"232 -119 OFFCURVE",
"250 -137 OFFCURVE",
"271 -137 CURVE SMOOTH"
);
}
);
width = 549;
}
);
leftKerningGroup = S;
note = Sdotbelow;
rightKerningGroup = S;
unicode = 1E62;
},
{
glyphname = Germandbls;
lastChange = "2015-11-29 23:41:34 +0000";
layers = (
{
layerId = "FFDA6A0D-11B9-4032-BFBB-EDC4FF23EF93";
name = Light;
paths = (
{
closed = 1;
nodes = (
"478 -15 OFFCURVE",
"547 75 OFFCURVE",
"547 194 CURVE SMOOTH",
"547 317 OFFCURVE",
"471 383 OFFCURVE",
"329 388 CURVE",
"478 530 LINE",
"476 629 OFFCURVE",
"410 714 OFFCURVE",
"277 714 CURVE SMOOTH",
"159 714 OFFCURVE",
"70 653 OFFCURVE",
"70 491 CURVE SMOOTH",
"70 0 LINE",
"123 0 LINE",
"123 494 LINE SMOOTH",
"123 626 OFFCURVE",
"197 667 OFFCURVE",
"277 667 CURVE SMOOTH",
"361 667 OFFCURVE",
"420 617 OFFCURVE",
"423 539 CURVE",
"266 387 LINE",
"266 349 LINE",
"303 349 LINE SMOOTH",
"404 349 OFFCURVE",
"495 315 OFFCURVE",
"495 194 CURVE SMOOTH",
"495 88 OFFCURVE",
"436 31 OFFCURVE",
"326 31 CURVE SMOOTH",
"272 31 OFFCURVE",
"236 36 OFFCURVE",
"196 53 CURVE",
"196 5 LINE",
"231 -10 OFFCURVE",
"280 -15 OFFCURVE",
"333 -15 CURVE SMOOTH"
);
}
);
width = 602;
}
);
note = uni1E9E;
unicode = 1E9E;
},
{
glyphname = Schwa;
lastChange = "2015-11-29 23:41:39 +0000";
layers = (
{
layerId = "FFDA6A0D-11B9-4032-BFBB-EDC4FF23EF93";
name = Light;
paths = (
{
closed = 1;
nodes = (
"640 -15 OFFCURVE",
"763 129 OFFCURVE",
"763 349 CURVE SMOOTH",
"763 580 OFFCURVE",
"622 714 OFFCURVE",
"374 714 CURVE SMOOTH",
"285 714 OFFCURVE",
"179 693 OFFCURVE",
"126 671 CURVE",
"126 624 LINE",
"188 649 OFFCURVE",
"279 667 OFFCURVE",
"370 667 CURVE SMOOTH",
"584 667 OFFCURVE",
"705 561 OFFCURVE",
"708 365 CURVE",
"55 365 LINE",
"55 329 LINE SMOOTH",
"55 135 OFFCURVE",
"173 -15 OFFCURVE",
"409 -15 CURVE SMOOTH"
);
},
{
closed = 1;
nodes = (
"199 31 OFFCURVE",
"108 158 OFFCURVE",
"106 323 CURVE",
"709 323 LINE",
"707 159 OFFCURVE",
"614 31 OFFCURVE",
"408 31 CURVE SMOOTH"
);
}
);
width = 818;
}
);
note = uni018F;
unicode = 018F;
},
{
glyphname = T;
lastChange = "2015-11-29 23:41:34 +0000";
layers = (
{
layerId = "FFDA6A0D-11B9-4032-BFBB-EDC4FF23EF93";
name = Light;
paths = (
{
closed = 1;
nodes = (
"319 0 LINE",
"319 654 LINE",
"550 654 LINE",
"550 699 LINE",
"35 699 LINE",
"35 654 LINE",
"266 654 LINE",
"266 0 LINE"
);
}
);
width = 585;
}
);
leftKerningGroup = T;
note = T;
rightKerningGroup = T;
unicode = 0054;
},
{
glyphname = Tbar;
lastChange = "2015-11-29 23:41:34 +0000";
layers = (
{
layerId = "FFDA6A0D-11B9-4032-BFBB-EDC4FF23EF93";
name = Light;
paths = (
{
closed = 1;
nodes = (
"319 0 LINE",
"319 318 LINE",
"455 318 LINE",
"455 362 LINE",
"319 362 LINE",
"319 654 LINE",
"550 654 LINE",
"550 699 LINE",
"35 699 LINE",
"35 654 LINE",
"266 654 LINE",
"266 362 LINE",
"128 362 LINE",
"128 318 LINE",
"266 318 LINE",
"266 0 LINE"
);
}
);
width = 585;
}
);
leftKerningGroup = T;
note = Tbar;
rightKerningGroup = T;
unicode = 0166;
},
{
glyphname = Tcaron;
lastChange = "2015-11-29 23:41:39 +0000";
layers = (
{
layerId = "FFDA6A0D-11B9-4032-BFBB-EDC4FF23EF93";
name = Light;
paths = (
{
closed = 1;
nodes = (
"319 0 LINE",
"319 654 LINE",
"550 654 LINE",
"550 699 LINE",
"35 699 LINE",
"35 654 LINE",
"266 654 LINE",
"266 0 LINE"
);
},
{
closed = 1;
nodes = (
"315 763 LINE",
"447 919 LINE",
"393 919 LINE",
"293 798 LINE",
"193 919 LINE",
"138 919 LINE",
"270 763 LINE"
);
}
);
width = 585;
}
);
leftKerningGroup = T;
note = Tcaron;
rightKerningGroup = T;
unicode = 0164;
},
{
glyphname = Tcedilla;
lastChange = "2015-11-29 23:41:38 +0000";
layers = (
{
layerId = "FFDA6A0D-11B9-4032-BFBB-EDC4FF23EF93";
name = Light;
paths = (
{
closed = 1;
nodes = (
"319 0 LINE",
"319 654 LINE",
"550 654 LINE",
"550 699 LINE",
"35 699 LINE",
"35 654 LINE",
"266 654 LINE",
"266 0 LINE"
);
},
{
closed = 1;
nodes = (
"345 -248 OFFCURVE",
"385 -209 OFFCURVE",
"385 -157 CURVE SMOOTH",
"385 -107 OFFCURVE",
"356 -73 OFFCURVE",
"290 -67 CURVE",
"317 0 LINE",
"267 0 LINE",
"232 -93 LINE",
"311 -93 OFFCURVE",
"336 -115 OFFCURVE",
"336 -156 CURVE SMOOTH",
"336 -196 OFFCURVE",
"309 -212 OFFCURVE",
"264 -212 CURVE SMOOTH",
"245 -212 OFFCURVE",
"220 -209 OFFCURVE",
"208 -203 CURVE",
"208 -239 LINE",
"221 -244 OFFCURVE",
"248 -248 OFFCURVE",
"272 -248 CURVE SMOOTH"
);
}
);
width = 585;
}
);
leftKerningGroup = T;
note = Tcedilla;
rightKerningGroup = T;
unicode = 0162;
},
{
glyphname = Tcommaaccent;
lastChange = "2015-11-29 23:41:39 +0000";
layers = (
{
layerId = "FFDA6A0D-11B9-4032-BFBB-EDC4FF23EF93";
name = Light;
paths = (
{
closed = 1;
nodes = (
"319 0 LINE",
"319 654 LINE",
"550 654 LINE",
"550 699 LINE",
"35 699 LINE",
"35 654 LINE",
"266 654 LINE",
"266 0 LINE"
);
},
{
closed = 1;
nodes = (
"232 -260 LINE",
"320 -67 LINE",
"264 -67 LINE",
"185 -260 LINE"
);
}
);
width = 585;
}
);
leftKerningGroup = T;
note = Tcommaaccent;
rightKerningGroup = T;
unicode = 021A;
},
{
glyphname = Tdotbelow;
lastChange = "2015-11-29 23:41:38 +0000";
layers = (
{
layerId = "FFDA6A0D-11B9-4032-BFBB-EDC4FF23EF93";
name = Light;
paths = (
{
closed = 1;
nodes = (
"319 0 LINE",
"319 654 LINE",
"550 654 LINE",
"550 699 LINE",
"35 699 LINE",
"35 654 LINE",
"266 654 LINE",
"266 0 LINE"
);
},
{
closed = 1;
nodes = (
"313 -137 OFFCURVE",
"331 -119 OFFCURVE",
"331 -98 CURVE SMOOTH",
"331 -77 OFFCURVE",
"313 -60 OFFCURVE",
"293 -60 CURVE SMOOTH",
"272 -60 OFFCURVE",
"254 -77 OFFCURVE",
"254 -98 CURVE SMOOTH",
"254 -119 OFFCURVE",
"272 -137 OFFCURVE",
"293 -137 CURVE SMOOTH"
);
}
);
width = 585;
}
);
leftKerningGroup = T;
note = Tdotbelow;
rightKerningGroup = T;
unicode = 1E6C;
},
{
glyphname = Tlinebelow;
lastChange = "2015-11-29 23:41:38 +0000";
layers = (
{
layerId = "FFDA6A0D-11B9-4032-BFBB-EDC4FF23EF93";
name = Light;
paths = (
{
closed = 1;
nodes = (
"319 0 LINE",
"319 654 LINE",
"550 654 LINE",
"550 699 LINE",
"35 699 LINE",
"35 654 LINE",
"266 654 LINE",
"266 0 LINE"
);
},
{
closed = 1;
nodes = (
"438 -121 LINE",
"438 -80 LINE",
"147 -80 LINE",
"147 -121 LINE"
);
}
);
width = 585;
}
);
leftKerningGroup = T;
note = Tlinebelow;
rightKerningGroup = T;
unicode = 1E6E;
},
{
glyphname = U;
lastChange = "2015-11-29 23:41:34 +0000";
layers = (
{
layerId = "FFDA6A0D-11B9-4032-BFBB-EDC4FF23EF93";
name = Light;
paths = (
{
closed = 1;
nodes = (
"519 -15 OFFCURVE",
"609 81 OFFCURVE",
"609 239 CURVE SMOOTH",
"609 699 LINE",
"556 699 LINE",
"556 231 LINE SMOOTH",
"556 91 OFFCURVE",
"466 32 OFFCURVE",
"339 32 CURVE SMOOTH",
"212 32 OFFCURVE",
"123 91 OFFCURVE",
"123 231 CURVE SMOOTH",
"123 699 LINE",
"70 699 LINE",
"70 239 LINE SMOOTH",
"70 81 OFFCURVE",
"159 -15 OFFCURVE",
"339 -15 CURVE SMOOTH"
);
}
);
width = 679;
}
);
leftKerningGroup = U;
note = U;
rightKerningGroup = U;
unicode = 0055;
},
{
glyphname = Uacute;
lastChange = "2015-11-29 23:41:38 +0000";
layers = (
{
layerId = "FFDA6A0D-11B9-4032-BFBB-EDC4FF23EF93";
name = Light;
paths = (
{
closed = 1;
nodes = (
"519 -15 OFFCURVE",
"609 81 OFFCURVE",
"609 239 CURVE SMOOTH",
"609 699 LINE",
"556 699 LINE",
"556 231 LINE SMOOTH",
"556 91 OFFCURVE",
"466 32 OFFCURVE",
"339 32 CURVE SMOOTH",
"212 32 OFFCURVE",
"123 91 OFFCURVE",
"123 231 CURVE SMOOTH",
"123 699 LINE",
"70 699 LINE",
"70 239 LINE SMOOTH",
"70 81 OFFCURVE",
"159 -15 OFFCURVE",
"339 -15 CURVE SMOOTH"
);
},
{
closed = 1;
nodes = (
"355 766 LINE",
"433 935 LINE",
"379 935 LINE",
"309 766 LINE"
);
}
);
width = 679;
}
);
leftKerningGroup = U;
note = Uacute;
rightKerningGroup = U;
unicode = 00DA;
},
{
glyphname = Ubreve;
lastChange = "2015-11-29 23:41:39 +0000";
layers = (
{
layerId = "FFDA6A0D-11B9-4032-BFBB-EDC4FF23EF93";
name = Light;
paths = (
{
closed = 1;
nodes = (
"519 -15 OFFCURVE",
"609 81 OFFCURVE",
"609 239 CURVE SMOOTH",
"609 699 LINE",
"556 699 LINE",
"556 231 LINE SMOOTH",
"556 91 OFFCURVE",
"466 32 OFFCURVE",
"339 32 CURVE SMOOTH",
"212 32 OFFCURVE",
"123 91 OFFCURVE",
"123 231 CURVE SMOOTH",
"123 699 LINE",
"70 699 LINE",
"70 239 LINE SMOOTH",
"70 81 OFFCURVE",
"159 -15 OFFCURVE",
"339 -15 CURVE SMOOTH"
);
},
{
closed = 1;
nodes = (
"417 749 OFFCURVE",
"468 801 OFFCURVE",
"468 868 CURVE",
"427 868 LINE",
"427 821 OFFCURVE",
"394 788 OFFCURVE",
"340 788 CURVE SMOOTH",
"286 788 OFFCURVE",
"253 821 OFFCURVE",
"253 868 CURVE",
"211 868 LINE",
"211 801 OFFCURVE",
"262 749 OFFCURVE",
"340 749 CURVE SMOOTH"
);
}
);
width = 679;
}
);
leftKerningGroup = U;
note = Ubreve;
rightKerningGroup = U;
unicode = 016C;
},
{
glyphname = Ucaron;
lastChange = "2015-11-29 23:41:39 +0000";
layers = (
{
layerId = "FFDA6A0D-11B9-4032-BFBB-EDC4FF23EF93";
name = Light;
paths = (
{
closed = 1;
nodes = (
"519 -15 OFFCURVE",
"609 81 OFFCURVE",
"609 239 CURVE SMOOTH",
"609 699 LINE",
"556 699 LINE",
"556 231 LINE SMOOTH",
"556 91 OFFCURVE",
"466 32 OFFCURVE",
"339 32 CURVE SMOOTH",
"212 32 OFFCURVE",
"123 91 OFFCURVE",
"123 231 CURVE SMOOTH",
"123 699 LINE",
"70 699 LINE",
"70 239 LINE SMOOTH",
"70 81 OFFCURVE",
"159 -15 OFFCURVE",
"339 -15 CURVE SMOOTH"
);
},
{
closed = 1;
nodes = (
"362 763 LINE",
"494 919 LINE",
"440 919 LINE",
"340 798 LINE",
"240 919 LINE",
"185 919 LINE",
"317 763 LINE"
);
}
);
width = 679;
}
);
leftKerningGroup = U;
note = Ucaron;
rightKerningGroup = U;
unicode = 01D3;
},
{
glyphname = Ucircumflex;
lastChange = "2015-11-29 23:41:39 +0000";
layers = (
{
layerId = "FFDA6A0D-11B9-4032-BFBB-EDC4FF23EF93";
name = Light;
paths = (
{
closed = 1;
nodes = (
"519 -15 OFFCURVE",
"609 81 OFFCURVE",
"609 239 CURVE SMOOTH",
"609 699 LINE",
"556 699 LINE",
"556 231 LINE SMOOTH",
"556 91 OFFCURVE",
"466 32 OFFCURVE",
"339 32 CURVE SMOOTH",
"212 32 OFFCURVE",
"123 91 OFFCURVE",
"123 231 CURVE SMOOTH",
"123 699 LINE",
"70 699 LINE",
"70 239 LINE SMOOTH",
"70 81 OFFCURVE",
"159 -15 OFFCURVE",
"339 -15 CURVE SMOOTH"
);
},
{
closed = 1;
nodes = (
"240 770 LINE",
"340 891 LINE",
"440 770 LINE",
"494 770 LINE",
"362 926 LINE",
"317 926 LINE",
"185 770 LINE"
);
}
);
width = 679;
}
);
leftKerningGroup = U;
note = Ucircumflex;
rightKerningGroup = U;
unicode = 00DB;
},
{
glyphname = Udieresis;
lastChange = "2015-11-29 23:41:39 +0000";
layers = (
{
layerId = "FFDA6A0D-11B9-4032-BFBB-EDC4FF23EF93";
name = Light;
paths = (
{
closed = 1;
nodes = (
"519 -15 OFFCURVE",
"609 81 OFFCURVE",
"609 239 CURVE SMOOTH",
"609 699 LINE",
"556 699 LINE",
"556 231 LINE SMOOTH",
"556 91 OFFCURVE",
"466 32 OFFCURVE",
"339 32 CURVE SMOOTH",
"212 32 OFFCURVE",
"123 91 OFFCURVE",
"123 231 CURVE SMOOTH",
"123 699 LINE",
"70 699 LINE",
"70 239 LINE SMOOTH",
"70 81 OFFCURVE",
"159 -15 OFFCURVE",
"339 -15 CURVE SMOOTH"
);
},
{
closed = 1;
nodes = (
"256 771 OFFCURVE",
"274 789 OFFCURVE",
"274 810 CURVE SMOOTH",
"274 831 OFFCURVE",
"256 848 OFFCURVE",
"236 848 CURVE SMOOTH",
"215 848 OFFCURVE",
"197 831 OFFCURVE",
"197 810 CURVE SMOOTH",
"197 789 OFFCURVE",
"215 771 OFFCURVE",
"236 771 CURVE SMOOTH"
);
},
{
closed = 1;
nodes = (
"464 771 OFFCURVE",
"482 789 OFFCURVE",
"482 810 CURVE SMOOTH",
"482 831 OFFCURVE",
"464 848 OFFCURVE",
"443 848 CURVE SMOOTH",
"422 848 OFFCURVE",
"404 831 OFFCURVE",
"404 810 CURVE SMOOTH",
"404 789 OFFCURVE",
"422 771 OFFCURVE",
"443 771 CURVE SMOOTH"
);
}
);
width = 679;
}
);
leftKerningGroup = U;
note = Udieresis;
rightKerningGroup = U;
unicode = 00DC;
},
{
glyphname = Udieresisacute;
lastChange = "2015-11-29 23:41:38 +0000";
layers = (
{
layerId = "FFDA6A0D-11B9-4032-BFBB-EDC4FF23EF93";
name = Light;
paths = (
{
closed = 1;
nodes = (
"519 -15 OFFCURVE",
"609 81 OFFCURVE",
"609 239 CURVE SMOOTH",
"609 699 LINE",
"556 699 LINE",
"556 231 LINE SMOOTH",
"556 91 OFFCURVE",
"466 32 OFFCURVE",
"339 32 CURVE SMOOTH",
"212 32 OFFCURVE",
"123 91 OFFCURVE",
"123 231 CURVE SMOOTH",
"123 699 LINE",
"70 699 LINE",
"70 239 LINE SMOOTH",
"70 81 OFFCURVE",
"159 -15 OFFCURVE",
"339 -15 CURVE SMOOTH"
);
},
{
closed = 1;
nodes = (
"259 766 OFFCURVE",
"277 784 OFFCURVE",
"277 805 CURVE SMOOTH",
"277 826 OFFCURVE",
"259 843 OFFCURVE",
"239 843 CURVE SMOOTH",
"218 843 OFFCURVE",
"200 826 OFFCURVE",
"200 805 CURVE SMOOTH",
"200 784 OFFCURVE",
"218 766 OFFCURVE",
"239 766 CURVE SMOOTH"
);
},
{
closed = 1;
nodes = (
"467 766 OFFCURVE",
"485 784 OFFCURVE",
"485 805 CURVE SMOOTH",
"485 826 OFFCURVE",
"467 843 OFFCURVE",
"446 843 CURVE SMOOTH",
"425 843 OFFCURVE",
"407 826 OFFCURVE",
"407 805 CURVE SMOOTH",
"407 784 OFFCURVE",
"425 766 OFFCURVE",
"446 766 CURVE SMOOTH"
);
},
{
closed = 1;
nodes = (
"354 830 LINE",
"419 958 LINE",
"373 958 LINE",
"316 830 LINE"
);
}
);
width = 679;
}
);
leftKerningGroup = U;
note = Udieresisacute;
rightKerningGroup = U;
unicode = 01D7;
},
{
glyphname = Udieresiscaron;
lastChange = "2015-11-29 23:41:37 +0000";
layers = (
{
layerId = "FFDA6A0D-11B9-4032-BFBB-EDC4FF23EF93";
name = Light;
paths = (
{
closed = 1;
nodes = (
"519 -15 OFFCURVE",
"609 81 OFFCURVE",
"609 239 CURVE SMOOTH",
"609 699 LINE",
"556 699 LINE",
"556 231 LINE SMOOTH",
"556 91 OFFCURVE",
"466 32 OFFCURVE",
"339 32 CURVE SMOOTH",
"212 32 OFFCURVE",
"123 91 OFFCURVE",
"123 231 CURVE SMOOTH",
"123 699 LINE",
"70 699 LINE",
"70 239 LINE SMOOTH",
"70 81 OFFCURVE",
"159 -15 OFFCURVE",
"339 -15 CURVE SMOOTH"
);
},
{
closed = 1;
nodes = (
"257 766 OFFCURVE",
"275 784 OFFCURVE",
"275 805 CURVE SMOOTH",
"275 826 OFFCURVE",
"257 843 OFFCURVE",
"236 843 CURVE SMOOTH",
"215 843 OFFCURVE",
"197 826 OFFCURVE",
"197 805 CURVE SMOOTH",
"197 784 OFFCURVE",
"215 766 OFFCURVE",
"236 766 CURVE SMOOTH"
);
},
{
closed = 1;
nodes = (
"358 831 LINE",
"488 955 LINE",
"435 955 LINE",
"340 864 LINE",
"245 955 LINE",
"191 955 LINE",
"321 831 LINE"
);
},
{
closed = 1;
nodes = (
"464 766 OFFCURVE",
"482 784 OFFCURVE",
"482 805 CURVE SMOOTH",
"482 826 OFFCURVE",
"464 843 OFFCURVE",
"443 843 CURVE SMOOTH",
"423 843 OFFCURVE",
"405 826 OFFCURVE",
"405 805 CURVE SMOOTH",
"405 784 OFFCURVE",
"423 766 OFFCURVE",
"443 766 CURVE SMOOTH"
);
}
);
width = 679;
}
);
leftKerningGroup = U;
note = Udieresiscaron;
rightKerningGroup = U;
unicode = 01D9;
},
{
glyphname = Udieresisgrave;
lastChange = "2015-11-29 23:41:39 +0000";
layers = (
{
layerId = "FFDA6A0D-11B9-4032-BFBB-EDC4FF23EF93";
name = Light;
paths = (
{
closed = 1;
nodes = (
"519 -15 OFFCURVE",
"609 81 OFFCURVE",
"609 239 CURVE SMOOTH",
"609 699 LINE",
"556 699 LINE",
"556 231 LINE SMOOTH",
"556 91 OFFCURVE",
"466 32 OFFCURVE",
"339 32 CURVE SMOOTH",
"212 32 OFFCURVE",
"123 91 OFFCURVE",
"123 231 CURVE SMOOTH",
"123 699 LINE",
"70 699 LINE",
"70 239 LINE SMOOTH",
"70 81 OFFCURVE",
"159 -15 OFFCURVE",
"339 -15 CURVE SMOOTH"
);
},
{
closed = 1;
nodes = (
"257 765 OFFCURVE",
"275 783 OFFCURVE",
"275 804 CURVE SMOOTH",
"275 825 OFFCURVE",
"257 842 OFFCURVE",
"236 842 CURVE SMOOTH",
"215 842 OFFCURVE",
"197 825 OFFCURVE",
"197 804 CURVE SMOOTH",
"197 783 OFFCURVE",
"215 765 OFFCURVE",
"236 765 CURVE SMOOTH"
);
},
{
closed = 1;
nodes = (
"366 829 LINE",
"309 957 LINE",
"263 957 LINE",
"328 829 LINE"
);
},
{
closed = 1;
nodes = (
"464 765 OFFCURVE",
"482 783 OFFCURVE",
"482 804 CURVE SMOOTH",
"482 825 OFFCURVE",
"464 842 OFFCURVE",
"443 842 CURVE SMOOTH",
"423 842 OFFCURVE",
"405 825 OFFCURVE",
"405 804 CURVE SMOOTH",
"405 783 OFFCURVE",
"423 765 OFFCURVE",
"443 765 CURVE SMOOTH"
);
}
);
width = 679;
}
);
leftKerningGroup = U;
note = Udieresisgrave;
rightKerningGroup = U;
unicode = 01DB;
},
{
glyphname = Udieresismacron;
lastChange = "2015-11-29 23:41:37 +0000";
layers = (
{
layerId = "FFDA6A0D-11B9-4032-BFBB-EDC4FF23EF93";
name = Light;
paths = (
{
closed = 1;
nodes = (
"519 -15 OFFCURVE",
"609 81 OFFCURVE",
"609 239 CURVE SMOOTH",
"609 699 LINE",
"556 699 LINE",
"556 231 LINE SMOOTH",
"556 91 OFFCURVE",
"466 32 OFFCURVE",
"339 32 CURVE SMOOTH",
"212 32 OFFCURVE",
"123 91 OFFCURVE",
"123 231 CURVE SMOOTH",
"123 699 LINE",
"70 699 LINE",
"70 239 LINE SMOOTH",
"70 81 OFFCURVE",
"159 -15 OFFCURVE",
"339 -15 CURVE SMOOTH"
);
},
{
closed = 1;
nodes = (
"255 749 OFFCURVE",
"273 767 OFFCURVE",
"273 788 CURVE SMOOTH",
"273 809 OFFCURVE",
"255 826 OFFCURVE",
"235 826 CURVE SMOOTH",
"214 826 OFFCURVE",
"196 809 OFFCURVE",
"196 788 CURVE SMOOTH",
"196 767 OFFCURVE",
"214 749 OFFCURVE",
"235 749 CURVE SMOOTH"
);
},
{
closed = 1;
nodes = (
"463 749 OFFCURVE",
"481 767 OFFCURVE",
"481 788 CURVE SMOOTH",
"481 809 OFFCURVE",
"463 826 OFFCURVE",
"442 826 CURVE SMOOTH",
"421 826 OFFCURVE",
"403 809 OFFCURVE",
"403 788 CURVE SMOOTH",
"403 767 OFFCURVE",
"421 749 OFFCURVE",
"442 749 CURVE SMOOTH"
);
},
{
closed = 1;
nodes = (
"483 910 LINE",
"483 949 LINE",
"194 949 LINE",
"194 910 LINE"
);
}
);
width = 679;
}
);
leftKerningGroup = U;
note = Udieresismacron;
rightKerningGroup = U;
unicode = 01D5;
},
{
glyphname = Udotbelow;
lastChange = "2015-11-29 23:41:39 +0000";
layers = (
{
layerId = "FFDA6A0D-11B9-4032-BFBB-EDC4FF23EF93";
name = Light;
paths = (
{
closed = 1;
nodes = (
"519 -15 OFFCURVE",
"609 81 OFFCURVE",
"609 239 CURVE SMOOTH",
"609 699 LINE",
"556 699 LINE",
"556 231 LINE SMOOTH",
"556 91 OFFCURVE",
"466 32 OFFCURVE",
"339 32 CURVE SMOOTH",
"212 32 OFFCURVE",
"123 91 OFFCURVE",
"123 231 CURVE SMOOTH",
"123 699 LINE",
"70 699 LINE",
"70 239 LINE SMOOTH",
"70 81 OFFCURVE",
"159 -15 OFFCURVE",
"339 -15 CURVE SMOOTH"
);
},
{
closed = 1;
nodes = (
"360 -137 OFFCURVE",
"378 -119 OFFCURVE",
"378 -98 CURVE SMOOTH",
"378 -77 OFFCURVE",
"360 -60 OFFCURVE",
"340 -60 CURVE SMOOTH",
"319 -60 OFFCURVE",
"301 -77 OFFCURVE",
"301 -98 CURVE SMOOTH",
"301 -119 OFFCURVE",
"319 -137 OFFCURVE",
"340 -137 CURVE SMOOTH"
);
}
);
width = 679;
}
);
leftKerningGroup = U;
note = Udotbelow;
rightKerningGroup = U;
unicode = 1EE4;
},
{
glyphname = Ugrave;
lastChange = "2015-11-29 23:41:39 +0000";
layers = (
{
layerId = "FFDA6A0D-11B9-4032-BFBB-EDC4FF23EF93";
name = Light;
paths = (
{
closed = 1;
nodes = (
"519 -15 OFFCURVE",
"609 81 OFFCURVE",
"609 239 CURVE SMOOTH",
"609 699 LINE",
"556 699 LINE",
"556 231 LINE SMOOTH",
"556 91 OFFCURVE",
"466 32 OFFCURVE",
"339 32 CURVE SMOOTH",
"212 32 OFFCURVE",
"123 91 OFFCURVE",
"123 231 CURVE SMOOTH",
"123 699 LINE",
"70 699 LINE",
"70 239 LINE SMOOTH",
"70 81 OFFCURVE",
"159 -15 OFFCURVE",
"339 -15 CURVE SMOOTH"
);
},
{
closed = 1;
nodes = (
"371 766 LINE",
"302 935 LINE",
"247 935 LINE",
"326 766 LINE"
);
}
);
width = 679;
}
);
leftKerningGroup = U;
note = Ugrave;
rightKerningGroup = U;
unicode = 00D9;
},
{
glyphname = Uhookabove;
lastChange = "2015-11-29 23:41:38 +0000";
layers = (
{
layerId = "FFDA6A0D-11B9-4032-BFBB-EDC4FF23EF93";
name = Light;
paths = (
{
closed = 1;
nodes = (
"519 -15 OFFCURVE",
"609 81 OFFCURVE",
"609 239 CURVE SMOOTH",
"609 699 LINE",
"556 699 LINE",
"556 231 LINE SMOOTH",
"556 91 OFFCURVE",
"466 32 OFFCURVE",
"339 32 CURVE SMOOTH",
"212 32 OFFCURVE",
"123 91 OFFCURVE",
"123 231 CURVE SMOOTH",
"123 699 LINE",
"70 699 LINE",
"70 239 LINE SMOOTH",
"70 81 OFFCURVE",
"159 -15 OFFCURVE",
"339 -15 CURVE SMOOTH"
);
},
{
closed = 1;
nodes = (
"353 743 LINE",
"353 782 LINE",
"416 787 OFFCURVE",
"448 824 OFFCURVE",
"448 873 CURVE SMOOTH",
"448 925 OFFCURVE",
"411 962 OFFCURVE",
"336 962 CURVE SMOOTH",
"312 962 OFFCURVE",
"284 958 OFFCURVE",
"270 953 CURVE",
"270 918 LINE",
"282 924 OFFCURVE",
"310 927 OFFCURVE",
"328 927 CURVE SMOOTH",
"375 927 OFFCURVE",
"401 910 OFFCURVE",
"401 871 CURVE SMOOTH",
"401 828 OFFCURVE",
"376 808 OFFCURVE",
"308 808 CURVE",
"308 743 LINE"
);
}
);
width = 679;
}
);
leftKerningGroup = U;
note = Uhookabove;
rightKerningGroup = U;
unicode = 1EE6;
},
{
glyphname = Uhorn;
lastChange = "2015-11-29 23:41:34 +0000";
layers = (
{
layerId = "FFDA6A0D-11B9-4032-BFBB-EDC4FF23EF93";
name = Light;
paths = (
{
closed = 1;
nodes = (
"519 -15 OFFCURVE",
"609 81 OFFCURVE",
"609 239 CURVE SMOOTH",
"609 579 LINE",
"696 579 OFFCURVE",
"756 639 OFFCURVE",
"756 708 CURVE SMOOTH",
"756 747 LINE",
"703 747 LINE",
"703 710 LINE SMOOTH",
"703 658 OFFCURVE",
"674 626 OFFCURVE",
"609 626 CURVE",
"609 699 LINE",
"556 699 LINE",
"556 231 LINE SMOOTH",
"556 91 OFFCURVE",
"466 32 OFFCURVE",
"339 32 CURVE SMOOTH",
"212 32 OFFCURVE",
"123 91 OFFCURVE",
"123 231 CURVE SMOOTH",
"123 699 LINE",
"70 699 LINE",
"70 239 LINE SMOOTH",
"70 81 OFFCURVE",
"159 -15 OFFCURVE",
"339 -15 CURVE SMOOTH"
);
}
);
width = 781;
}
);
leftKerningGroup = U;
note = Uhorn;
rightKerningGroup = U;
unicode = 01AF;
},
{
glyphname = Uhornacute;
lastChange = "2015-11-29 23:41:38 +0000";
layers = (
{
layerId = "FFDA6A0D-11B9-4032-BFBB-EDC4FF23EF93";
name = Light;
paths = (
{
closed = 1;
nodes = (
"519 -15 OFFCURVE",
"609 81 OFFCURVE",
"609 239 CURVE SMOOTH",
"609 579 LINE",
"696 579 OFFCURVE",
"756 639 OFFCURVE",
"756 708 CURVE SMOOTH",
"756 747 LINE",
"703 747 LINE",
"703 710 LINE SMOOTH",
"703 658 OFFCURVE",
"674 626 OFFCURVE",
"609 626 CURVE",
"609 699 LINE",
"556 699 LINE",
"556 231 LINE SMOOTH",
"556 91 OFFCURVE",
"466 32 OFFCURVE",
"339 32 CURVE SMOOTH",
"212 32 OFFCURVE",
"123 91 OFFCURVE",
"123 231 CURVE SMOOTH",
"123 699 LINE",
"70 699 LINE",
"70 239 LINE SMOOTH",
"70 81 OFFCURVE",
"159 -15 OFFCURVE",
"339 -15 CURVE SMOOTH"
);
},
{
closed = 1;
nodes = (
"367 754 LINE",
"445 923 LINE",
"391 923 LINE",
"321 754 LINE"
);
}
);
width = 802;
}
);
leftKerningGroup = U;
note = Uhornacute;
rightKerningGroup = U;
unicode = 1EE8;
},
{
glyphname = Uhorndotbelow;
lastChange = "2015-11-29 23:41:39 +0000";
layers = (
{
layerId = "FFDA6A0D-11B9-4032-BFBB-EDC4FF23EF93";
name = Light;
paths = (
{
closed = 1;
nodes = (
"519 -15 OFFCURVE",
"609 81 OFFCURVE",
"609 239 CURVE SMOOTH",
"609 579 LINE",
"696 579 OFFCURVE",
"756 639 OFFCURVE",
"756 708 CURVE SMOOTH",
"756 747 LINE",
"703 747 LINE",
"703 710 LINE SMOOTH",
"703 658 OFFCURVE",
"674 626 OFFCURVE",
"609 626 CURVE",
"609 699 LINE",
"556 699 LINE",
"556 231 LINE SMOOTH",
"556 91 OFFCURVE",
"466 32 OFFCURVE",
"339 32 CURVE SMOOTH",
"212 32 OFFCURVE",
"123 91 OFFCURVE",
"123 231 CURVE SMOOTH",
"123 699 LINE",
"70 699 LINE",
"70 239 LINE SMOOTH",
"70 81 OFFCURVE",
"159 -15 OFFCURVE",
"339 -15 CURVE SMOOTH"
);
},
{
closed = 1;
nodes = (
"352 -137 OFFCURVE",
"370 -119 OFFCURVE",
"370 -98 CURVE SMOOTH",
"370 -77 OFFCURVE",
"352 -60 OFFCURVE",
"332 -60 CURVE SMOOTH",
"311 -60 OFFCURVE",
"293 -77 OFFCURVE",
"293 -98 CURVE SMOOTH",
"293 -119 OFFCURVE",
"311 -137 OFFCURVE",
"332 -137 CURVE SMOOTH"
);
}
);
width = 788;
}
);
leftKerningGroup = U;
note = Uhorndotbelow;
rightKerningGroup = U;
unicode = 1EF0;
},
{
glyphname = Uhorngrave;
lastChange = "2015-11-29 23:41:39 +0000";
layers = (
{
layerId = "FFDA6A0D-11B9-4032-BFBB-EDC4FF23EF93";
name = Light;
paths = (
{
closed = 1;
nodes = (
"519 -15 OFFCURVE",
"609 81 OFFCURVE",
"609 239 CURVE SMOOTH",
"609 579 LINE",
"696 579 OFFCURVE",
"756 639 OFFCURVE",
"756 708 CURVE SMOOTH",
"756 747 LINE",
"703 747 LINE",
"703 710 LINE SMOOTH",
"703 658 OFFCURVE",
"674 626 OFFCURVE",
"609 626 CURVE",
"609 699 LINE",
"556 699 LINE",
"556 231 LINE SMOOTH",
"556 91 OFFCURVE",
"466 32 OFFCURVE",
"339 32 CURVE SMOOTH",
"212 32 OFFCURVE",
"123 91 OFFCURVE",
"123 231 CURVE SMOOTH",
"123 699 LINE",
"70 699 LINE",
"70 239 LINE SMOOTH",
"70 81 OFFCURVE",
"159 -15 OFFCURVE",
"339 -15 CURVE SMOOTH"
);
},
{
closed = 1;
nodes = (
"377 754 LINE",
"308 923 LINE",
"253 923 LINE",
"332 754 LINE"
);
}
);
width = 788;
}
);
leftKerningGroup = U;
note = Uhorngrave;
rightKerningGroup = U;
unicode = 1EEA;
},
{
glyphname = Uhornhookabove;
lastChange = "2015-11-29 23:41:38 +0000";
layers = (
{
layerId = "FFDA6A0D-11B9-4032-BFBB-EDC4FF23EF93";
name = Light;
paths = (
{
closed = 1;
nodes = (
"519 -15 OFFCURVE",
"609 81 OFFCURVE",
"609 239 CURVE SMOOTH",
"609 579 LINE",
"696 579 OFFCURVE",
"756 639 OFFCURVE",
"756 708 CURVE SMOOTH",
"756 747 LINE",
"703 747 LINE",
"703 710 LINE SMOOTH",
"703 658 OFFCURVE",
"674 626 OFFCURVE",
"609 626 CURVE",
"609 699 LINE",
"556 699 LINE",
"556 231 LINE SMOOTH",
"556 91 OFFCURVE",
"466 32 OFFCURVE",
"339 32 CURVE SMOOTH",
"212 32 OFFCURVE",
"123 91 OFFCURVE",
"123 231 CURVE SMOOTH",
"123 699 LINE",
"70 699 LINE",
"70 239 LINE SMOOTH",
"70 81 OFFCURVE",
"159 -15 OFFCURVE",
"339 -15 CURVE SMOOTH"
);
},
{
closed = 1;
nodes = (
"357 743 LINE",
"357 782 LINE",
"420 787 OFFCURVE",
"452 824 OFFCURVE",
"452 873 CURVE SMOOTH",
"452 925 OFFCURVE",
"415 962 OFFCURVE",
"340 962 CURVE SMOOTH",
"316 962 OFFCURVE",
"288 958 OFFCURVE",
"274 953 CURVE",
"274 918 LINE",
"286 924 OFFCURVE",
"314 927 OFFCURVE",
"332 927 CURVE SMOOTH",
"379 927 OFFCURVE",
"405 910 OFFCURVE",
"405 871 CURVE SMOOTH",
"405 828 OFFCURVE",
"380 808 OFFCURVE",
"312 808 CURVE",
"312 743 LINE"
);
}
);
width = 788;
}
);
leftKerningGroup = U;
note = Uhornhookabove;
rightKerningGroup = U;
unicode = 1EEC;
},
{
glyphname = Uhorntilde;
lastChange = "2015-11-29 23:41:39 +0000";
layers = (
{
layerId = "FFDA6A0D-11B9-4032-BFBB-EDC4FF23EF93";
name = Light;
paths = (
{
closed = 1;
nodes = (
"519 -15 OFFCURVE",
"609 81 OFFCURVE",
"609 239 CURVE SMOOTH",
"609 579 LINE",
"696 579 OFFCURVE",
"756 639 OFFCURVE",
"756 708 CURVE SMOOTH",
"756 747 LINE",
"703 747 LINE",
"703 710 LINE SMOOTH",
"703 658 OFFCURVE",
"674 626 OFFCURVE",
"609 626 CURVE",
"609 699 LINE",
"556 699 LINE",
"556 231 LINE SMOOTH",
"556 91 OFFCURVE",
"466 32 OFFCURVE",
"339 32 CURVE SMOOTH",
"212 32 OFFCURVE",
"123 91 OFFCURVE",
"123 231 CURVE SMOOTH",
"123 699 LINE",
"70 699 LINE",
"70 239 LINE SMOOTH",
"70 81 OFFCURVE",
"159 -15 OFFCURVE",
"339 -15 CURVE SMOOTH"
);
},
{
closed = 1;
nodes = (
"187 806 OFFCURVE",
"217 817 OFFCURVE",
"251 817 CURVE SMOOTH",
"315 817 OFFCURVE",
"355 767 OFFCURVE",
"428 767 CURVE SMOOTH",
"467 767 OFFCURVE",
"500 778 OFFCURVE",
"521 811 CURVE",
"521 862 LINE",
"494 820 OFFCURVE",
"463 809 OFFCURVE",
"428 809 CURVE SMOOTH",
"363 809 OFFCURVE",
"319 859 OFFCURVE",
"251 859 CURVE SMOOTH",
"213 859 OFFCURVE",
"179 847 OFFCURVE",
"158 815 CURVE",
"158 764 LINE"
);
}
);
width = 788;
}
);
leftKerningGroup = U;
note = Uhorntilde;
rightKerningGroup = U;
unicode = 1EEE;
},
{
glyphname = Uhungarumlaut;
lastChange = "2015-11-29 23:41:39 +0000";
layers = (
{
layerId = "FFDA6A0D-11B9-4032-BFBB-EDC4FF23EF93";
name = Light;
paths = (
{
closed = 1;
nodes = (
"519 -15 OFFCURVE",
"609 81 OFFCURVE",
"609 239 CURVE SMOOTH",
"609 699 LINE",
"556 699 LINE",
"556 231 LINE SMOOTH",
"556 91 OFFCURVE",
"466 32 OFFCURVE",
"339 32 CURVE SMOOTH",
"212 32 OFFCURVE",
"123 91 OFFCURVE",
"123 231 CURVE SMOOTH",
"123 699 LINE",
"70 699 LINE",
"70 239 LINE SMOOTH",
"70 81 OFFCURVE",
"159 -15 OFFCURVE",
"339 -15 CURVE SMOOTH"
);
},
{
closed = 1;
nodes = (
"258 760 LINE",
"336 929 LINE",
"282 929 LINE",
"212 760 LINE"
);
},
{
closed = 1;
nodes = (
"436 760 LINE",
"515 929 LINE",
"460 929 LINE",
"391 760 LINE"
);
}
);
width = 679;
}
);
leftKerningGroup = U;
note = Uhungarumlaut;
rightKerningGroup = U;
unicode = 0170;
},
{
glyphname = Umacron;
lastChange = "2015-11-29 23:41:37 +0000";
layers = (
{
layerId = "FFDA6A0D-11B9-4032-BFBB-EDC4FF23EF93";
name = Light;
paths = (
{
closed = 1;
nodes = (
"519 -15 OFFCURVE",
"609 81 OFFCURVE",
"609 239 CURVE SMOOTH",
"609 699 LINE",
"556 699 LINE",
"556 231 LINE SMOOTH",
"556 91 OFFCURVE",
"466 32 OFFCURVE",
"339 32 CURVE SMOOTH",
"212 32 OFFCURVE",
"123 91 OFFCURVE",
"123 231 CURVE SMOOTH",
"123 699 LINE",
"70 699 LINE",
"70 239 LINE SMOOTH",
"70 81 OFFCURVE",
"159 -15 OFFCURVE",
"339 -15 CURVE SMOOTH"
);
},
{
closed = 1;
nodes = (
"484 787 LINE",
"484 826 LINE",
"195 826 LINE",
"195 787 LINE"
);
}
);
width = 679;
}
);
leftKerningGroup = U;
note = Umacron;
rightKerningGroup = U;
unicode = 016A;
},
{
glyphname = Uogonek;
lastChange = "2015-11-29 23:41:38 +0000";
layers = (
{
layerId = "FFDA6A0D-11B9-4032-BFBB-EDC4FF23EF93";
name = Light;
paths = (
{
closed = 1;
nodes = (
"519 -15 OFFCURVE",
"609 81 OFFCURVE",
"609 239 CURVE SMOOTH",
"609 699 LINE",
"556 699 LINE",
"556 231 LINE SMOOTH",
"556 91 OFFCURVE",
"466 32 OFFCURVE",
"339 32 CURVE SMOOTH",
"212 32 OFFCURVE",
"123 91 OFFCURVE",
"123 231 CURVE SMOOTH",
"123 699 LINE",
"70 699 LINE",
"70 239 LINE SMOOTH",
"70 81 OFFCURVE",
"159 -15 OFFCURVE",
"339 -15 CURVE SMOOTH"
);
},
{
closed = 1;
nodes = (
"382 -208 OFFCURVE",
"402 -205 OFFCURVE",
"415 -199 CURVE",
"415 -162 LINE",
"403 -167 OFFCURVE",
"387 -171 OFFCURVE",
"369 -171 CURVE SMOOTH",
"337 -171 OFFCURVE",
"317 -155 OFFCURVE",
"317 -119 CURVE SMOOTH",
"317 -73 OFFCURVE",
"347 -35 OFFCURVE",
"396 0 CURVE",
"346 0 LINE",
"304 -27 OFFCURVE",
"270 -72 OFFCURVE",
"270 -124 CURVE SMOOTH",
"270 -181 OFFCURVE",
"311 -208 OFFCURVE",
"359 -208 CURVE SMOOTH"
);
}
);
width = 679;
}
);
leftKerningGroup = U;
note = Uogonek;
rightKerningGroup = U;
unicode = 0172;
},
{
glyphname = Uring;
lastChange = "2015-11-29 23:41:37 +0000";
layers = (
{
layerId = "FFDA6A0D-11B9-4032-BFBB-EDC4FF23EF93";
name = Light;
paths = (
{
closed = 1;
nodes = (
"519 -15 OFFCURVE",
"609 81 OFFCURVE",
"609 239 CURVE SMOOTH",
"609 699 LINE",
"556 699 LINE",
"556 231 LINE SMOOTH",
"556 91 OFFCURVE",
"466 32 OFFCURVE",
"339 32 CURVE SMOOTH",
"212 32 OFFCURVE",
"123 91 OFFCURVE",
"123 231 CURVE SMOOTH",
"123 699 LINE",
"70 699 LINE",
"70 239 LINE SMOOTH",
"70 81 OFFCURVE",
"159 -15 OFFCURVE",
"339 -15 CURVE SMOOTH"
);
},
{
closed = 1;
nodes = (
"393 750 OFFCURVE",
"438 795 OFFCURVE",
"438 850 CURVE SMOOTH",
"438 904 OFFCURVE",
"393 949 OFFCURVE",
"339 949 CURVE SMOOTH",
"284 949 OFFCURVE",
"239 904 OFFCURVE",
"239 850 CURVE SMOOTH",
"239 795 OFFCURVE",
"284 750 OFFCURVE",
"339 750 CURVE SMOOTH"
);
},
{
closed = 1;
nodes = (
"304 786 OFFCURVE",
"276 815 OFFCURVE",
"276 850 CURVE SMOOTH",
"276 884 OFFCURVE",
"303 913 OFFCURVE",
"339 913 CURVE SMOOTH",
"374 913 OFFCURVE",
"402 884 OFFCURVE",
"402 850 CURVE SMOOTH",
"402 815 OFFCURVE",
"374 786 OFFCURVE",
"339 786 CURVE SMOOTH"
);
}
);
width = 679;
}
);
leftKerningGroup = U;
note = Uring;
rightKerningGroup = U;
unicode = 016E;
},
{
glyphname = Utilde;
lastChange = "2015-11-29 23:41:39 +0000";
layers = (
{
layerId = "FFDA6A0D-11B9-4032-BFBB-EDC4FF23EF93";
name = Light;
paths = (
{
closed = 1;
nodes = (
"519 -15 OFFCURVE",
"609 81 OFFCURVE",
"609 239 CURVE SMOOTH",
"609 699 LINE",
"556 699 LINE",
"556 231 LINE SMOOTH",
"556 91 OFFCURVE",
"466 32 OFFCURVE",
"339 32 CURVE SMOOTH",
"212 32 OFFCURVE",
"123 91 OFFCURVE",
"123 231 CURVE SMOOTH",
"123 699 LINE",
"70 699 LINE",
"70 239 LINE SMOOTH",
"70 81 OFFCURVE",
"159 -15 OFFCURVE",
"339 -15 CURVE SMOOTH"
);
},
{
closed = 1;
nodes = (
"198 812 OFFCURVE",
"228 823 OFFCURVE",
"262 823 CURVE SMOOTH",
"326 823 OFFCURVE",
"366 773 OFFCURVE",
"439 773 CURVE SMOOTH",
"478 773 OFFCURVE",
"511 784 OFFCURVE",
"532 817 CURVE",
"532 868 LINE",
"505 826 OFFCURVE",
"474 815 OFFCURVE",
"439 815 CURVE SMOOTH",
"374 815 OFFCURVE",
"330 865 OFFCURVE",
"262 865 CURVE SMOOTH",
"224 865 OFFCURVE",
"190 853 OFFCURVE",
"169 821 CURVE",
"169 770 LINE"
);
}
);
width = 679;
}
);
leftKerningGroup = U;
note = Utilde;
rightKerningGroup = U;
unicode = 0168;
},
{
glyphname = V;
lastChange = "2015-11-29 23:41:34 +0000";
layers = (
{
layerId = "FFDA6A0D-11B9-4032-BFBB-EDC4FF23EF93";
name = Light;
paths = (
{
closed = 1;
nodes = (
"381 0 LINE",
"660 699 LINE",
"605 699 LINE",
"357 75 LINE",
"110 699 LINE",
"55 699 LINE",
"334 0 LINE"
);
}
);
width = 715;
}
);
note = V;
unicode = 0056;
},
{
glyphname = W;
lastChange = "2015-11-29 23:41:34 +0000";
layers = (
{
layerId = "FFDA6A0D-11B9-4032-BFBB-EDC4FF23EF93";
name = Light;
paths = (
{
closed = 1;
nodes = (
"318 0 LINE",
"505 618 LINE",
"693 0 LINE",
"742 0 LINE",
"956 699 LINE",
"901 699 LINE",
"714 89 LINE",
"529 699 LINE",
"483 699 LINE",
"296 89 LINE",
"109 699 LINE",
"55 699 LINE",
"269 0 LINE"
);
}
);
width = 1011;
}
);
leftKerningGroup = W;
note = W;
rightKerningGroup = W;
unicode = 0057;
},
{
glyphname = Wacute;
lastChange = "2015-11-29 23:41:37 +0000";
layers = (
{
layerId = "FFDA6A0D-11B9-4032-BFBB-EDC4FF23EF93";
name = Light;
paths = (
{
closed = 1;
nodes = (
"318 0 LINE",
"505 618 LINE",
"693 0 LINE",
"742 0 LINE",
"956 699 LINE",
"901 699 LINE",
"714 89 LINE",
"529 699 LINE",
"483 699 LINE",
"296 89 LINE",
"109 699 LINE",
"55 699 LINE",
"269 0 LINE"
);
},
{
closed = 1;
nodes = (
"529 760 LINE",
"607 929 LINE",
"553 929 LINE",
"483 760 LINE"
);
}
);
width = 1011;
}
);
leftKerningGroup = W;
note = Wacute;
rightKerningGroup = W;
unicode = 1E82;
},
{
glyphname = Wcircumflex;
lastChange = "2015-11-29 23:41:39 +0000";
layers = (
{
layerId = "FFDA6A0D-11B9-4032-BFBB-EDC4FF23EF93";
name = Light;
paths = (
{
closed = 1;
nodes = (
"318 0 LINE",
"505 618 LINE",
"693 0 LINE",
"742 0 LINE",
"956 699 LINE",
"901 699 LINE",
"714 89 LINE",
"529 699 LINE",
"483 699 LINE",
"296 89 LINE",
"109 699 LINE",
"55 699 LINE",
"269 0 LINE"
);
},
{
closed = 1;
nodes = (
"405 764 LINE",
"505 885 LINE",
"605 764 LINE",
"659 764 LINE",
"527 920 LINE",
"482 920 LINE",
"350 764 LINE"
);
}
);
width = 1011;
}
);
leftKerningGroup = W;
note = Wcircumflex;
rightKerningGroup = W;
unicode = 0174;
},
{
glyphname = Wdieresis;
lastChange = "2015-11-29 23:41:38 +0000";
layers = (
{
layerId = "FFDA6A0D-11B9-4032-BFBB-EDC4FF23EF93";
name = Light;
paths = (
{
closed = 1;
nodes = (
"318 0 LINE",
"505 618 LINE",
"693 0 LINE",
"742 0 LINE",
"956 699 LINE",
"901 699 LINE",
"714 89 LINE",
"529 699 LINE",
"483 699 LINE",
"296 89 LINE",
"109 699 LINE",
"55 699 LINE",
"269 0 LINE"
);
},
{
closed = 1;
nodes = (
"421 765 OFFCURVE",
"439 783 OFFCURVE",
"439 804 CURVE SMOOTH",
"439 825 OFFCURVE",
"421 842 OFFCURVE",
"401 842 CURVE SMOOTH",
"380 842 OFFCURVE",
"362 825 OFFCURVE",
"362 804 CURVE SMOOTH",
"362 783 OFFCURVE",
"380 765 OFFCURVE",
"401 765 CURVE SMOOTH"
);
},
{
closed = 1;
nodes = (
"629 765 OFFCURVE",
"647 783 OFFCURVE",
"647 804 CURVE SMOOTH",
"647 825 OFFCURVE",
"629 842 OFFCURVE",
"608 842 CURVE SMOOTH",
"587 842 OFFCURVE",
"569 825 OFFCURVE",
"569 804 CURVE SMOOTH",
"569 783 OFFCURVE",
"587 765 OFFCURVE",
"608 765 CURVE SMOOTH"
);
}
);
width = 1011;
}
);
leftKerningGroup = W;
note = Wdieresis;
rightKerningGroup = W;
unicode = 1E84;
},
{
glyphname = Wgrave;
lastChange = "2015-11-29 23:41:38 +0000";
layers = (
{
layerId = "FFDA6A0D-11B9-4032-BFBB-EDC4FF23EF93";
name = Light;
paths = (
{
closed = 1;
nodes = (
"318 0 LINE",
"505 618 LINE",
"693 0 LINE",
"742 0 LINE",
"956 699 LINE",
"901 699 LINE",
"714 89 LINE",
"529 699 LINE",
"483 699 LINE",
"296 89 LINE",
"109 699 LINE",
"55 699 LINE",
"269 0 LINE"
);
},
{
closed = 1;
nodes = (
"523 760 LINE",
"454 929 LINE",
"399 929 LINE",
"478 760 LINE"
);
}
);
width = 1011;
}
);
leftKerningGroup = W;
note = Wgrave;
rightKerningGroup = W;
unicode = 1E80;
},
{
glyphname = X;
lastChange = "2015-11-29 23:41:34 +0000";
layers = (
{
layerId = "FFDA6A0D-11B9-4032-BFBB-EDC4FF23EF93";
name = Light;
paths = (
{
closed = 1;
nodes = (
"116 0 LINE",
"353 319 LINE",
"591 0 LINE",
"651 0 LINE",
"383 359 LINE",
"636 699 LINE",
"576 699 LINE",
"353 400 LINE",
"131 699 LINE",
"71 699 LINE",
"323 359 LINE",
"56 0 LINE"
);
}
);
width = 707;
}
);
note = X;
unicode = 0058;
},
{
glyphname = Y;
lastChange = "2015-11-29 23:41:34 +0000";
layers = (
{
layerId = "FFDA6A0D-11B9-4032-BFBB-EDC4FF23EF93";
name = Light;
paths = (
{
closed = 1;
nodes = (
"362 0 LINE",
"362 265 LINE",
"617 699 LINE",
"562 699 LINE",
"336 312 LINE",
"110 699 LINE",
"55 699 LINE",
"309 265 LINE",
"309 0 LINE"
);
}
);
width = 672;
}
);
leftKerningGroup = Y;
note = Y;
rightKerningGroup = Y;
unicode = 0059;
},
{
glyphname = Yacute;
lastChange = "2015-11-29 23:41:39 +0000";
layers = (
{
layerId = "FFDA6A0D-11B9-4032-BFBB-EDC4FF23EF93";
name = Light;
paths = (
{
closed = 1;
nodes = (
"362 0 LINE",
"362 265 LINE",
"617 699 LINE",
"562 699 LINE",
"336 312 LINE",
"110 699 LINE",
"55 699 LINE",
"309 265 LINE",
"309 0 LINE"
);
},
{
closed = 1;
nodes = (
"351 766 LINE",
"429 935 LINE",
"375 935 LINE",
"305 766 LINE"
);
}
);
width = 672;
}
);
leftKerningGroup = Y;
note = Yacute;
rightKerningGroup = Y;
unicode = 00DD;
},
{
glyphname = Ycircumflex;
lastChange = "2015-11-29 23:41:37 +0000";
layers = (
{
layerId = "FFDA6A0D-11B9-4032-BFBB-EDC4FF23EF93";
name = Light;
paths = (
{
closed = 1;
nodes = (
"362 0 LINE",
"362 265 LINE",
"617 699 LINE",
"562 699 LINE",
"336 312 LINE",
"110 699 LINE",
"55 699 LINE",
"309 265 LINE",
"309 0 LINE"
);
},
{
closed = 1;
nodes = (
"236 764 LINE",
"336 885 LINE",
"436 764 LINE",
"490 764 LINE",
"358 920 LINE",
"313 920 LINE",
"181 764 LINE"
);
}
);
width = 672;
}
);
leftKerningGroup = Y;
note = Ycircumflex;
rightKerningGroup = Y;
unicode = 0176;
},
{
glyphname = Ydieresis;
lastChange = "2015-11-29 23:41:38 +0000";
layers = (
{
layerId = "FFDA6A0D-11B9-4032-BFBB-EDC4FF23EF93";
name = Light;
paths = (
{
closed = 1;
nodes = (
"362 0 LINE",
"362 265 LINE",
"617 699 LINE",
"562 699 LINE",
"336 312 LINE",
"110 699 LINE",
"55 699 LINE",
"309 265 LINE",
"309 0 LINE"
);
},
{
closed = 1;
nodes = (
"252 771 OFFCURVE",
"270 789 OFFCURVE",
"270 810 CURVE SMOOTH",
"270 831 OFFCURVE",
"252 848 OFFCURVE",
"232 848 CURVE SMOOTH",
"211 848 OFFCURVE",
"193 831 OFFCURVE",
"193 810 CURVE SMOOTH",
"193 789 OFFCURVE",
"211 771 OFFCURVE",
"232 771 CURVE SMOOTH"
);
},
{
closed = 1;
nodes = (
"460 771 OFFCURVE",
"478 789 OFFCURVE",
"478 810 CURVE SMOOTH",
"478 831 OFFCURVE",
"460 848 OFFCURVE",
"439 848 CURVE SMOOTH",
"418 848 OFFCURVE",
"400 831 OFFCURVE",
"400 810 CURVE SMOOTH",
"400 789 OFFCURVE",
"418 771 OFFCURVE",
"439 771 CURVE SMOOTH"
);
}
);
width = 672;
}
);
leftKerningGroup = Y;
note = Ydieresis;
rightKerningGroup = Y;
unicode = 0178;
},
{
glyphname = Ydotaccent;
lastChange = "2015-11-29 23:41:37 +0000";
layers = (
{
layerId = "FFDA6A0D-11B9-4032-BFBB-EDC4FF23EF93";
name = Light;
paths = (
{
closed = 1;
nodes = (
"362 0 LINE",
"362 265 LINE",
"617 699 LINE",
"562 699 LINE",
"336 312 LINE",
"110 699 LINE",
"55 699 LINE",
"309 265 LINE",
"309 0 LINE"
);
},
{
closed = 1;
nodes = (
"356 765 OFFCURVE",
"374 783 OFFCURVE",
"374 804 CURVE SMOOTH",
"374 825 OFFCURVE",
"356 842 OFFCURVE",
"336 842 CURVE SMOOTH",
"315 842 OFFCURVE",
"297 825 OFFCURVE",
"297 804 CURVE SMOOTH",
"297 783 OFFCURVE",
"315 765 OFFCURVE",
"336 765 CURVE SMOOTH"
);
}
);
width = 672;
}
);
leftKerningGroup = Y;
note = Ydotaccent;
rightKerningGroup = Y;
unicode = 1E8E;
},
{
glyphname = Ydotbelow;
lastChange = "2015-11-29 23:41:39 +0000";
layers = (
{
layerId = "FFDA6A0D-11B9-4032-BFBB-EDC4FF23EF93";
name = Light;
paths = (
{
closed = 1;
nodes = (
"362 0 LINE",
"362 265 LINE",
"617 699 LINE",
"562 699 LINE",
"336 312 LINE",
"110 699 LINE",
"55 699 LINE",
"309 265 LINE",
"309 0 LINE"
);
},
{
closed = 1;
nodes = (
"356 -137 OFFCURVE",
"374 -119 OFFCURVE",
"374 -98 CURVE SMOOTH",
"374 -77 OFFCURVE",
"356 -60 OFFCURVE",
"336 -60 CURVE SMOOTH",
"315 -60 OFFCURVE",
"297 -77 OFFCURVE",
"297 -98 CURVE SMOOTH",
"297 -119 OFFCURVE",
"315 -137 OFFCURVE",
"336 -137 CURVE SMOOTH"
);
}
);
width = 672;
}
);
leftKerningGroup = Y;
note = Ydotbelow;
rightKerningGroup = Y;
unicode = 1EF4;
},
{
glyphname = Ygrave;
lastChange = "2015-11-29 23:41:38 +0000";
layers = (
{
layerId = "FFDA6A0D-11B9-4032-BFBB-EDC4FF23EF93";
name = Light;
paths = (
{
closed = 1;
nodes = (
"362 0 LINE",
"362 265 LINE",
"617 699 LINE",
"562 699 LINE",
"336 312 LINE",
"110 699 LINE",
"55 699 LINE",
"309 265 LINE",
"309 0 LINE"
);
},
{
closed = 1;
nodes = (
"361 760 LINE",
"292 929 LINE",
"237 929 LINE",
"316 760 LINE"
);
}
);
width = 672;
}
);
leftKerningGroup = Y;
note = Ygrave;
rightKerningGroup = Y;
unicode = 1EF2;
},
{
glyphname = Yhookabove;
lastChange = "2015-11-29 23:41:38 +0000";
layers = (
{
layerId = "FFDA6A0D-11B9-4032-BFBB-EDC4FF23EF93";
name = Light;
paths = (
{
closed = 1;
nodes = (
"362 0 LINE",
"362 265 LINE",
"617 699 LINE",
"562 699 LINE",
"336 312 LINE",
"110 699 LINE",
"55 699 LINE",
"309 265 LINE",
"309 0 LINE"
);
},
{
closed = 1;
nodes = (
"348 743 LINE",
"348 782 LINE",
"411 787 OFFCURVE",
"443 824 OFFCURVE",
"443 873 CURVE SMOOTH",
"443 925 OFFCURVE",
"406 962 OFFCURVE",
"331 962 CURVE SMOOTH",
"307 962 OFFCURVE",
"279 958 OFFCURVE",
"265 953 CURVE",
"265 918 LINE",
"277 924 OFFCURVE",
"305 927 OFFCURVE",
"323 927 CURVE SMOOTH",
"370 927 OFFCURVE",
"396 910 OFFCURVE",
"396 871 CURVE SMOOTH",
"396 828 OFFCURVE",
"371 808 OFFCURVE",
"303 808 CURVE",
"303 743 LINE"
);
}
);
width = 672;
}
);
leftKerningGroup = Y;
note = Yhookabove;
rightKerningGroup = Y;
unicode = 1EF6;
},
{
glyphname = Ytilde;
lastChange = "2015-11-29 23:41:39 +0000";
layers = (
{
layerId = "FFDA6A0D-11B9-4032-BFBB-EDC4FF23EF93";
name = Light;
paths = (
{
closed = 1;
nodes = (
"362 0 LINE",
"362 265 LINE",
"617 699 LINE",
"562 699 LINE",
"336 312 LINE",
"110 699 LINE",
"55 699 LINE",
"309 265 LINE",
"309 0 LINE"
);
},
{
closed = 1;
nodes = (
"183 812 OFFCURVE",
"213 823 OFFCURVE",
"247 823 CURVE SMOOTH",
"311 823 OFFCURVE",
"351 773 OFFCURVE",
"424 773 CURVE SMOOTH",
"463 773 OFFCURVE",
"496 784 OFFCURVE",
"517 817 CURVE",
"517 868 LINE",
"490 826 OFFCURVE",
"459 815 OFFCURVE",
"424 815 CURVE SMOOTH",
"359 815 OFFCURVE",
"315 865 OFFCURVE",
"247 865 CURVE SMOOTH",
"209 865 OFFCURVE",
"175 853 OFFCURVE",
"154 821 CURVE",
"154 770 LINE"
);
}
);
width = 672;
}
);
leftKerningGroup = Y;
note = Ytilde;
rightKerningGroup = Y;
unicode = 1EF8;
},
{
glyphname = Z;
lastChange = "2015-11-29 23:41:34 +0000";
layers = (
{
layerId = "FFDA6A0D-11B9-4032-BFBB-EDC4FF23EF93";
name = Light;
paths = (
{
closed = 1;
nodes = (
"561 0 LINE",
"561 44 LINE",
"118 44 LINE",
"548 658 LINE",
"548 699 LINE",
"66 699 LINE",
"66 654 LINE",
"485 654 LINE",
"55 40 LINE",
"55 0 LINE"
);
}
);
width = 616;
}
);
leftKerningGroup = Z;
note = Z;
rightKerningGroup = Z;
unicode = 005A;
},
{
glyphname = Zacute;
lastChange = "2015-11-29 23:41:39 +0000";
layers = (
{
layerId = "FFDA6A0D-11B9-4032-BFBB-EDC4FF23EF93";
name = Light;
paths = (
{
closed = 1;
nodes = (
"561 0 LINE",
"561 44 LINE",
"118 44 LINE",
"548 658 LINE",
"548 699 LINE",
"66 699 LINE",
"66 654 LINE",
"485 654 LINE",
"55 40 LINE",
"55 0 LINE"
);
},
{
closed = 1;
nodes = (
"305 760 LINE",
"383 929 LINE",
"329 929 LINE",
"259 760 LINE"
);
}
);
width = 616;
}
);
leftKerningGroup = Z;
note = Zacute;
rightKerningGroup = Z;
unicode = 0179;
},
{
glyphname = Zcaron;
lastChange = "2015-11-29 23:41:38 +0000";
layers = (
{
layerId = "FFDA6A0D-11B9-4032-BFBB-EDC4FF23EF93";
name = Light;
paths = (
{
closed = 1;
nodes = (
"561 0 LINE",
"561 44 LINE",
"118 44 LINE",
"548 658 LINE",
"548 699 LINE",
"66 699 LINE",
"66 654 LINE",
"485 654 LINE",
"55 40 LINE",
"55 0 LINE"
);
},
{
closed = 1;
nodes = (
"334 769 LINE",
"466 925 LINE",
"412 925 LINE",
"312 804 LINE",
"212 925 LINE",
"157 925 LINE",
"289 769 LINE"
);
}
);
width = 616;
}
);
leftKerningGroup = Z;
note = Zcaron;
rightKerningGroup = Z;
unicode = 017D;
},
{
glyphname = Zdotaccent;
lastChange = "2015-11-29 23:41:37 +0000";
layers = (
{
layerId = "FFDA6A0D-11B9-4032-BFBB-EDC4FF23EF93";
name = Light;
paths = (
{
closed = 1;
nodes = (
"561 0 LINE",
"561 44 LINE",
"118 44 LINE",
"548 658 LINE",
"548 699 LINE",
"66 699 LINE",
"66 654 LINE",
"485 654 LINE",
"55 40 LINE",
"55 0 LINE"
);
},
{
closed = 1;
nodes = (
"319 765 OFFCURVE",
"337 783 OFFCURVE",
"337 804 CURVE SMOOTH",
"337 825 OFFCURVE",
"319 842 OFFCURVE",
"299 842 CURVE SMOOTH",
"278 842 OFFCURVE",
"260 825 OFFCURVE",
"260 804 CURVE SMOOTH",
"260 783 OFFCURVE",
"278 765 OFFCURVE",
"299 765 CURVE SMOOTH"
);
}
);
width = 616;
}
);
leftKerningGroup = Z;
note = Zdotaccent;
rightKerningGroup = Z;
unicode = 017B;
},
{
glyphname = Zdotbelow;
lastChange = "2015-11-29 23:41:37 +0000";
layers = (
{
layerId = "FFDA6A0D-11B9-4032-BFBB-EDC4FF23EF93";
name = Light;
paths = (
{
closed = 1;
nodes = (
"561 0 LINE",
"561 44 LINE",
"118 44 LINE",
"548 658 LINE",
"548 699 LINE",
"66 699 LINE",
"66 654 LINE",
"485 654 LINE",
"55 40 LINE",
"55 0 LINE"
);
},
{
closed = 1;
nodes = (
"337 -137 OFFCURVE",
"355 -119 OFFCURVE",
"355 -98 CURVE SMOOTH",
"355 -77 OFFCURVE",
"337 -60 OFFCURVE",
"317 -60 CURVE SMOOTH",
"296 -60 OFFCURVE",
"278 -77 OFFCURVE",
"278 -98 CURVE SMOOTH",
"278 -119 OFFCURVE",
"296 -137 OFFCURVE",
"317 -137 CURVE SMOOTH"
);
}
);
width = 616;
}
);
leftKerningGroup = Z;
note = Zdotbelow;
rightKerningGroup = Z;
unicode = 1E92;
},
{
glyphname = a;
lastChange = "2015-11-29 23:41:37 +0000";
layers = (
{
layerId = "FFDA6A0D-11B9-4032-BFBB-EDC4FF23EF93";
name = Light;
paths = (
{
closed = 1;
nodes = (
"334 -15 OFFCURVE",
"398 14 OFFCURVE",
"439 69 CURVE",
"439 0 LINE",
"488 0 LINE",
"488 308 LINE SMOOTH",
"488 423 OFFCURVE",
"423 495 OFFCURVE",
"274 495 CURVE SMOOTH",
"219 495 OFFCURVE",
"156 483 OFFCURVE",
"117 466 CURVE",
"117 421 LINE",
"160 439 OFFCURVE",
"212 452 OFFCURVE",
"271 452 CURVE SMOOTH",
"387 452 OFFCURVE",
"435 405 OFFCURVE",
"435 311 CURVE SMOOTH",
"435 252 LINE",
"383 283 OFFCURVE",
"317 298 OFFCURVE",
"245 298 CURVE SMOOTH",
"123 298 OFFCURVE",
"55 245 OFFCURVE",
"55 141 CURVE SMOOTH",
"55 41 OFFCURVE",
"129 -15 OFFCURVE",
"242 -15 CURVE SMOOTH"
);
},
{
closed = 1;
nodes = (
"153 28 OFFCURVE",
"106 69 OFFCURVE",
"106 141 CURVE SMOOTH",
"106 216 OFFCURVE",
"147 256 OFFCURVE",
"253 256 CURVE SMOOTH",
"328 256 OFFCURVE",
"379 240 OFFCURVE",
"435 209 CURVE",
"435 120 LINE",
"404 62 OFFCURVE",
"335 28 OFFCURVE",
"255 28 CURVE SMOOTH"
);
}
);
width = 558;
}
);
leftKerningGroup = a;
note = a;
rightKerningGroup = a;
unicode = 0061;
},
{
glyphname = aacute;
lastChange = "2015-11-29 23:41:38 +0000";
layers = (
{
layerId = "FFDA6A0D-11B9-4032-BFBB-EDC4FF23EF93";
name = Light;
paths = (
{
closed = 1;
nodes = (
"334 -15 OFFCURVE",
"398 14 OFFCURVE",
"439 69 CURVE",
"439 0 LINE",
"488 0 LINE",
"488 308 LINE SMOOTH",
"488 423 OFFCURVE",
"423 495 OFFCURVE",
"274 495 CURVE SMOOTH",
"219 495 OFFCURVE",
"156 483 OFFCURVE",
"117 466 CURVE",
"117 421 LINE",
"160 439 OFFCURVE",
"212 452 OFFCURVE",
"271 452 CURVE SMOOTH",
"387 452 OFFCURVE",
"435 405 OFFCURVE",
"435 311 CURVE SMOOTH",
"435 252 LINE",
"383 283 OFFCURVE",
"317 298 OFFCURVE",
"245 298 CURVE SMOOTH",
"123 298 OFFCURVE",
"55 245 OFFCURVE",
"55 141 CURVE SMOOTH",
"55 41 OFFCURVE",
"129 -15 OFFCURVE",
"242 -15 CURVE SMOOTH"
);
},
{
closed = 1;
nodes = (
"153 28 OFFCURVE",
"106 69 OFFCURVE",
"106 141 CURVE SMOOTH",
"106 216 OFFCURVE",
"147 256 OFFCURVE",
"253 256 CURVE SMOOTH",
"328 256 OFFCURVE",
"379 240 OFFCURVE",
"435 209 CURVE",
"435 120 LINE",
"404 62 OFFCURVE",
"335 28 OFFCURVE",
"255 28 CURVE SMOOTH"
);
},
{
closed = 1;
nodes = (
"308 568 LINE",
"386 737 LINE",
"332 737 LINE",
"262 568 LINE"
);
}
);
width = 558;
}
);
leftKerningGroup = a;
note = aacute;
rightKerningGroup = a;
unicode = 00E1;
},
{
glyphname = abreve;
lastChange = "2015-11-29 23:41:39 +0000";
layers = (
{
layerId = "FFDA6A0D-11B9-4032-BFBB-EDC4FF23EF93";
name = Light;
paths = (
{
closed = 1;
nodes = (
"334 -15 OFFCURVE",
"398 14 OFFCURVE",
"439 69 CURVE",
"439 0 LINE",
"488 0 LINE",
"488 308 LINE SMOOTH",
"488 423 OFFCURVE",
"423 495 OFFCURVE",
"274 495 CURVE SMOOTH",
"219 495 OFFCURVE",
"156 483 OFFCURVE",
"117 466 CURVE",
"117 421 LINE",
"160 439 OFFCURVE",
"212 452 OFFCURVE",
"271 452 CURVE SMOOTH",
"387 452 OFFCURVE",
"435 405 OFFCURVE",
"435 311 CURVE SMOOTH",
"435 252 LINE",
"383 283 OFFCURVE",
"317 298 OFFCURVE",
"245 298 CURVE SMOOTH",
"123 298 OFFCURVE",
"55 245 OFFCURVE",
"55 141 CURVE SMOOTH",
"55 41 OFFCURVE",
"129 -15 OFFCURVE",
"242 -15 CURVE SMOOTH"
);
},
{
closed = 1;
nodes = (
"153 28 OFFCURVE",
"106 69 OFFCURVE",
"106 141 CURVE SMOOTH",
"106 216 OFFCURVE",
"147 256 OFFCURVE",
"253 256 CURVE SMOOTH",
"328 256 OFFCURVE",
"379 240 OFFCURVE",
"435 209 CURVE",
"435 120 LINE",
"404 62 OFFCURVE",
"335 28 OFFCURVE",
"255 28 CURVE SMOOTH"
);
},
{
closed = 1;
nodes = (
"381 557 OFFCURVE",
"432 609 OFFCURVE",
"432 676 CURVE",
"391 676 LINE",
"391 629 OFFCURVE",
"358 596 OFFCURVE",
"304 596 CURVE SMOOTH",
"250 596 OFFCURVE",
"217 629 OFFCURVE",
"217 676 CURVE",
"175 676 LINE",
"175 609 OFFCURVE",
"226 557 OFFCURVE",
"304 557 CURVE SMOOTH"
);
}
);
width = 558;
}
);
leftKerningGroup = a;
note = abreve;
rightKerningGroup = a;
unicode = 0103;
},
{
glyphname = abreveacute;
lastChange = "2015-11-29 23:41:39 +0000";
layers = (
{
layerId = "FFDA6A0D-11B9-4032-BFBB-EDC4FF23EF93";
name = Light;
paths = (
{
closed = 1;
nodes = (
"334 -15 OFFCURVE",
"398 14 OFFCURVE",
"439 69 CURVE",
"439 0 LINE",
"488 0 LINE",
"488 308 LINE SMOOTH",
"488 423 OFFCURVE",
"423 495 OFFCURVE",
"274 495 CURVE SMOOTH",
"219 495 OFFCURVE",
"156 483 OFFCURVE",
"117 466 CURVE",
"117 421 LINE",
"160 439 OFFCURVE",
"212 452 OFFCURVE",
"271 452 CURVE SMOOTH",
"387 452 OFFCURVE",
"435 405 OFFCURVE",
"435 311 CURVE SMOOTH",
"435 252 LINE",
"383 283 OFFCURVE",
"317 298 OFFCURVE",
"245 298 CURVE SMOOTH",
"123 298 OFFCURVE",
"55 245 OFFCURVE",
"55 141 CURVE SMOOTH",
"55 41 OFFCURVE",
"129 -15 OFFCURVE",
"242 -15 CURVE SMOOTH"
);
},
{
closed = 1;
nodes = (
"153 28 OFFCURVE",
"106 69 OFFCURVE",
"106 141 CURVE SMOOTH",
"106 216 OFFCURVE",
"147 256 OFFCURVE",
"253 256 CURVE SMOOTH",
"328 256 OFFCURVE",
"379 240 OFFCURVE",
"435 209 CURVE",
"435 120 LINE",
"404 62 OFFCURVE",
"335 28 OFFCURVE",
"255 28 CURVE SMOOTH"
);
},
{
closed = 1;
nodes = (
"366 549 OFFCURVE",
"416 600 OFFCURVE",
"416 667 CURVE",
"375 667 LINE",
"375 620 OFFCURVE",
"343 587 OFFCURVE",
"289 587 CURVE SMOOTH",
"235 587 OFFCURVE",
"202 620 OFFCURVE",
"202 667 CURVE",
"161 667 LINE",
"161 600 OFFCURVE",
"212 549 OFFCURVE",
"289 549 CURVE SMOOTH"
);
},
{
closed = 1;
nodes = (
"296 643 LINE",
"357 764 LINE",
"311 764 LINE",
"258 643 LINE"
);
}
);
width = 558;
}
);
leftKerningGroup = a;
note = abreveacute;
rightKerningGroup = a;
unicode = 1EAF;
},
{
glyphname = abrevedotbelow;
lastChange = "2015-11-29 23:41:38 +0000";
layers = (
{
layerId = "FFDA6A0D-11B9-4032-BFBB-EDC4FF23EF93";
name = Light;
paths = (
{
closed = 1;
nodes = (
"334 -15 OFFCURVE",
"398 14 OFFCURVE",
"439 69 CURVE",
"439 0 LINE",
"488 0 LINE",
"488 308 LINE SMOOTH",
"488 423 OFFCURVE",
"423 495 OFFCURVE",
"274 495 CURVE SMOOTH",
"219 495 OFFCURVE",
"156 483 OFFCURVE",
"117 466 CURVE",
"117 421 LINE",
"160 439 OFFCURVE",
"212 452 OFFCURVE",
"271 452 CURVE SMOOTH",
"387 452 OFFCURVE",
"435 405 OFFCURVE",
"435 311 CURVE SMOOTH",
"435 252 LINE",
"383 283 OFFCURVE",
"317 298 OFFCURVE",
"245 298 CURVE SMOOTH",
"123 298 OFFCURVE",
"55 245 OFFCURVE",
"55 141 CURVE SMOOTH",
"55 41 OFFCURVE",
"129 -15 OFFCURVE",
"242 -15 CURVE SMOOTH"
);
},
{
closed = 1;
nodes = (
"304 -137 OFFCURVE",
"322 -119 OFFCURVE",
"322 -98 CURVE SMOOTH",
"322 -77 OFFCURVE",
"304 -60 OFFCURVE",
"284 -60 CURVE SMOOTH",
"263 -60 OFFCURVE",
"245 -77 OFFCURVE",
"245 -98 CURVE SMOOTH",
"245 -119 OFFCURVE",
"263 -137 OFFCURVE",
"284 -137 CURVE SMOOTH"
);
},
{
closed = 1;
nodes = (
"153 28 OFFCURVE",
"106 69 OFFCURVE",
"106 141 CURVE SMOOTH",
"106 216 OFFCURVE",
"147 256 OFFCURVE",
"253 256 CURVE SMOOTH",
"328 256 OFFCURVE",
"379 240 OFFCURVE",
"435 209 CURVE",
"435 120 LINE",
"404 62 OFFCURVE",
"335 28 OFFCURVE",
"255 28 CURVE SMOOTH"
);
},
{
closed = 1;
nodes = (
"361 547 OFFCURVE",
"412 599 OFFCURVE",
"412 666 CURVE",
"371 666 LINE",
"371 619 OFFCURVE",
"338 586 OFFCURVE",
"284 586 CURVE SMOOTH",
"230 586 OFFCURVE",
"197 619 OFFCURVE",
"197 666 CURVE",
"155 666 LINE",
"155 599 OFFCURVE",
"206 547 OFFCURVE",
"284 547 CURVE SMOOTH"
);
}
);
width = 558;
}
);
leftKerningGroup = a;
note = abrevedotbelow;
rightKerningGroup = a;
unicode = 1EB7;
},
{
glyphname = abrevegrave;
lastChange = "2015-11-29 23:41:39 +0000";
layers = (
{
layerId = "FFDA6A0D-11B9-4032-BFBB-EDC4FF23EF93";
name = Light;
paths = (
{
closed = 1;
nodes = (
"334 -15 OFFCURVE",
"398 14 OFFCURVE",
"439 69 CURVE",
"439 0 LINE",
"488 0 LINE",
"488 308 LINE SMOOTH",
"488 423 OFFCURVE",
"423 495 OFFCURVE",
"274 495 CURVE SMOOTH",
"219 495 OFFCURVE",
"156 483 OFFCURVE",
"117 466 CURVE",
"117 421 LINE",
"160 439 OFFCURVE",
"212 452 OFFCURVE",
"271 452 CURVE SMOOTH",
"387 452 OFFCURVE",
"435 405 OFFCURVE",
"435 311 CURVE SMOOTH",
"435 252 LINE",
"383 283 OFFCURVE",
"317 298 OFFCURVE",
"245 298 CURVE SMOOTH",
"123 298 OFFCURVE",
"55 245 OFFCURVE",
"55 141 CURVE SMOOTH",
"55 41 OFFCURVE",
"129 -15 OFFCURVE",
"242 -15 CURVE SMOOTH"
);
},
{
closed = 1;
nodes = (
"153 28 OFFCURVE",
"106 69 OFFCURVE",
"106 141 CURVE SMOOTH",
"106 216 OFFCURVE",
"147 256 OFFCURVE",
"253 256 CURVE SMOOTH",
"328 256 OFFCURVE",
"379 240 OFFCURVE",
"435 209 CURVE",
"435 120 LINE",
"404 62 OFFCURVE",
"335 28 OFFCURVE",
"255 28 CURVE SMOOTH"
);
},
{
closed = 1;
nodes = (
"368 549 OFFCURVE",
"418 600 OFFCURVE",
"418 667 CURVE",
"377 667 LINE",
"377 620 OFFCURVE",
"345 587 OFFCURVE",
"291 587 CURVE SMOOTH",
"237 587 OFFCURVE",
"204 620 OFFCURVE",
"204 667 CURVE",
"163 667 LINE",
"163 600 OFFCURVE",
"214 549 OFFCURVE",
"291 549 CURVE SMOOTH"
);
},
{
closed = 1;
nodes = (
"322 643 LINE",
"269 764 LINE",
"222 764 LINE",
"284 643 LINE"
);
}
);
width = 558;
}
);
leftKerningGroup = a;
note = abrevegrave;
rightKerningGroup = a;
unicode = 1EB1;
},
{
glyphname = abrevehookabove;
lastChange = "2015-11-29 23:41:37 +0000";
layers = (
{
layerId = "FFDA6A0D-11B9-4032-BFBB-EDC4FF23EF93";
name = Light;
paths = (
{
closed = 1;
nodes = (
"334 -15 OFFCURVE",
"398 14 OFFCURVE",
"439 69 CURVE",
"439 0 LINE",
"488 0 LINE",
"488 308 LINE SMOOTH",
"488 423 OFFCURVE",
"423 495 OFFCURVE",
"274 495 CURVE SMOOTH",
"219 495 OFFCURVE",
"156 483 OFFCURVE",
"117 466 CURVE",
"117 421 LINE",
"160 439 OFFCURVE",
"212 452 OFFCURVE",
"271 452 CURVE SMOOTH",
"387 452 OFFCURVE",
"435 405 OFFCURVE",
"435 311 CURVE SMOOTH",
"435 252 LINE",
"383 283 OFFCURVE",
"317 298 OFFCURVE",
"245 298 CURVE SMOOTH",
"123 298 OFFCURVE",
"55 245 OFFCURVE",
"55 141 CURVE SMOOTH",
"55 41 OFFCURVE",
"129 -15 OFFCURVE",
"242 -15 CURVE SMOOTH"
);
},
{
closed = 1;
nodes = (
"153 28 OFFCURVE",
"106 69 OFFCURVE",
"106 141 CURVE SMOOTH",
"106 216 OFFCURVE",
"147 256 OFFCURVE",
"253 256 CURVE SMOOTH",
"328 256 OFFCURVE",
"379 240 OFFCURVE",
"435 209 CURVE",
"435 120 LINE",
"404 62 OFFCURVE",
"335 28 OFFCURVE",
"255 28 CURVE SMOOTH"
);
},
{
closed = 1;
nodes = (
"367 549 OFFCURVE",
"417 600 OFFCURVE",
"417 667 CURVE",
"377 667 LINE",
"377 620 OFFCURVE",
"344 587 OFFCURVE",
"290 587 CURVE SMOOTH",
"236 587 OFFCURVE",
"203 620 OFFCURVE",
"203 667 CURVE",
"162 667 LINE",
"162 600 OFFCURVE",
"213 549 OFFCURVE",
"290 549 CURVE SMOOTH"
);
},
{
closed = 1;
nodes = (
"299 632 LINE",
"299 658 LINE",
"343 662 OFFCURVE",
"367 687 OFFCURVE",
"367 721 CURVE SMOOTH",
"367 759 OFFCURVE",
"342 785 OFFCURVE",
"290 785 CURVE SMOOTH",
"270 785 OFFCURVE",
"248 781 OFFCURVE",
"235 776 CURVE",
"235 746 LINE",
"246 751 OFFCURVE",
"266 754 OFFCURVE",
"282 754 CURVE SMOOTH",
"312 754 OFFCURVE",
"326 745 OFFCURVE",
"326 721 CURVE SMOOTH",
"326 693 OFFCURVE",
"307 682 OFFCURVE",
"263 682 CURVE",
"263 632 LINE"
);
}
);
width = 558;
}
);
leftKerningGroup = a;
note = abrevehookabove;
rightKerningGroup = a;
unicode = 1EB3;
},
{
glyphname = abrevetilde;
lastChange = "2015-11-29 23:41:38 +0000";
layers = (
{
layerId = "FFDA6A0D-11B9-4032-BFBB-EDC4FF23EF93";
name = Light;
paths = (
{
closed = 1;
nodes = (
"334 -15 OFFCURVE",
"398 14 OFFCURVE",
"439 69 CURVE",
"439 0 LINE",
"488 0 LINE",
"488 308 LINE SMOOTH",
"488 423 OFFCURVE",
"423 495 OFFCURVE",
"274 495 CURVE SMOOTH",
"219 495 OFFCURVE",
"156 483 OFFCURVE",
"117 466 CURVE",
"117 421 LINE",
"160 439 OFFCURVE",
"212 452 OFFCURVE",
"271 452 CURVE SMOOTH",
"387 452 OFFCURVE",
"435 405 OFFCURVE",
"435 311 CURVE SMOOTH",
"435 252 LINE",
"383 283 OFFCURVE",
"317 298 OFFCURVE",
"245 298 CURVE SMOOTH",
"123 298 OFFCURVE",
"55 245 OFFCURVE",
"55 141 CURVE SMOOTH",
"55 41 OFFCURVE",
"129 -15 OFFCURVE",
"242 -15 CURVE SMOOTH"
);
},
{
closed = 1;
nodes = (
"153 28 OFFCURVE",
"106 69 OFFCURVE",
"106 141 CURVE SMOOTH",
"106 216 OFFCURVE",
"147 256 OFFCURVE",
"253 256 CURVE SMOOTH",
"328 256 OFFCURVE",
"379 240 OFFCURVE",
"435 209 CURVE",
"435 120 LINE",
"404 62 OFFCURVE",
"335 28 OFFCURVE",
"255 28 CURVE SMOOTH"
);
},
{
closed = 1;
nodes = (
"376 549 OFFCURVE",
"426 600 OFFCURVE",
"426 667 CURVE",
"386 667 LINE",
"386 620 OFFCURVE",
"353 587 OFFCURVE",
"299 587 CURVE SMOOTH",
"245 587 OFFCURVE",
"212 620 OFFCURVE",
"212 667 CURVE",
"171 667 LINE",
"171 600 OFFCURVE",
"222 549 OFFCURVE",
"299 549 CURVE SMOOTH"
);
},
{
closed = 1;
nodes = (
"168 725 OFFCURVE",
"191 735 OFFCURVE",
"221 735 CURVE SMOOTH",
"269 735 OFFCURVE",
"315 691 OFFCURVE",
"371 691 CURVE SMOOTH",
"406 691 OFFCURVE",
"431 700 OFFCURVE",
"447 727 CURVE",
"447 773 LINE",
"426 738 OFFCURVE",
"402 727 OFFCURVE",
"371 727 CURVE SMOOTH",
"322 727 OFFCURVE",
"273 772 OFFCURVE",
"221 772 CURVE SMOOTH",
"187 772 OFFCURVE",
"161 762 OFFCURVE",
"145 735 CURVE",
"145 690 LINE"
);
}
);
width = 558;
}
);
leftKerningGroup = a;
note = abrevetilde;
rightKerningGroup = a;
unicode = 1EB5;
},
{
glyphname = acaron;
lastChange = "2015-11-29 23:41:38 +0000";
layers = (
{
layerId = "FFDA6A0D-11B9-4032-BFBB-EDC4FF23EF93";
name = Light;
paths = (
{
closed = 1;
nodes = (
"334 -15 OFFCURVE",
"398 14 OFFCURVE",
"439 69 CURVE",
"439 0 LINE",
"488 0 LINE",
"488 308 LINE SMOOTH",
"488 423 OFFCURVE",
"423 495 OFFCURVE",
"274 495 CURVE SMOOTH",
"219 495 OFFCURVE",
"156 483 OFFCURVE",
"117 466 CURVE",
"117 421 LINE",
"160 439 OFFCURVE",
"212 452 OFFCURVE",
"271 452 CURVE SMOOTH",
"387 452 OFFCURVE",
"435 405 OFFCURVE",
"435 311 CURVE SMOOTH",
"435 252 LINE",
"383 283 OFFCURVE",
"317 298 OFFCURVE",
"245 298 CURVE SMOOTH",
"123 298 OFFCURVE",
"55 245 OFFCURVE",
"55 141 CURVE SMOOTH",
"55 41 OFFCURVE",
"129 -15 OFFCURVE",
"242 -15 CURVE SMOOTH"
);
},
{
closed = 1;
nodes = (
"153 28 OFFCURVE",
"106 69 OFFCURVE",
"106 141 CURVE SMOOTH",
"106 216 OFFCURVE",
"147 256 OFFCURVE",
"253 256 CURVE SMOOTH",
"328 256 OFFCURVE",
"379 240 OFFCURVE",
"435 209 CURVE",
"435 120 LINE",
"404 62 OFFCURVE",
"335 28 OFFCURVE",
"255 28 CURVE SMOOTH"
);
},
{
closed = 1;
nodes = (
"317 551 LINE",
"449 707 LINE",
"395 707 LINE",
"295 586 LINE",
"195 707 LINE",
"140 707 LINE",
"272 551 LINE"
);
}
);
width = 558;
}
);
leftKerningGroup = a;
note = acaron;
rightKerningGroup = a;
unicode = 01CE;
},
{
glyphname = acircumflex;
lastChange = "2015-11-29 23:41:38 +0000";
layers = (
{
layerId = "FFDA6A0D-11B9-4032-BFBB-EDC4FF23EF93";
name = Light;
paths = (
{
closed = 1;
nodes = (
"334 -15 OFFCURVE",
"398 14 OFFCURVE",
"439 69 CURVE",
"439 0 LINE",
"488 0 LINE",
"488 308 LINE SMOOTH",
"488 423 OFFCURVE",
"423 495 OFFCURVE",
"274 495 CURVE SMOOTH",
"219 495 OFFCURVE",
"156 483 OFFCURVE",
"117 466 CURVE",
"117 421 LINE",
"160 439 OFFCURVE",
"212 452 OFFCURVE",
"271 452 CURVE SMOOTH",
"387 452 OFFCURVE",
"435 405 OFFCURVE",
"435 311 CURVE SMOOTH",
"435 252 LINE",
"383 283 OFFCURVE",
"317 298 OFFCURVE",
"245 298 CURVE SMOOTH",
"123 298 OFFCURVE",
"55 245 OFFCURVE",
"55 141 CURVE SMOOTH",
"55 41 OFFCURVE",
"129 -15 OFFCURVE",
"242 -15 CURVE SMOOTH"
);
},
{
closed = 1;
nodes = (
"153 28 OFFCURVE",
"106 69 OFFCURVE",
"106 141 CURVE SMOOTH",
"106 216 OFFCURVE",
"147 256 OFFCURVE",
"253 256 CURVE SMOOTH",
"328 256 OFFCURVE",
"379 240 OFFCURVE",
"435 209 CURVE",
"435 120 LINE",
"404 62 OFFCURVE",
"335 28 OFFCURVE",
"255 28 CURVE SMOOTH"
);
},
{
closed = 1;
nodes = (
"189 551 LINE",
"289 672 LINE",
"389 551 LINE",
"443 551 LINE",
"311 707 LINE",
"266 707 LINE",
"134 551 LINE"
);
}
);
width = 558;
}
);
leftKerningGroup = a;
note = acircumflex;
rightKerningGroup = a;
unicode = 00E2;
},
{
glyphname = acircumflexacute;
lastChange = "2015-11-29 23:41:38 +0000";
layers = (
{
layerId = "FFDA6A0D-11B9-4032-BFBB-EDC4FF23EF93";
name = Light;
paths = (
{
closed = 1;
nodes = (
"334 -15 OFFCURVE",
"398 14 OFFCURVE",
"439 69 CURVE",
"439 0 LINE",
"488 0 LINE",
"488 308 LINE SMOOTH",
"488 423 OFFCURVE",
"423 495 OFFCURVE",
"274 495 CURVE SMOOTH",
"219 495 OFFCURVE",
"156 483 OFFCURVE",
"117 466 CURVE",
"117 421 LINE",
"160 439 OFFCURVE",
"212 452 OFFCURVE",
"271 452 CURVE SMOOTH",
"387 452 OFFCURVE",
"435 405 OFFCURVE",
"435 311 CURVE SMOOTH",
"435 252 LINE",
"383 283 OFFCURVE",
"317 298 OFFCURVE",
"245 298 CURVE SMOOTH",
"123 298 OFFCURVE",
"55 245 OFFCURVE",
"55 141 CURVE SMOOTH",
"55 41 OFFCURVE",
"129 -15 OFFCURVE",
"242 -15 CURVE SMOOTH"
);
},
{
closed = 1;
nodes = (
"153 28 OFFCURVE",
"106 69 OFFCURVE",
"106 141 CURVE SMOOTH",
"106 216 OFFCURVE",
"147 256 OFFCURVE",
"253 256 CURVE SMOOTH",
"328 256 OFFCURVE",
"379 240 OFFCURVE",
"435 209 CURVE",
"435 120 LINE",
"404 62 OFFCURVE",
"335 28 OFFCURVE",
"255 28 CURVE SMOOTH"
);
},
{
closed = 1;
nodes = (
"194 546 LINE",
"289 637 LINE",
"384 546 LINE",
"437 546 LINE",
"307 670 LINE",
"270 670 LINE",
"140 546 LINE"
);
},
{
closed = 1;
nodes = (
"411 639 LINE",
"487 753 LINE",
"441 753 LINE",
"373 639 LINE"
);
}
);
width = 558;
}
);
leftKerningGroup = a;
note = acircumflexacute;
rightKerningGroup = a;
unicode = 1EA5;
},
{
glyphname = acircumflexdotbelow;
lastChange = "2015-11-29 23:41:38 +0000";
layers = (
{
layerId = "FFDA6A0D-11B9-4032-BFBB-EDC4FF23EF93";
name = Light;
paths = (
{
closed = 1;
nodes = (
"334 -15 OFFCURVE",
"398 14 OFFCURVE",
"439 69 CURVE",
"439 0 LINE",
"488 0 LINE",
"488 308 LINE SMOOTH",
"488 423 OFFCURVE",
"423 495 OFFCURVE",
"274 495 CURVE SMOOTH",
"219 495 OFFCURVE",
"156 483 OFFCURVE",
"117 466 CURVE",
"117 421 LINE",
"160 439 OFFCURVE",
"212 452 OFFCURVE",
"271 452 CURVE SMOOTH",
"387 452 OFFCURVE",
"435 405 OFFCURVE",
"435 311 CURVE SMOOTH",
"435 252 LINE",
"383 283 OFFCURVE",
"317 298 OFFCURVE",
"245 298 CURVE SMOOTH",
"123 298 OFFCURVE",
"55 245 OFFCURVE",
"55 141 CURVE SMOOTH",
"55 41 OFFCURVE",
"129 -15 OFFCURVE",
"242 -15 CURVE SMOOTH"
);
},
{
closed = 1;
nodes = (
"305 -137 OFFCURVE",
"323 -119 OFFCURVE",
"323 -98 CURVE SMOOTH",
"323 -77 OFFCURVE",
"305 -60 OFFCURVE",
"285 -60 CURVE SMOOTH",
"264 -60 OFFCURVE",
"246 -77 OFFCURVE",
"246 -98 CURVE SMOOTH",
"246 -119 OFFCURVE",
"264 -137 OFFCURVE",
"285 -137 CURVE SMOOTH"
);
},
{
closed = 1;
nodes = (
"153 28 OFFCURVE",
"106 69 OFFCURVE",
"106 141 CURVE SMOOTH",
"106 216 OFFCURVE",
"147 256 OFFCURVE",
"253 256 CURVE SMOOTH",
"328 256 OFFCURVE",
"379 240 OFFCURVE",
"435 209 CURVE",
"435 120 LINE",
"404 62 OFFCURVE",
"335 28 OFFCURVE",
"255 28 CURVE SMOOTH"
);
},
{
closed = 1;
nodes = (
"187 551 LINE",
"287 672 LINE",
"387 551 LINE",
"441 551 LINE",
"309 707 LINE",
"264 707 LINE",
"132 551 LINE"
);
}
);
width = 558;
}
);
leftKerningGroup = a;
note = acircumflexdotbelow;
rightKerningGroup = a;
unicode = 1EAD;
},
{
glyphname = acircumflexgrave;
lastChange = "2015-11-29 23:41:37 +0000";
layers = (
{
layerId = "FFDA6A0D-11B9-4032-BFBB-EDC4FF23EF93";
name = Light;
paths = (
{
closed = 1;
nodes = (
"334 -15 OFFCURVE",
"398 14 OFFCURVE",
"439 69 CURVE",
"439 0 LINE",
"488 0 LINE",
"488 308 LINE SMOOTH",
"488 423 OFFCURVE",
"423 495 OFFCURVE",
"274 495 CURVE SMOOTH",
"219 495 OFFCURVE",
"156 483 OFFCURVE",
"117 466 CURVE",
"117 421 LINE",
"160 439 OFFCURVE",
"212 452 OFFCURVE",
"271 452 CURVE SMOOTH",
"387 452 OFFCURVE",
"435 405 OFFCURVE",
"435 311 CURVE SMOOTH",
"435 252 LINE",
"383 283 OFFCURVE",
"317 298 OFFCURVE",
"245 298 CURVE SMOOTH",
"123 298 OFFCURVE",
"55 245 OFFCURVE",
"55 141 CURVE SMOOTH",
"55 41 OFFCURVE",
"129 -15 OFFCURVE",
"242 -15 CURVE SMOOTH"
);
},
{
closed = 1;
nodes = (
"153 28 OFFCURVE",
"106 69 OFFCURVE",
"106 141 CURVE SMOOTH",
"106 216 OFFCURVE",
"147 256 OFFCURVE",
"253 256 CURVE SMOOTH",
"328 256 OFFCURVE",
"379 240 OFFCURVE",
"435 209 CURVE",
"435 120 LINE",
"404 62 OFFCURVE",
"335 28 OFFCURVE",
"255 28 CURVE SMOOTH"
);
},
{
closed = 1;
nodes = (
"215 639 LINE",
"147 753 LINE",
"101 753 LINE",
"177 639 LINE"
);
},
{
closed = 1;
nodes = (
"204 546 LINE",
"299 637 LINE",
"394 546 LINE",
"448 546 LINE",
"318 670 LINE",
"281 670 LINE",
"151 546 LINE"
);
}
);
width = 558;
}
);
leftKerningGroup = a;
note = acircumflexgrave;
rightKerningGroup = a;
unicode = 1EA7;
},
{
glyphname = acircumflexhookabove;
lastChange = "2015-11-29 23:41:38 +0000";
layers = (
{
layerId = "FFDA6A0D-11B9-4032-BFBB-EDC4FF23EF93";
name = Light;
paths = (
{
closed = 1;
nodes = (
"334 -15 OFFCURVE",
"398 14 OFFCURVE",
"439 69 CURVE",
"439 0 LINE",
"488 0 LINE",
"488 308 LINE SMOOTH",
"488 423 OFFCURVE",
"423 495 OFFCURVE",
"274 495 CURVE SMOOTH",
"219 495 OFFCURVE",
"156 483 OFFCURVE",
"117 466 CURVE",
"117 421 LINE",
"160 439 OFFCURVE",
"212 452 OFFCURVE",
"271 452 CURVE SMOOTH",
"387 452 OFFCURVE",
"435 405 OFFCURVE",
"435 311 CURVE SMOOTH",
"435 252 LINE",
"383 283 OFFCURVE",
"317 298 OFFCURVE",
"245 298 CURVE SMOOTH",
"123 298 OFFCURVE",
"55 245 OFFCURVE",
"55 141 CURVE SMOOTH",
"55 41 OFFCURVE",
"129 -15 OFFCURVE",
"242 -15 CURVE SMOOTH"
);
},
{
closed = 1;
nodes = (
"153 28 OFFCURVE",
"106 69 OFFCURVE",
"106 141 CURVE SMOOTH",
"106 216 OFFCURVE",
"147 256 OFFCURVE",
"253 256 CURVE SMOOTH",
"328 256 OFFCURVE",
"379 240 OFFCURVE",
"435 209 CURVE",
"435 120 LINE",
"404 62 OFFCURVE",
"335 28 OFFCURVE",
"255 28 CURVE SMOOTH"
);
},
{
closed = 1;
nodes = (
"193 546 LINE",
"288 637 LINE",
"383 546 LINE",
"436 546 LINE",
"306 670 LINE",
"269 670 LINE",
"139 546 LINE"
);
},
{
closed = 1;
nodes = (
"412 630 LINE",
"412 656 LINE",
"456 660 OFFCURVE",
"480 685 OFFCURVE",
"480 719 CURVE SMOOTH",
"480 757 OFFCURVE",
"455 783 OFFCURVE",
"403 783 CURVE SMOOTH",
"383 783 OFFCURVE",
"361 779 OFFCURVE",
"348 774 CURVE",
"348 744 LINE",
"359 749 OFFCURVE",
"379 752 OFFCURVE",
"395 752 CURVE SMOOTH",
"425 752 OFFCURVE",
"439 743 OFFCURVE",
"439 719 CURVE SMOOTH",
"439 691 OFFCURVE",
"420 680 OFFCURVE",
"376 680 CURVE",
"376 630 LINE"
);
}
);
width = 558;
}
);
leftKerningGroup = a;
note = acircumflexhookabove;
rightKerningGroup = a;
unicode = 1EA9;
},
{
glyphname = acircumflextilde;
lastChange = "2015-11-29 23:41:39 +0000";
layers = (
{
layerId = "FFDA6A0D-11B9-4032-BFBB-EDC4FF23EF93";
name = Light;
paths = (
{
closed = 1;
nodes = (
"334 -15 OFFCURVE",
"398 14 OFFCURVE",
"439 69 CURVE",
"439 0 LINE",
"488 0 LINE",
"488 308 LINE SMOOTH",
"488 423 OFFCURVE",
"423 495 OFFCURVE",
"274 495 CURVE SMOOTH",
"219 495 OFFCURVE",
"156 483 OFFCURVE",
"117 466 CURVE",
"117 421 LINE",
"160 439 OFFCURVE",
"212 452 OFFCURVE",
"271 452 CURVE SMOOTH",
"387 452 OFFCURVE",
"435 405 OFFCURVE",
"435 311 CURVE SMOOTH",
"435 252 LINE",
"383 283 OFFCURVE",
"317 298 OFFCURVE",
"245 298 CURVE SMOOTH",
"123 298 OFFCURVE",
"55 245 OFFCURVE",
"55 141 CURVE SMOOTH",
"55 41 OFFCURVE",
"129 -15 OFFCURVE",
"242 -15 CURVE SMOOTH"
);
},
{
closed = 1;
nodes = (
"153 28 OFFCURVE",
"106 69 OFFCURVE",
"106 141 CURVE SMOOTH",
"106 216 OFFCURVE",
"147 256 OFFCURVE",
"253 256 CURVE SMOOTH",
"328 256 OFFCURVE",
"379 240 OFFCURVE",
"435 209 CURVE",
"435 120 LINE",
"404 62 OFFCURVE",
"335 28 OFFCURVE",
"255 28 CURVE SMOOTH"
);
},
{
closed = 1;
nodes = (
"194 546 LINE",
"289 637 LINE",
"384 546 LINE",
"437 546 LINE",
"307 670 LINE",
"270 670 LINE",
"140 546 LINE"
);
},
{
closed = 1;
nodes = (
"164 719 OFFCURVE",
"186 729 OFFCURVE",
"216 729 CURVE SMOOTH",
"265 729 OFFCURVE",
"310 684 OFFCURVE",
"367 684 CURVE SMOOTH",
"401 684 OFFCURVE",
"427 694 OFFCURVE",
"443 721 CURVE",
"443 766 LINE",
"421 731 OFFCURVE",
"397 721 OFFCURVE",
"367 721 CURVE SMOOTH",
"317 721 OFFCURVE",
"269 766 OFFCURVE",
"216 766 CURVE SMOOTH",
"182 766 OFFCURVE",
"157 756 OFFCURVE",
"140 729 CURVE",
"140 683 LINE"
);
}
);
width = 558;
}
);
leftKerningGroup = a;
note = acircumflextilde;
rightKerningGroup = a;
unicode = 1EAB;
},
{
glyphname = adieresis;
lastChange = "2015-11-29 23:41:37 +0000";
layers = (
{
layerId = "FFDA6A0D-11B9-4032-BFBB-EDC4FF23EF93";
name = Light;
paths = (
{
closed = 1;
nodes = (
"334 -15 OFFCURVE",
"398 14 OFFCURVE",
"439 69 CURVE",
"439 0 LINE",
"488 0 LINE",
"488 308 LINE SMOOTH",
"488 423 OFFCURVE",
"423 495 OFFCURVE",
"274 495 CURVE SMOOTH",
"219 495 OFFCURVE",
"156 483 OFFCURVE",
"117 466 CURVE",
"117 421 LINE",
"160 439 OFFCURVE",
"212 452 OFFCURVE",
"271 452 CURVE SMOOTH",
"387 452 OFFCURVE",
"435 405 OFFCURVE",
"435 311 CURVE SMOOTH",
"435 252 LINE",
"383 283 OFFCURVE",
"317 298 OFFCURVE",
"245 298 CURVE SMOOTH",
"123 298 OFFCURVE",
"55 245 OFFCURVE",
"55 141 CURVE SMOOTH",
"55 41 OFFCURVE",
"129 -15 OFFCURVE",
"242 -15 CURVE SMOOTH"
);
},
{
closed = 1;
nodes = (
"153 28 OFFCURVE",
"106 69 OFFCURVE",
"106 141 CURVE SMOOTH",
"106 216 OFFCURVE",
"147 256 OFFCURVE",
"253 256 CURVE SMOOTH",
"328 256 OFFCURVE",
"379 240 OFFCURVE",
"435 209 CURVE",
"435 120 LINE",
"404 62 OFFCURVE",
"335 28 OFFCURVE",
"255 28 CURVE SMOOTH"
);
},
{
closed = 1;
nodes = (
"212 553 OFFCURVE",
"230 571 OFFCURVE",
"230 592 CURVE SMOOTH",
"230 613 OFFCURVE",
"212 630 OFFCURVE",
"192 630 CURVE SMOOTH",
"171 630 OFFCURVE",
"153 613 OFFCURVE",
"153 592 CURVE SMOOTH",
"153 571 OFFCURVE",
"171 553 OFFCURVE",
"192 553 CURVE SMOOTH"
);
},
{
closed = 1;
nodes = (
"420 553 OFFCURVE",
"438 571 OFFCURVE",
"438 592 CURVE SMOOTH",
"438 613 OFFCURVE",
"420 630 OFFCURVE",
"399 630 CURVE SMOOTH",
"378 630 OFFCURVE",
"360 613 OFFCURVE",
"360 592 CURVE SMOOTH",
"360 571 OFFCURVE",
"378 553 OFFCURVE",
"399 553 CURVE SMOOTH"
);
}
);
width = 558;
}
);
leftKerningGroup = a;
note = adieresis;
rightKerningGroup = a;
unicode = 00E4;
},
{
glyphname = adotbelow;
lastChange = "2015-11-29 23:41:37 +0000";
layers = (
{
layerId = "FFDA6A0D-11B9-4032-BFBB-EDC4FF23EF93";
name = Light;
paths = (
{
closed = 1;
nodes = (
"334 -15 OFFCURVE",
"398 14 OFFCURVE",
"439 69 CURVE",
"439 0 LINE",
"488 0 LINE",
"488 308 LINE SMOOTH",
"488 423 OFFCURVE",
"423 495 OFFCURVE",
"274 495 CURVE SMOOTH",
"219 495 OFFCURVE",
"156 483 OFFCURVE",
"117 466 CURVE",
"117 421 LINE",
"160 439 OFFCURVE",
"212 452 OFFCURVE",
"271 452 CURVE SMOOTH",
"387 452 OFFCURVE",
"435 405 OFFCURVE",
"435 311 CURVE SMOOTH",
"435 252 LINE",
"383 283 OFFCURVE",
"317 298 OFFCURVE",
"245 298 CURVE SMOOTH",
"123 298 OFFCURVE",
"55 245 OFFCURVE",
"55 141 CURVE SMOOTH",
"55 41 OFFCURVE",
"129 -15 OFFCURVE",
"242 -15 CURVE SMOOTH"
);
},
{
closed = 1;
nodes = (
"295 -137 OFFCURVE",
"313 -119 OFFCURVE",
"313 -98 CURVE SMOOTH",
"313 -77 OFFCURVE",
"295 -60 OFFCURVE",
"275 -60 CURVE SMOOTH",
"254 -60 OFFCURVE",
"236 -77 OFFCURVE",
"236 -98 CURVE SMOOTH",
"236 -119 OFFCURVE",
"254 -137 OFFCURVE",
"275 -137 CURVE SMOOTH"
);
},
{
closed = 1;
nodes = (
"153 28 OFFCURVE",
"106 69 OFFCURVE",
"106 141 CURVE SMOOTH",
"106 216 OFFCURVE",
"147 256 OFFCURVE",
"253 256 CURVE SMOOTH",
"328 256 OFFCURVE",
"379 240 OFFCURVE",
"435 209 CURVE",
"435 120 LINE",
"404 62 OFFCURVE",
"335 28 OFFCURVE",
"255 28 CURVE SMOOTH"
);
}
);
width = 558;
}
);
leftKerningGroup = a;
note = adotbelow;
rightKerningGroup = a;
unicode = 1EA1;
},
{
glyphname = agrave;
lastChange = "2015-11-29 23:41:38 +0000";
layers = (
{
layerId = "FFDA6A0D-11B9-4032-BFBB-EDC4FF23EF93";
name = Light;
paths = (
{
closed = 1;
nodes = (
"334 -15 OFFCURVE",
"398 14 OFFCURVE",
"439 69 CURVE",
"439 0 LINE",
"488 0 LINE",
"488 308 LINE SMOOTH",
"488 423 OFFCURVE",
"423 495 OFFCURVE",
"274 495 CURVE SMOOTH",
"219 495 OFFCURVE",
"156 483 OFFCURVE",
"117 466 CURVE",
"117 421 LINE",
"160 439 OFFCURVE",
"212 452 OFFCURVE",
"271 452 CURVE SMOOTH",
"387 452 OFFCURVE",
"435 405 OFFCURVE",
"435 311 CURVE SMOOTH",
"435 252 LINE",
"383 283 OFFCURVE",
"317 298 OFFCURVE",
"245 298 CURVE SMOOTH",
"123 298 OFFCURVE",
"55 245 OFFCURVE",
"55 141 CURVE SMOOTH",
"55 41 OFFCURVE",
"129 -15 OFFCURVE",
"242 -15 CURVE SMOOTH"
);
},
{
closed = 1;
nodes = (
"153 28 OFFCURVE",
"106 69 OFFCURVE",
"106 141 CURVE SMOOTH",
"106 216 OFFCURVE",
"147 256 OFFCURVE",
"253 256 CURVE SMOOTH",
"328 256 OFFCURVE",
"379 240 OFFCURVE",
"435 209 CURVE",
"435 120 LINE",
"404 62 OFFCURVE",
"335 28 OFFCURVE",
"255 28 CURVE SMOOTH"
);
},
{
closed = 1;
nodes = (
"331 568 LINE",
"262 737 LINE",
"207 737 LINE",
"286 568 LINE"
);
}
);
width = 558;
}
);
leftKerningGroup = a;
note = agrave;
rightKerningGroup = a;
unicode = 00E0;
},
{
glyphname = ahookabove;
lastChange = "2015-11-29 23:41:38 +0000";
layers = (
{
layerId = "FFDA6A0D-11B9-4032-BFBB-EDC4FF23EF93";
name = Light;
paths = (
{
closed = 1;
nodes = (
"334 -15 OFFCURVE",
"398 14 OFFCURVE",
"439 69 CURVE",
"439 0 LINE",
"488 0 LINE",
"488 308 LINE SMOOTH",
"488 423 OFFCURVE",
"423 495 OFFCURVE",
"274 495 CURVE SMOOTH",
"219 495 OFFCURVE",
"156 483 OFFCURVE",
"117 466 CURVE",
"117 421 LINE",
"160 439 OFFCURVE",
"212 452 OFFCURVE",
"271 452 CURVE SMOOTH",
"387 452 OFFCURVE",
"435 405 OFFCURVE",
"435 311 CURVE SMOOTH",
"435 252 LINE",
"383 283 OFFCURVE",
"317 298 OFFCURVE",
"245 298 CURVE SMOOTH",
"123 298 OFFCURVE",
"55 245 OFFCURVE",
"55 141 CURVE SMOOTH",
"55 41 OFFCURVE",
"129 -15 OFFCURVE",
"242 -15 CURVE SMOOTH"
);
},
{
closed = 1;
nodes = (
"153 28 OFFCURVE",
"106 69 OFFCURVE",
"106 141 CURVE SMOOTH",
"106 216 OFFCURVE",
"147 256 OFFCURVE",
"253 256 CURVE SMOOTH",
"328 256 OFFCURVE",
"379 240 OFFCURVE",
"435 209 CURVE",
"435 120 LINE",
"404 62 OFFCURVE",
"335 28 OFFCURVE",
"255 28 CURVE SMOOTH"
);
},
{
closed = 1;
nodes = (
"313 545 LINE",
"313 584 LINE",
"376 589 OFFCURVE",
"408 626 OFFCURVE",
"408 675 CURVE SMOOTH",
"408 727 OFFCURVE",
"371 764 OFFCURVE",
"296 764 CURVE SMOOTH",
"272 764 OFFCURVE",
"244 760 OFFCURVE",
"230 755 CURVE",
"230 720 LINE",
"242 726 OFFCURVE",
"270 729 OFFCURVE",
"288 729 CURVE SMOOTH",
"335 729 OFFCURVE",
"361 712 OFFCURVE",
"361 673 CURVE SMOOTH",
"361 630 OFFCURVE",
"336 610 OFFCURVE",
"268 610 CURVE",
"268 545 LINE"
);
}
);
width = 558;
}
);
leftKerningGroup = a;
note = ahookabove;
rightKerningGroup = a;
unicode = 1EA3;
},
